<svg width="489" height="474" viewBox="0 0 489 474" fill="none" xmlns="http://www.w3.org/2000/svg">
<path d="M380.218 101.619C378.018 95.5007 375.518 89.3827 372.718 83.4619C367.318 71.719 366.018 60.5679 358.419 50.7" stroke="black" stroke-width="3.8985" stroke-miterlimit="10"/>
<path d="M340.72 39.45C334.12 32.8386 328.021 25.7336 316.821 20.5037C293.223 9.3531 263.024 8.26765 224.527 23.9574" stroke="black" stroke-width="3.8985" stroke-miterlimit="10"/>
<path d="M62.6364 471.669C25.3386 419.566 13.2393 360.753 19.439 300.558" stroke="black" stroke-width="3.8985" stroke-miterlimit="10"/>
<path d="M401.216 215.396C401.216 215.692 401.216 215.89 401.216 215.988C400.816 227.731 411.816 276.085 442.814 291.479C473.812 306.873 495.91 374.37 426.015 400.915C356.019 427.46 359.919 471.669 359.919 471.669" stroke="black" stroke-width="3.8985" stroke-miterlimit="10"/>
<path d="M224.527 73.9886V16.7542C224.527 8.56371 217.827 1.95215 209.528 1.95215H17.539C9.23952 1.95215 2.53992 8.56371 2.53992 16.7542V285.756C2.53992 293.947 9.23952 300.558 17.539 300.558H209.528C211.427 300.558 213.327 300.262 214.927 299.571" stroke="black" stroke-width="3.8985" stroke-miterlimit="10" stroke-linecap="round" stroke-linejoin="round"/>
<path d="M204.328 291.577H22.6387C15.2392 291.577 9.23956 285.657 9.23956 278.354V24.2535C9.23956 16.9512 15.2392 11.03 22.6387 11.03H204.328C211.728 11.03 217.727 16.9512 217.727 24.2535V278.354C217.727 285.657 211.728 291.577 204.328 291.577Z" fill="#205EFF"/>
<path d="M201.028 85.2375H28.1383C24.4386 85.2375 21.4388 82.277 21.4388 78.6258V39.3513C21.4388 35.7001 24.4386 32.7395 28.1383 32.7395H201.028C204.728 32.7395 207.728 35.7001 207.728 39.3513V78.6258C207.828 82.277 204.728 85.2375 201.028 85.2375Z" fill="#FCFCFC"/>
<path d="M113.534 54.8445C116.571 54.8445 119.034 52.4145 119.034 49.417C119.034 46.4195 116.571 43.9895 113.534 43.9895C110.497 43.9895 108.034 46.4195 108.034 49.417C108.034 52.4145 110.497 54.8445 113.534 54.8445Z" fill="#205EFF"/>
<path d="M98.1342 73.9885C98.1342 65.6006 105.034 58.7917 113.533 58.7917C122.033 58.7917 128.932 65.6006 128.932 73.9885H98.1342Z" fill="#205EFF"/>
<path d="M114.633 141.485C98.2343 141.485 84.9351 154.61 84.9351 170.793C84.9351 186.977 98.2343 200.101 114.633 200.101C131.032 200.101 144.331 186.977 144.331 170.793C144.231 154.61 131.032 141.485 114.633 141.485ZM114.633 192.996C112.233 192.996 110.334 191.121 110.334 188.753C110.334 186.384 112.333 184.51 114.633 184.51C117.033 184.51 118.933 186.384 118.933 188.753C118.933 191.022 117.033 192.996 114.633 192.996ZM120.133 160.037C119.233 166.352 118.433 173.063 116.533 179.181C116.033 180.661 113.233 180.661 112.733 179.181C111.334 174.543 110.433 169.806 109.634 165.069C109.034 161.616 107.034 155.991 108.934 152.636C110.634 149.577 115.533 149.281 118.333 150.86C121.833 152.833 120.533 156.879 120.133 160.037Z" fill="#FCFCFC"/>
<path d="M40.1378 108.723H184.929" stroke="white" stroke-width="3.8985" stroke-miterlimit="10"/>
<path d="M40.1378 122.736H184.929" stroke="white" stroke-width="3.8985" stroke-miterlimit="10"/>
<path d="M40.1378 213.324H184.929" stroke="white" stroke-width="3.8985" stroke-miterlimit="10"/>
<path d="M73.7358 226.646H151.331" stroke="white" stroke-width="3.8985" stroke-miterlimit="10"/>
<path d="M55.5367 313.781C55.5367 313.781 81.3351 212.732 161.63 187.964L194.229 180.266C194.229 180.266 199.428 157.57 197.528 155.103C195.628 152.735 191.729 147.801 184.629 148.886C177.529 149.972 159.031 150.268 154.231 127.966C149.531 105.664 166.93 52.6733 212.427 44.7789C257.825 36.8845 258.925 69.7448 258.925 69.7448L225.527 146.025L230.726 207.601L231.326 299.274L55.5367 313.781Z" fill="white"/>
<path d="M332.92 235.725C332.42 235.922 325.521 237.895 322.821 242.533C321.821 240.461 319.621 238.981 317.121 238.981H236.526C233.526 238.981 231.026 240.955 230.326 243.817L214.427 311.017C213.327 310.82 212.227 310.721 211.128 310.623L173.63 301.347C170.23 300.557 166.83 302.334 165.73 305.492C165.43 306.182 165.33 306.972 165.33 307.662C165.33 311.017 167.93 313.978 171.53 314.274L189.229 315.36C172.13 323.254 151.431 338.352 134.032 352.266C117.133 326.214 133.032 300.163 144.932 286.15C143.432 270.657 135.632 234.738 96.8344 235.725C110.234 218.85 126.833 204.344 147.531 194.674C218.227 272.039 299.122 208.785 300.822 207.403C313.322 215.396 323.921 225.067 332.92 235.725Z" fill="#FE7624"/>
<path d="M325.621 457.557V470.879H92.1346V451.932C101.234 452.426 110.833 450.354 119.533 446.505C130.532 441.571 140.032 433.874 148.231 425.091C156.631 416.013 161.23 403.382 166.53 392.428C174.53 375.949 185.129 364.206 202.028 359.174L200.928 363.713C200.028 367.66 203.028 371.41 207.128 371.41H288.223C286.423 385.324 279.623 460.715 325.621 457.557Z" fill="#FE7624"/>
<path d="M288.123 106.158C288.123 112.572 287.223 119.677 285.323 127.374C284.223 131.716 281.623 135.269 278.024 137.637C276.024 139.018 273.724 139.906 271.224 140.4C271.124 135.564 269.024 131.321 265.824 128.756C266.124 124.512 266.024 120.269 265.724 116.519C265.524 113.855 265.224 111.289 264.825 109.02C264.625 107.737 264.325 106.454 263.925 105.269C263.425 104.776 262.325 103.592 260.225 102.408C255.225 99.6448 244.926 96.6845 225.927 101.026C222.727 101.717 219.827 103.099 217.327 104.974C217.227 104.974 217.227 105.072 217.127 105.072C215.427 106.651 213.228 108.625 210.928 109.612C208.628 110.697 206.128 110.697 204.128 108.23C204.028 108.131 204.028 108.131 204.028 108.033C202.928 106.651 201.928 104.875 200.028 104.48C196.029 103.691 194.029 107.638 193.629 110.993C193.229 114.052 194.129 116.717 195.429 119.282C196.529 121.355 198.028 123.23 199.728 124.907C200.128 125.302 200.528 125.697 200.928 126.289C200.728 126.289 200.628 126.387 200.428 126.387C200.028 126.486 199.728 126.683 199.328 126.782C194.529 128.953 191.029 134.282 190.929 140.597C190.929 140.795 182.829 140.696 181.729 140.597C177.73 140.203 173.83 139.117 171.13 136.157C163.23 127.769 163.23 115.434 166.53 105.665C169.63 96.4873 173.53 87.4084 178.63 79.1192C189.729 61.1595 207.028 47.9365 228.827 46.7524C234.026 46.4563 239.326 46.8509 244.526 47.6404C247.026 48.0351 249.425 48.5286 251.825 49.2194C274.124 58.9887 288.223 80.6985 288.123 106.158Z" fill="#0F0F0F"/>
<path d="M275.224 310.623C272.624 317.333 266.324 321.083 261.225 319.109C256.125 317.135 254.125 310.129 256.725 303.518C259.325 296.808 265.624 293.058 270.724 295.032C275.824 297.005 277.824 304.011 275.224 310.623Z" fill="#205EFF"/>
<path d="M288.723 370.127C288.723 370.127 274.424 468.412 331.62 457.557C388.517 446.702 410.016 218.456 245.425 185.595" stroke="black" stroke-width="3.8985" stroke-miterlimit="10"/>
<path d="M154.931 275.493C154.931 275.493 108.834 313.88 133.632 352.266" stroke="black" stroke-width="3.8985" stroke-miterlimit="10"/>
<path d="M289.823 342.891C289.023 342.891 287.923 342.398 287.123 342.2C286.123 341.904 285.223 341.707 284.223 341.411C278.524 339.635 273.424 337.069 268.624 333.615C267.524 332.826 265.624 332.332 264.324 332.826C262.825 333.418 261.725 334.7 261.525 336.181C261.125 338.944 263.125 341.608 265.224 343.385C267.724 345.457 270.424 347.43 273.424 348.615C276.324 349.799 279.423 350.687 282.523 351.378C283.923 351.674 285.423 351.97 286.823 352.266" stroke="black" stroke-width="3.8985" stroke-miterlimit="10"/>
<path d="M307.522 316.248C308.122 319.307 308.522 322.465 308.222 325.524C308.022 328.089 307.022 331.148 304.122 331.839C303.622 332.036 303.022 332.037 302.422 332.037C291.423 331.444 282.323 327.596 271.924 320.195C261.525 312.794 257.825 329.865 267.324 332.925" stroke="black" stroke-width="3.8985" stroke-miterlimit="10"/>
<path d="M267.624 345.457C267.324 345.26 267.124 345.062 266.924 344.766C261.725 339.437 260.825 350.193 266.224 353.351C266.424 353.45 266.624 353.647 266.924 353.746C267.324 353.943 267.724 354.042 268.024 354.239C268.224 354.338 268.424 354.338 268.624 354.436C273.524 356.509 278.723 357.89 283.923 359.272C278.823 357.594 273.724 356.015 268.624 354.436C268.224 354.239 267.724 354.042 267.324 353.845C267.224 353.746 267.024 353.746 266.924 353.746C266.724 353.647 266.524 353.647 266.324 353.845C266.224 353.943 266.124 354.042 266.024 354.239C265.224 356.213 265.824 358.68 266.924 360.456C268.024 362.331 269.924 363.811 271.824 364.797C276.924 367.659 282.823 369.238 288.523 370.324C289.923 370.521 291.023 370.62 291.723 370.521" stroke="black" stroke-width="3.8985" stroke-miterlimit="10"/>
<path d="M338.12 382.56C338.12 382.56 320.621 353.055 318.621 327.398C317.421 311.511 312.722 308.156 309.322 307.959" stroke="black" stroke-width="3.8985" stroke-miterlimit="10"/>
<path d="M304.122 331.74L307.522 316.248L309.322 307.959L322.821 246.58C323.721 242.633 320.621 238.981 316.621 238.981H235.926C232.926 238.981 230.426 240.955 229.726 243.817L213.827 311.017L202.228 360.061L201.128 364.699C200.228 368.647 203.228 372.396 207.328 372.396H287.723H288.423" stroke="black" stroke-width="3.8985" stroke-miterlimit="10"/>
<path d="M204.128 106.355C204.128 106.355 208.428 88.4942 232.526 86.1259C256.625 83.7575 262.624 101.52 262.624 101.52L261.825 103.296C261.825 103.296 230.126 90.7641 212.627 108.625C212.627 108.724 206.328 111.487 204.128 106.355Z" fill="#FE7624"/>
<path d="M210.628 310.524L173.13 301.248C169.83 300.458 166.33 302.235 165.23 305.491C163.83 309.537 166.73 313.879 171.03 314.175L188.729 315.36" stroke="black" stroke-width="3.8985" stroke-miterlimit="10"/>
<path d="M300.322 207.403C300.322 207.403 218.427 272.829 147.031 194.674" stroke="black" stroke-width="3.8985" stroke-miterlimit="10"/>
<path d="M144.532 286.15C143.032 270.658 135.232 234.738 96.4344 235.725" stroke="black" stroke-width="3.8985" stroke-miterlimit="10"/>
<path d="M332.42 235.725C332.42 235.725 325.121 237.698 322.321 242.532" stroke="black" stroke-width="3.8985" stroke-miterlimit="10"/>
<path d="M35.3381 471.669H382.917" stroke="black" stroke-width="3.8985" stroke-miterlimit="10"/>
<path d="M265.824 128.756C269.124 131.519 271.224 135.959 271.224 140.893C271.224 149.182 265.324 155.991 258.125 155.991C257.325 155.991 256.425 155.892 255.725 155.695C264.124 149.281 265.824 128.756 265.824 128.756Z" fill="#FE7624"/>
<path d="M218.027 162.405C226.227 166.353 235.926 166.846 244.426 163.392C268.224 153.623 267.324 124.71 264.824 109.02C264.624 107.737 264.324 106.454 263.924 105.269C261.225 96.2895 254.025 88.9876 244.726 86.9153C226.527 82.8694 209.928 93.0331 203.028 106.75" stroke="black" stroke-width="3.8985" stroke-miterlimit="10"/>
<path d="M264.224 105.467C264.224 105.467 264.124 105.368 264.024 105.171C262.424 103.395 253.025 94.8101 226.027 100.928C222.827 101.618 219.927 103 217.427 104.874C217.327 104.874 217.327 104.973 217.227 104.973" stroke="black" stroke-width="3.8985" stroke-miterlimit="10"/>
<path d="M192.129 148.985H178.73C169.03 148.985 161.43 140.301 158.131 132.111C153.431 120.565 156.431 108.822 160.631 97.5729C164.13 88.1983 168.63 79.1197 174.53 70.9293C187.729 52.6736 207.728 42.3122 230.626 44.2858C232.626 44.4831 234.726 44.6803 236.726 45.075C267.524 50.009 288.323 75.3701 288.123 106.158C288.123 112.572 287.223 119.677 285.323 127.374C283.623 134.183 278.024 139.216 271.224 140.4" stroke="black" stroke-width="3.8985" stroke-miterlimit="10"/>
<path d="M200.928 126.289C200.528 125.697 200.128 125.302 199.728 124.907C198.028 123.23 196.529 121.453 195.429 119.283C194.129 116.717 193.229 114.053 193.629 110.994C194.129 107.737 196.029 103.79 200.028 104.481C201.928 104.875 202.928 106.652 204.028 108.033C208.228 113.362 213.927 108.033 217.427 104.776" stroke="black" stroke-width="3.8985" stroke-miterlimit="10"/>
<path d="M265.824 128.756C269.124 131.519 271.224 135.959 271.224 140.893C271.224 149.182 265.324 155.991 258.125 155.991C257.325 155.991 256.425 155.892 255.725 155.695" stroke="black" stroke-width="3.8985" stroke-miterlimit="10"/>
<path d="M237.726 138.92C240.626 140.893 247.725 142.472 246.325 136.65C244.626 129.841 242.326 115.138 256.425 114.052C256.425 114.052 262.624 114.348 265.724 116.421" stroke="black" stroke-width="3.8985" stroke-miterlimit="10"/>
<path d="M243.126 150.366C243.126 150.366 236.026 154.115 232.526 146.715" stroke="black" stroke-width="3.8985" stroke-miterlimit="10"/>
<path d="M228.626 124.117C228.326 126.485 229.327 128.458 230.726 128.656C232.126 128.853 233.526 127.077 233.826 124.709C234.126 122.341 233.126 120.368 231.726 120.17C230.326 119.973 228.926 121.749 228.626 124.117Z" fill="black"/>
<path d="M251.825 125.499C251.525 127.867 252.525 129.84 253.925 130.038C255.325 130.235 256.725 128.459 257.025 126.091C257.325 123.723 256.325 121.749 254.925 121.552C253.425 121.355 252.125 123.131 251.825 125.499Z" fill="black"/>
<path d="M237.726 115.63C237.726 115.63 233.326 109.022 223.527 115.334" stroke="black" stroke-width="3.8985" stroke-miterlimit="10"/>
<path d="M245.425 162.899V199.608" stroke="black" stroke-width="3.8985" stroke-miterlimit="10"/>
<path d="M98.3343 382.56C98.3343 382.56 113.633 368.252 133.532 352.266C150.831 338.352 171.63 323.254 188.729 315.359C190.929 314.372 193.029 313.484 195.128 312.695C200.428 310.721 205.628 310.129 210.528 310.523C211.628 310.622 212.728 310.721 213.827 310.918" stroke="black" stroke-width="3.8985" stroke-miterlimit="10"/>
<path d="M202.328 360.061C185.529 365.094 174.93 376.837 166.83 393.317C161.531 404.27 156.931 416.901 148.531 425.979C140.432 434.762 130.932 442.459 119.833 447.393C99.8342 456.373 75.2357 455.682 62.2365 436.144C53.4371 422.921 50.0373 406.441 48.2374 390.948C45.2376 364.107 54.737 288.321 96.3344 235.725C109.734 218.85 126.333 204.344 147.031 194.674C161.53 187.865 177.83 183.424 196.428 182.142L201.628 155.695" stroke="black" stroke-width="3.8985" stroke-miterlimit="10"/>
<path d="M325.921 458.446V471.669" stroke="black" stroke-width="3.8985" stroke-miterlimit="10"/>
<path d="M92.5346 453.709V471.669" stroke="black" stroke-width="3.8985" stroke-miterlimit="10"/>
<path d="M217.227 140.893C217.227 145.136 215.727 148.985 213.227 151.748C211.728 152.439 210.128 152.735 208.528 152.735C201.228 152.735 195.429 146.025 195.429 137.637C195.429 133.394 196.928 129.545 199.428 126.782C200.928 126.091 202.528 125.795 204.128 125.795C211.327 125.795 217.227 132.604 217.227 140.893Z" fill="#FE7624"/>
<path d="M204.128 155.991C211.362 155.991 217.227 149.232 217.227 140.893C217.227 132.555 211.362 125.795 204.128 125.795C196.893 125.795 191.029 132.555 191.029 140.893C191.029 149.232 196.893 155.991 204.128 155.991Z" stroke="black" stroke-width="3.8985" stroke-miterlimit="10"/>
<path d="M359.919 9.05615C337.32 2.44457 313.621 15.0758 306.922 37.3776C300.222 59.6793 313.021 83.0665 335.62 89.6781C358.219 96.2897 381.917 83.6584 388.617 61.3567C395.317 39.1536 382.517 15.7664 359.919 9.05615ZM338.52 79.9089C335.22 78.922 333.32 75.468 334.32 72.3103C335.32 69.0538 338.82 67.1792 342.02 68.166C345.32 69.1528 347.22 72.5076 346.22 75.7641C345.32 79.0205 341.92 80.8957 338.52 79.9089ZM360.019 36.9829C359.919 37.1803 359.819 37.3778 359.719 37.5751C356.219 46.0616 351.919 54.1534 346.72 61.7518C345.52 63.6267 341.62 62.4425 341.52 60.2716C341.52 53.2653 342.22 46.4563 343.12 39.5487C343.72 34.516 343.22 25.9307 347.319 22.0821C350.919 18.6283 357.819 20.1084 361.119 23.4636C364.918 27.1147 361.819 32.9371 360.019 36.9829Z" fill="#DBD6F2"/>
<path d="M389.417 250.231C381.117 258.52 381.317 271.842 389.717 280.032C398.116 288.223 411.616 288.026 419.915 279.736C428.215 271.447 428.015 258.125 419.615 249.934C411.216 241.842 397.716 241.941 389.417 250.231ZM416.115 276.184C414.915 277.368 412.916 277.368 411.716 276.184C410.516 275 410.516 273.026 411.716 271.842C412.916 270.658 414.915 270.559 416.115 271.842C417.315 272.927 417.415 274.901 416.115 276.184ZM401.816 256.743C404.616 260.395 407.716 264.145 409.916 268.19C410.416 269.177 409.016 270.559 408.016 270.065C404.916 268.486 402.016 266.513 399.116 264.54C397.016 263.059 393.017 261.283 392.317 258.619C391.617 256.25 393.917 253.586 396.117 252.895C398.916 252.204 400.416 254.967 401.816 256.743Z" fill="#205EFF"/>
<path d="M473.012 81.685C478.912 74.4814 477.812 63.9226 470.512 58.0018C463.213 52.1796 452.513 53.2651 446.514 60.4688C440.614 67.6724 441.714 78.2312 449.014 84.152C456.313 89.9742 467.112 88.8887 473.012 81.685ZM449.814 63.0346C450.713 61.9491 452.213 61.8505 453.313 62.6399C454.413 63.5281 454.513 65.0083 453.713 66.0937C452.813 67.1792 451.313 67.2778 450.214 66.4884C449.114 65.6989 448.914 64.12 449.814 63.0346ZM462.613 77.442C460.113 74.7776 457.313 72.0145 455.213 68.9554C454.713 68.2646 455.713 66.9816 456.613 67.2776C459.213 68.3631 461.713 69.6462 464.113 71.0278C465.912 72.0146 469.212 73.1985 470.012 75.2708C470.712 77.1457 469.112 79.4153 467.412 80.1061C465.313 80.7968 463.913 78.7248 462.613 77.442Z" fill="#205EFF"/>
<path d="M303.822 192.502C309.822 202.567 309.522 209.771 308.022 221.415C307.422 225.855 312.222 228.816 316.121 226.645C350.819 207.007 383.117 222.5 424.515 212.928C439.714 209.376 458.613 202.172 471.612 190.43C475.712 184.213 478.212 177.108 478.212 169.115C478.212 137.241 434.114 111.387 379.618 111.387C344.72 111.387 314.121 122.044 296.622 138.03C296.622 138.03 296.622 138.031 296.522 138.129C292.123 144.741 289.623 151.846 289.623 159.345C289.623 170.595 298.222 183.029 303.822 192.502Z" fill="#DBD6F2"/>
<path d="M289.723 159.149C289.723 159.445 289.723 159.643 289.723 159.939C289.923 171.09 295.623 181.451 302.322 190.431C306.822 196.45 312.122 203.16 310.922 210.462C310.322 213.719 308.522 216.679 308.022 219.936C307.522 223.192 309.322 227.238 312.621 227.436C314.721 227.534 316.521 226.054 318.221 224.771C328.121 217.173 341.02 214.311 353.619 213.817C366.218 213.324 378.718 215.002 391.217 215.298C409.316 215.791 427.715 213.62 444.414 206.713C459.413 200.595 473.112 190.529 482.111 177.109C491.011 163.886 485.711 144.742 476.312 133.295C467.412 122.539 454.613 115.631 441.414 110.796C406.016 97.7702 365.618 98.0663 330.721 112.375C320.321 116.618 310.322 122.144 302.522 130.137C295.123 138.032 289.823 148.393 289.723 159.149Z" stroke="black" stroke-width="3.8985" stroke-miterlimit="10"/>
<path d="M435.014 171.879C442.525 171.879 448.613 165.87 448.613 158.458C448.613 151.047 442.525 145.038 435.014 145.038C427.504 145.038 421.415 151.047 421.415 158.458C421.415 165.87 427.504 171.879 435.014 171.879Z" fill="white"/>
<path d="M391.017 171.879C398.527 171.879 404.616 165.87 404.616 158.458C404.616 151.047 398.527 145.038 391.017 145.038C383.506 145.038 377.418 151.047 377.418 158.458C377.418 165.87 383.506 171.879 391.017 171.879Z" fill="white"/>
<path d="M346.22 171.879C353.73 171.879 359.819 165.87 359.819 158.458C359.819 151.047 353.73 145.038 346.22 145.038C338.709 145.038 332.62 151.047 332.62 158.458C332.62 165.87 338.709 171.879 346.22 171.879Z" fill="white"/>
</svg>
