<svg width="477" height="214" viewBox="0 0 477 214" fill="none" xmlns="http://www.w3.org/2000/svg">
<path d="M476.059 115.059L376.765 213.048H27.8853L127.279 115.059L27.8853 16.9709H376.765L476.059 115.059Z" fill="#FE7624"/>
<path d="M448.86 110.618L349.466 208.607H0.68689L100.081 110.618L0.68689 12.5303H349.466L448.86 110.618Z" fill="#0F0F0F"/>
<path d="M473.059 103.02L371.565 203.18H17.6859L119.28 103.02L17.6859 2.76074H371.565L473.059 103.02Z" stroke="#205EFF" stroke-width="3.8224" stroke-miterlimit="10"/>
<path d="M183.461 103.642C183.384 103.023 183.384 102.404 183.384 101.785V101.708C183.384 101.398 183.384 101.088 183.384 100.701C183.384 100.392 183.307 100.16 183.229 100.082L183.074 99.4633C182.92 98.9216 182.765 98.3798 182.61 97.8381C182.533 97.6834 182.455 97.3738 182.378 97.1416C182.068 96.6773 181.836 96.213 181.604 95.7487L181.449 95.4391C181.372 95.2843 181.295 95.2069 181.217 95.0522C180.985 94.6652 180.83 94.2783 180.598 93.8913C180.443 93.6592 180.289 93.427 180.134 93.2722C179.979 93.0401 179.824 92.8079 179.747 92.5757C179.437 91.8793 178.973 91.4149 178.586 90.9506C178.354 90.7958 178.199 90.5637 178.044 90.4089C177.967 90.3315 177.889 90.1767 177.735 90.0993C177.58 89.9446 177.503 89.8672 177.348 89.7124C176.961 89.4028 176.574 89.0933 176.187 88.7837C175.877 88.5516 175.49 88.242 175.104 88.0099C174.794 87.8551 174.562 87.7003 174.252 87.6229C174.097 87.5455 173.943 87.4681 173.865 87.3907C173.788 87.3134 173.711 87.3134 173.556 87.236C173.478 87.1586 173.246 87.0038 173.014 86.9264C172.627 86.6943 172.24 86.5395 171.776 86.3073C171.698 86.2299 171.544 86.1525 171.389 86.1525C171.312 86.0752 171.312 86.0752 171.234 86.0752C171.002 85.9204 170.615 85.6882 170.151 85.6108C170.073 85.6108 169.996 85.5334 169.919 85.5334C169.532 85.3787 169.067 85.1465 168.371 85.0691C167.906 84.9143 167.442 84.7596 167.055 84.6822C166.823 84.6048 166.668 84.5274 166.436 84.5274C166.359 84.5274 166.204 84.5274 166.127 84.6048C166.049 84.6048 165.894 84.6048 165.817 84.6048C165.585 84.6822 165.43 84.6822 165.275 84.6822C165.275 84.6822 165.275 84.6822 165.198 84.6822C164.269 84.2952 163.418 84.1405 162.567 83.9857C162.489 83.9857 162.489 83.9857 162.412 83.9857H162.335C162.102 83.8309 161.87 83.7535 161.561 83.5987C161.483 83.5213 161.406 83.5213 161.328 83.444C161.096 83.2118 160.864 82.9796 160.709 82.7475C160.709 82.6701 160.709 82.6701 160.709 82.6701C160.632 82.5153 160.477 82.1284 160.168 81.8188L160.09 81.7414C160.09 81.664 160.013 81.5093 160.013 81.4319C160.013 81.2771 160.013 81.1223 160.09 80.9675C160.09 80.8902 160.09 80.8128 160.09 80.658C160.09 80.5806 160.09 80.2711 160.168 80.1163C160.4 80.0389 160.632 79.8841 160.864 79.7293C160.942 79.7293 160.942 79.6519 161.019 79.6519C161.174 79.5746 161.251 79.4972 161.406 79.4198C161.561 79.4198 161.638 79.3424 161.715 79.3424C161.948 79.265 162.257 79.1876 162.567 79.1102C163.108 79.0328 163.65 79.1102 164.114 79.4198C164.734 79.4198 165.275 79.4972 165.817 79.7293C166.591 80.0389 166.978 80.7354 167.21 81.4319C167.365 81.7414 167.442 82.051 167.597 82.3605C167.597 82.3605 167.597 82.4379 167.674 82.4379C167.752 82.5927 167.829 82.6701 167.829 82.8249C167.906 82.8249 167.906 82.8249 167.906 82.8249C167.906 82.9022 167.906 82.9796 167.984 82.9796C167.984 83.057 167.984 83.1344 168.061 83.1344C168.139 83.2118 168.139 83.2892 168.139 83.3666C168.526 83.9083 169.222 84.2952 169.996 84.45C170.925 84.5274 171.853 84.6048 172.782 84.6048C172.937 84.6048 173.014 84.6048 173.169 84.6048C173.633 84.6048 174.02 84.6048 174.407 84.6048C174.794 84.6048 175.181 84.6048 175.568 84.6048H175.645C175.8 84.6048 176.11 84.6048 176.342 84.6048C176.574 84.6822 176.806 84.6822 177.116 84.6822H177.193C177.735 84.6822 178.276 84.7596 178.896 84.7596C178.973 84.7596 179.05 84.7596 179.205 84.7596C179.902 84.7596 180.598 84.45 181.14 83.9083C181.682 83.2892 180.753 82.5927 180.675 81.8962C180.598 81.8188 180.598 81.7414 180.598 81.664C180.521 81.3545 180.521 81.1223 180.521 80.8902C180.366 79.6519 180.289 78.4911 179.824 77.3303C179.747 77.2529 179.669 77.0981 179.669 77.0208C179.437 76.479 179.205 75.8599 178.896 75.3182C178.586 74.6991 178.122 74.08 177.735 73.4609C177.193 72.8418 176.806 72.3001 176.342 71.8358C176.11 71.5262 175.8 71.2167 175.49 70.9071C175.104 70.5976 174.794 70.288 174.562 69.9784C173.943 69.282 173.169 68.6629 172.085 68.1985C170.847 67.502 169.454 67.1151 168.216 66.8055C167.984 66.7282 167.829 66.7282 167.674 66.6508C166.978 66.4186 166.204 66.2638 165.275 66.1864C165.12 66.109 164.888 66.109 164.734 66.109C163.882 65.9543 163.031 65.7995 162.102 65.7995C162.025 65.7995 161.87 65.7995 161.793 65.8769C161.251 65.6447 160.787 65.5673 160.477 65.5673C160.4 65.5673 160.322 65.5673 160.322 65.5673H160.168H160.013C159.935 65.5673 159.858 65.5673 159.781 65.5673H159.703C159.549 65.5673 159.316 65.6447 159.084 65.6447C158.001 65.7221 157.072 66.0317 156.298 66.3412C156.143 66.3412 155.989 66.4186 155.834 66.496C155.524 66.5734 155.215 66.7282 155.06 66.8829C154.983 66.8829 154.905 66.8829 154.828 66.9603C154.673 67.0377 154.441 67.1151 154.209 67.2699C153.822 67.502 153.435 67.6568 153.048 67.8116C151.81 68.2759 150.726 68.9724 149.72 69.8237C149.256 70.2106 148.714 70.6749 148.25 71.0619C147.786 71.4488 147.089 72.0679 146.625 72.9966C146.547 73.2287 146.393 73.5383 146.238 73.7705C146.083 74.0026 145.851 74.3122 145.773 74.5443C145.387 75.1634 145.232 75.7052 145.077 76.1695C144.922 76.6338 144.845 77.0981 144.767 77.5625C144.767 77.6399 144.69 77.7946 144.69 77.872C144.69 78.0268 144.613 78.1042 144.613 78.259C144.535 78.7233 144.38 79.1876 144.38 79.7293C144.458 80.4258 144.458 81.0449 144.535 81.664C144.535 81.9736 144.613 82.2058 144.613 82.4379C144.613 82.5153 144.613 82.5927 144.613 82.7475C144.613 82.9022 144.69 83.057 144.69 83.2118C144.69 83.9857 144.922 84.6822 145.154 85.3013C145.309 85.5334 145.464 85.6882 145.541 85.843C145.541 85.9204 145.619 85.9204 145.619 85.9978L145.696 86.0752C145.851 86.9264 146.238 87.6229 146.934 88.1646C147.476 88.7063 148.018 89.2481 148.559 89.9446C148.869 90.4089 149.179 90.7184 149.488 91.028C149.565 91.1054 149.643 91.1828 149.72 91.2602C149.952 91.4923 150.262 91.6471 150.417 91.8019C150.494 91.8019 150.572 91.8793 150.572 91.8793C150.649 91.9566 150.726 91.9566 150.804 92.034C150.881 92.1114 150.958 92.1888 151.036 92.2662C151.191 92.3436 151.268 92.421 151.423 92.4984C151.732 92.7305 152.119 93.0401 152.584 93.2722C153.203 93.5818 153.899 93.814 154.518 94.0461C154.983 94.2009 155.447 94.3557 155.834 94.4331C156.066 94.5104 156.298 94.5878 156.453 94.6652C156.84 94.7426 157.304 94.8974 157.691 95.0522C157.769 95.0522 157.846 95.1295 157.923 95.1295C158.001 95.2069 158.156 95.2843 158.388 95.3617C158.62 95.4391 158.775 95.4391 158.929 95.5165C159.007 95.5165 159.084 95.5165 159.162 95.5939C159.781 95.9808 160.4 96.213 160.942 96.2904C161.096 96.3678 161.328 96.4451 161.483 96.4451C161.793 96.5999 162.102 96.6773 162.335 96.7547C162.412 96.7547 162.567 96.8321 162.644 96.8321C162.954 97.0642 163.263 97.219 163.341 97.219C163.495 97.2964 163.65 97.2964 163.727 97.3738C163.882 97.4512 164.192 97.5286 164.192 97.606C164.579 97.9155 164.966 98.0703 165.198 98.1477C165.43 98.3798 165.662 98.6894 165.972 98.9216C166.049 98.999 166.127 99.0763 166.127 99.1537C166.204 99.1537 166.281 99.2311 166.281 99.3085C166.359 99.3859 166.436 99.5407 166.436 99.6954C166.823 100.469 167.133 101.243 167.133 101.94C167.055 102.946 166.9 103.72 166.668 104.493C166.668 104.493 166.668 104.493 166.591 104.571C166.359 104.726 165.972 104.958 165.662 105.345C165.585 105.422 165.43 105.422 165.43 105.5L165.198 105.577C164.656 105.809 164.114 106.041 163.65 106.196C163.495 106.273 163.341 106.273 163.341 106.273C163.031 106.196 162.799 106.119 162.567 106.041C162.335 105.964 162.102 105.886 161.948 105.809C161.715 105.732 161.483 105.654 161.251 105.577C160.864 105.422 160.555 105.267 160.168 105.19C160.09 105.113 159.935 104.958 159.858 104.88C159.781 104.803 159.703 104.726 159.626 104.648C159.471 104.416 159.239 104.107 158.852 103.874C158.542 103.565 158.388 103.178 158.156 102.481C158.078 102.094 158.001 101.785 157.923 101.475C157.846 101.011 157.691 100.469 157.536 100.005C157.304 99.0763 156.453 98.4572 155.292 98.4572C155.215 98.4572 155.215 98.4572 155.137 98.4572C154.905 98.4572 154.673 98.4572 154.364 98.4572C154.209 98.4572 154.054 98.4572 153.899 98.4572C153.744 98.4572 153.59 98.4572 153.512 98.4572C153.357 98.4572 153.203 98.4572 153.125 98.4572C152.584 98.4572 152.197 98.4572 151.732 98.4572C151.191 98.4572 150.649 98.3798 150.185 98.3798C149.565 98.3025 148.946 98.3025 148.327 98.2251C148.095 98.2251 147.786 98.2251 147.476 98.2251C147.244 98.2251 147.012 98.2251 146.78 98.2251C146.625 98.2251 146.47 98.2251 146.238 98.2251C146.16 98.2251 146.006 98.2251 145.928 98.3025C145.464 98.1477 145.077 98.1477 144.613 98.1477C144.226 98.1477 143.839 98.1477 143.452 98.2251C142.833 98.3798 142.291 98.5346 141.904 98.8442C141.904 99.3859 141.827 99.9276 141.827 100.469C141.749 102.327 141.749 104.261 142.136 106.119C142.214 106.738 142.368 107.357 142.523 107.899C142.523 107.976 142.523 107.976 142.601 108.053C142.678 108.208 142.755 108.286 142.833 108.44C142.91 108.518 142.988 108.595 142.988 108.672C143.065 108.75 143.065 108.75 143.065 108.827C143.297 109.756 143.684 110.452 144.303 111.071C144.38 111.226 144.458 111.381 144.613 111.536C144.69 111.613 144.767 111.768 144.845 111.845C144.922 112 145 112.078 145.077 112.155V112.232C145.387 112.542 145.619 112.929 145.928 113.238C146.238 113.548 146.47 113.78 146.78 114.012C146.857 114.09 147.012 114.244 147.089 114.322C147.166 114.322 147.244 114.399 147.321 114.477C147.631 114.786 148.018 115.173 148.714 115.483C148.792 115.56 148.869 115.637 148.946 115.715C149.411 116.102 149.952 116.643 150.726 116.953C150.881 117.03 151.113 117.108 151.191 117.185C151.965 117.882 152.816 118.269 153.59 118.578C153.744 118.733 153.977 118.81 154.131 118.888C154.828 119.197 155.524 119.429 156.143 119.662C156.453 119.739 156.685 119.816 156.917 119.894C157.923 120.203 158.929 120.281 159.858 120.281C160.09 120.358 160.4 120.358 160.709 120.358C161.019 120.358 161.483 120.435 161.87 120.513C162.335 120.668 162.644 120.668 163.031 120.668C163.341 120.668 163.65 120.668 163.96 120.59H164.037C164.114 120.59 164.114 120.59 164.192 120.59C164.347 120.59 164.501 120.59 164.656 120.59C165.043 120.59 165.43 120.59 165.817 120.513C166.204 120.513 166.823 120.435 167.365 120.126C167.597 120.048 167.906 119.971 168.293 119.894C168.293 119.894 168.371 119.894 168.448 119.894C168.912 119.816 169.454 119.739 169.996 119.584C170.538 119.352 170.925 119.197 171.389 118.965C171.544 118.888 171.698 118.81 171.853 118.733C172.085 118.656 172.24 118.578 172.472 118.501C172.937 118.346 173.478 118.114 174.02 117.804C174.097 117.727 174.252 117.649 174.407 117.572C175.026 117.263 175.8 116.876 176.497 116.256C176.651 116.102 176.961 115.87 177.193 115.715C177.58 115.483 177.967 115.173 178.276 114.863C179.128 114.012 179.824 113.238 180.443 112.542C180.908 111.923 181.217 111.226 181.449 110.607C181.449 110.53 181.527 110.452 181.527 110.375C181.604 110.143 181.682 109.988 181.759 109.833C181.914 109.446 182.068 109.137 182.223 108.905C182.765 108.131 183.074 107.279 183.229 106.428C183.229 106.196 183.229 105.964 183.307 105.654C183.384 105.035 183.461 104.416 183.461 103.642ZM230.652 77.4077C230.652 77.0981 230.652 76.7886 230.652 76.479C230.652 76.0147 230.652 75.6278 230.652 75.1634C230.652 74.7765 230.652 74.3896 230.652 74.0026C230.652 73.8478 230.652 73.6931 230.652 73.5383C230.574 73.2287 230.497 72.9966 230.574 72.7644C230.574 72.1453 230.652 71.5262 230.652 70.9071C230.652 70.3654 230.652 69.8237 230.652 69.282C230.652 68.7402 230.729 68.1985 230.729 67.6568C230.729 67.5794 230.652 67.4246 230.574 67.3473C230.11 67.1151 229.723 66.8055 229.104 66.9603C228.717 67.0377 228.253 67.0377 227.788 67.0377C227.401 66.9603 226.937 66.9603 226.55 66.9603C225.854 66.8829 225.235 66.9603 224.538 66.8829C224.306 66.8829 223.996 66.8829 223.764 66.8829C223.3 66.8829 222.836 66.8829 222.294 66.8829C222.139 66.8829 221.907 66.8829 221.675 66.8829C221.133 66.9603 220.591 67.0377 220.05 67.0377C218.966 66.9603 217.883 66.8055 216.722 67.0377C216.49 67.0377 216.258 67.0377 216.025 67.1151C215.793 67.1151 215.639 67.1151 215.406 67.1151C215.329 67.1151 215.252 67.1925 215.097 67.1925C214.632 67.1925 214.091 67.1151 213.626 67.1151C213.007 67.1151 212.388 67.1925 211.769 67.1925C210.918 67.1925 210.067 67.1151 209.215 67.1151C208.906 67.1151 208.519 67.0377 208.209 67.0377C207.435 67.0377 206.662 67.1151 205.888 66.8829C205.578 66.8055 205.191 66.8829 204.804 66.8829C203.798 66.9603 202.715 66.8829 201.709 66.8055C201.322 66.7282 200.857 66.6508 200.47 66.6508C199.774 66.6508 199.077 66.7282 198.381 66.7282C198.071 66.8055 197.762 66.8055 197.375 66.8055C196.911 66.7282 196.446 66.6508 195.905 66.6508C195.672 66.6508 195.363 66.6508 195.053 66.6508C194.744 66.6508 194.434 66.5734 194.125 66.6508C193.66 66.6508 193.196 66.8055 192.809 66.7282C192.422 66.6508 191.958 66.6508 191.571 66.6508C190.874 66.7282 190.178 66.8829 189.481 66.7282C189.327 66.7282 189.094 66.7282 188.94 66.6508C188.398 66.5734 188.088 66.9603 187.701 67.1925C187.624 67.2699 187.624 67.3473 187.624 67.4246C187.624 67.889 187.624 68.2759 187.624 68.7402C187.624 69.2046 187.624 69.6689 187.624 70.1332C187.624 70.5976 187.701 71.1393 187.701 71.6036C187.701 72.0679 187.779 72.4549 187.701 72.9192C187.701 73.3061 187.547 73.6931 187.701 74.08C187.779 74.1574 187.701 74.2348 187.701 74.3122C187.547 75.0087 187.624 75.6278 187.701 76.3243C187.701 76.5564 187.624 76.866 187.624 77.0981C187.624 77.4851 187.701 77.872 187.624 78.259C187.624 78.7233 187.469 79.1876 187.856 79.5746V79.6519C188.011 80.0389 188.011 80.3484 188.321 80.658C188.475 80.7354 188.475 80.8902 188.475 81.0449C188.475 81.3545 188.707 81.3545 188.94 81.3545C189.404 81.2771 189.946 81.2771 190.41 81.2771C191.184 81.2771 191.88 81.3545 192.577 81.3545C193.506 81.3545 194.434 81.3545 195.363 81.3545C195.595 81.3545 195.827 81.3545 196.059 81.3545C196.446 81.3545 196.756 81.2771 197.143 81.2771C197.839 81.3545 198.458 81.3545 199.155 81.3545C199.697 81.4319 200.238 81.4319 200.857 81.3545C200.935 81.3545 201.09 81.4319 201.09 81.5867C201.012 82.051 201.012 82.5927 201.012 83.057C201.09 83.7535 201.09 84.3726 201.167 85.0691C201.167 85.6108 201.09 86.1525 201.09 86.6943C201.09 86.849 201.09 87.0812 201.09 87.3134C201.09 87.7003 201.09 88.1646 201.167 88.5516C201.167 89.0933 201.167 89.635 201.167 90.1767C201.167 90.3315 201.167 90.4863 201.167 90.641C201.167 91.028 201.167 91.4149 201.167 91.7245C201.167 91.9566 201.244 92.1888 201.244 92.421C201.167 93.1949 201.167 93.9687 201.09 94.6652C201.09 94.9748 201.244 95.2069 201.244 95.4391C201.244 95.9808 201.167 96.5225 201.09 97.0642C201.09 97.7607 201.167 98.3798 201.167 99.0763C201.09 99.9276 201.012 100.701 201.244 101.475C201.244 101.553 201.244 101.63 201.244 101.708C201.244 102.094 201.167 102.559 201.167 103.023C201.167 103.101 201.167 103.178 201.167 103.333C201.167 103.797 201.244 104.339 201.244 104.88C201.244 105.267 201.167 105.732 201.167 106.196C201.167 106.583 201.322 107.047 201.244 107.434C201.244 107.821 201.167 108.208 201.244 108.595C201.244 109.137 201.09 109.678 201.322 110.22C201.322 110.298 201.322 110.375 201.322 110.452C201.012 111.226 201.244 112 201.167 112.697C201.167 113.238 201.244 113.703 201.244 114.244C201.244 114.477 201.167 114.631 201.244 114.863C201.322 115.405 201.322 115.947 201.244 116.489C201.167 116.953 201.322 117.34 201.477 117.804C201.786 118.269 202.096 118.578 202.637 118.578C203.721 118.578 204.804 118.656 205.888 118.656C207.126 118.656 208.364 118.656 209.602 118.656C210.299 118.656 210.995 118.578 211.692 118.578C212.311 118.578 212.853 118.578 213.394 118.578C213.472 118.656 213.472 118.656 213.472 118.656C214.323 118.656 215.252 118.578 216.18 118.578C216.567 118.501 216.954 118.269 216.954 117.882C217.031 117.108 217.186 116.334 217.186 115.56C217.186 114.709 217.109 113.857 217.109 113.006C217.031 111.458 217.031 109.911 217.031 108.363C216.954 107.666 216.877 106.97 216.877 106.273C216.877 105.577 216.877 104.88 216.877 104.107C216.877 102.868 216.877 101.63 216.722 100.315C216.645 99.2311 216.799 98.2251 216.722 97.1416C216.645 96.213 216.645 95.2843 216.645 94.3557C216.645 93.5818 216.567 92.7305 216.567 91.9566C216.567 91.1828 216.567 90.4089 216.567 89.635C216.567 88.7063 216.49 87.8551 216.412 87.0038C216.412 85.9978 216.412 84.9143 216.412 83.9083C216.335 83.2118 216.335 82.5927 216.258 81.8962C216.258 81.664 216.335 81.5867 216.567 81.5867C216.877 81.5867 217.186 81.664 217.496 81.664C218.966 81.5867 220.437 81.5867 221.83 81.5867C222.062 81.5867 222.294 81.664 222.526 81.664C223.377 81.5867 224.151 81.5867 224.925 81.5867C225.776 81.5867 226.55 81.5867 227.401 81.5867C228.021 81.5867 228.64 81.5093 229.259 81.5093C229.568 81.5093 229.801 81.664 229.801 81.1997L229.878 81.1223C230.033 80.7354 230.187 80.4258 230.42 80.0389C230.497 79.8841 230.574 79.7293 230.652 79.5746C230.652 79.4972 230.729 79.4198 230.729 79.3424C230.729 78.7233 230.729 78.1042 230.652 77.4077ZM273.938 68.895C273.706 68.5081 273.551 68.1211 273.086 67.9664C272.467 67.6568 271.926 67.4246 271.229 67.6568C271.152 67.6568 271.152 67.6568 271.074 67.6568C270.533 67.6568 270.068 67.6568 269.527 67.6568C269.14 67.6568 268.753 67.5794 268.366 67.5794C267.824 67.5794 267.282 67.5794 266.741 67.5794C266.044 67.6568 265.27 67.5794 264.574 67.5794C264.342 67.5794 264.187 67.5794 263.955 67.5794C263.722 67.5794 263.568 67.5794 263.336 67.5794C262.407 67.5794 261.478 67.502 260.55 67.502C260.085 67.502 259.621 67.4246 259.157 67.4246C258.228 67.4246 257.377 67.502 256.525 67.502C255.751 67.502 254.978 67.502 254.281 67.4246C253.585 67.3473 252.966 67.4246 252.269 67.4246C252.192 67.4246 252.114 67.4246 252.037 67.4246C251.573 67.3473 251.108 67.3473 250.644 67.3473C250.102 67.3473 249.483 67.3473 248.941 67.3473C248.477 67.3473 247.935 67.3473 247.471 67.2699C246.852 67.2699 246.233 67.3473 245.691 67.2699C245.459 67.2699 245.304 67.1925 245.149 67.1925C244.298 67.1925 243.447 67.2699 242.596 67.2699C242.596 67.2699 242.518 67.2699 242.518 67.1925C242.363 67.1925 242.286 67.1151 242.131 67.1151C241.744 67.1151 241.28 67.1925 240.893 67.1925C240.429 67.2699 239.887 67.3473 239.345 67.2699C238.881 67.1151 238.417 67.1925 237.952 67.2699C237.875 67.2699 237.72 67.3473 237.565 67.3473C237.256 67.3473 236.946 67.2699 236.637 67.1925C235.398 67.1151 234.779 68.0437 234.857 69.2046C234.934 69.5915 234.857 69.9011 234.857 70.288C234.857 70.5202 234.779 70.6749 234.779 70.8297C234.779 71.681 234.857 72.4549 234.857 73.2287C234.857 73.3061 234.857 73.3835 234.857 73.4609C234.857 73.7705 234.934 74.0026 234.934 74.2348C234.857 74.7765 234.857 75.3182 234.779 75.8599C234.779 76.1695 234.779 76.4017 234.857 76.7112C234.934 77.0981 235.012 77.4851 234.857 77.872C234.779 77.9494 234.779 78.1042 234.779 78.259C234.857 78.4911 234.857 78.7233 234.857 78.8781C234.857 79.5746 234.857 80.1937 234.857 80.8902C234.857 80.9675 234.857 80.9675 234.857 81.0449C234.779 81.5867 234.779 82.2058 234.779 82.7475C234.857 83.2892 234.857 83.8309 234.857 84.3726C234.857 85.0691 234.779 85.7656 234.779 86.4621C234.779 87.0038 234.857 87.5455 234.857 88.1646C234.857 88.629 234.702 89.1707 234.702 89.635C234.779 90.0993 234.857 90.4863 234.779 90.9506C234.702 91.3375 234.702 91.7245 234.702 92.1114C234.702 92.8853 234.702 93.6592 234.702 94.4331C234.779 94.8974 234.857 95.3617 234.857 95.9034C234.857 96.2904 234.779 96.7547 234.779 97.1416C234.779 97.9929 234.702 98.8442 234.702 99.6954C234.702 100.16 234.779 100.624 234.779 101.088C234.779 101.321 234.702 101.553 234.702 101.785C234.702 102.172 234.779 102.559 234.702 102.868C234.702 103.874 234.702 104.803 234.702 105.809C234.702 105.886 234.779 106.041 234.779 106.196C234.779 106.273 234.779 106.351 234.779 106.428C234.779 106.66 234.702 106.97 234.702 107.202C234.702 107.666 234.702 108.053 234.702 108.518C234.702 108.827 234.702 109.214 234.702 109.601C234.702 110.298 234.779 110.994 234.779 111.691C234.779 112.232 234.625 112.774 234.702 113.316C234.779 113.78 234.779 114.167 234.625 114.631C234.625 114.709 234.625 114.786 234.625 114.941C234.702 115.483 234.625 116.024 234.779 116.566C234.934 117.417 235.166 118.036 236.095 118.114C236.25 118.114 236.327 118.114 236.482 118.114C237.797 118.114 239.113 118.114 240.506 118.114C241.357 118.114 242.209 118.114 243.06 118.036C244.375 118.036 245.614 118.036 246.852 118.036C247.858 118.036 248.864 118.191 249.793 117.804C249.87 117.804 249.947 117.804 249.947 117.804C250.566 117.882 251.263 117.727 251.882 117.804C252.501 117.959 253.12 117.882 253.817 117.882C254.359 117.882 254.978 117.959 255.519 117.959C256.448 117.959 257.377 117.959 258.305 117.959C258.77 117.959 259.157 117.959 259.621 117.959C260.782 118.036 262.02 118.036 263.258 118.036C264.342 118.036 265.502 118.036 266.663 118.036C266.741 118.036 266.895 118.036 267.05 118.036C267.514 118.114 267.901 118.114 268.288 118.114C269.062 118.191 269.759 118.191 270.533 118.191C270.765 118.114 270.997 118.114 271.229 118.114C272.003 117.959 272.313 117.495 272.313 116.721C272.313 115.792 272.313 114.941 272.313 114.09C272.313 113.78 272.39 113.548 272.39 113.316C272.39 112.774 272.313 112.232 272.313 111.691C272.313 111.304 272.39 110.917 272.39 110.452C272.39 110.298 272.39 110.065 272.39 109.911C272.39 109.678 272.39 109.524 272.39 109.369C272.39 108.672 272.39 108.053 272.39 107.434C272.467 106.738 272.467 106.119 272.313 105.5C272.467 105.113 272.235 104.803 272.158 104.493C272.158 104.416 272.08 104.339 272.003 104.261C271.616 104.184 271.229 103.952 270.842 103.874C270.3 103.797 269.681 103.797 269.14 103.797C268.366 103.797 267.669 103.797 266.895 103.797C266.663 103.797 266.508 103.72 266.276 103.72C265.889 103.72 265.58 103.72 265.193 103.72C265.115 103.72 264.961 103.72 264.883 103.72C264.419 103.72 263.877 103.797 263.413 103.642C263.258 103.642 263.026 103.642 262.871 103.642C262.639 103.642 262.407 103.72 262.175 103.72C261.556 103.72 261.014 103.642 260.395 103.565C260.008 103.565 259.544 103.565 259.079 103.565C258.692 103.642 258.228 103.642 257.764 103.642C257.144 103.565 256.525 103.565 255.906 103.487C255.132 103.487 254.359 103.487 253.585 103.565C253.275 103.565 251.031 103.565 250.721 103.565C250.257 103.565 249.793 103.565 249.328 103.565C249.174 103.565 249.019 103.565 248.787 103.487C248.787 103.487 248.709 103.41 248.709 103.333C248.632 102.868 248.709 101.398 248.709 100.856C248.709 100.701 248.709 99.4633 248.709 99.2311C248.709 99.0763 248.709 98.999 248.941 98.999C249.483 99.0763 250.025 99.0763 250.489 98.999C250.721 98.9216 252.888 98.9216 253.043 98.999C253.43 99.1537 253.817 99.0763 254.204 98.999C254.823 98.9216 255.442 98.612 256.061 99.0763C256.138 99.0763 256.138 99.0763 256.216 99.0763C256.68 98.999 257.144 98.9216 257.609 99.0763C257.609 99.1537 257.609 99.0763 257.686 99.0763C258.073 99.0763 258.383 99.0763 258.77 99.0763C259.466 99.0763 260.163 99.0763 260.859 99.1537C261.169 99.1537 261.478 99.0763 261.71 99.1537C262.639 99.3085 263.645 98.4572 263.722 97.8381C263.8 97.2964 263.955 97.7607 263.8 97.1416C263.8 97.1416 263.8 97.0642 263.8 96.9869C263.8 96.7547 263.8 96.4451 263.8 96.213C263.8 96.1356 263.8 96.0582 263.8 95.9808C264.032 95.6713 264.032 95.2843 264.032 94.8974C264.109 93.8913 263.955 92.8853 263.877 91.8793C263.877 91.7245 263.877 91.5697 263.877 91.4923C263.955 90.9506 264.032 90.4089 264.109 89.8672C264.187 89.0933 264.187 89.2481 264.264 88.3968C264.342 88.0099 264.264 87.6229 264.032 87.3134C263.8 86.9264 263.258 86.4621 262.716 86.6169C262.562 86.6169 262.329 86.6169 262.175 86.6169C261.633 86.5395 261.091 86.5395 260.55 86.5395C259.776 86.4621 259.002 86.6169 258.228 86.5395C257.531 86.4621 256.912 86.5395 256.216 86.5395C256.138 86.5395 255.984 86.5395 255.906 86.5395C255.442 86.5395 254.978 86.4621 254.591 86.4621C254.359 86.4621 254.204 86.5395 254.049 86.4621C253.43 86.4621 250.799 86.4621 250.18 86.3847C250.025 86.3847 249.87 86.3847 249.793 86.3847C249.56 86.4621 249.406 86.3847 249.174 86.3847C249.096 85.9204 249.096 84.5274 249.096 84.0631C249.019 83.5213 249.328 81.8188 249.715 81.5093C249.947 81.3545 250.257 81.1997 250.566 81.2771C250.953 81.4319 253.352 81.4319 253.817 81.5093C253.972 81.5093 254.126 81.5093 254.281 81.5867C254.591 81.7414 254.9 81.8188 255.21 81.664C255.287 81.5867 255.442 81.5867 255.519 81.5867C255.906 81.5867 256.216 81.5867 256.603 81.5867C257.144 81.5867 257.764 81.5867 258.383 81.664C258.847 81.664 259.389 81.7414 259.93 81.664C260.472 81.5093 261.014 81.5093 261.633 81.5093C261.943 81.5867 262.175 81.5093 262.484 81.5093C263.103 81.664 263.645 81.2771 264.187 81.4319C264.264 81.4319 264.419 81.3545 264.496 81.3545C264.883 81.3545 265.27 81.2771 265.58 81.1997C266.199 81.1997 266.741 81.2771 267.36 81.2771C267.514 81.2771 267.592 81.2771 267.747 81.2771C268.134 81.2771 268.521 81.4319 268.907 81.1997C268.985 81.1997 269.062 81.2771 269.14 81.2771C269.294 81.2771 269.449 81.3545 269.604 81.2771C269.991 81.0449 270.378 81.1997 270.765 81.1997C271.229 81.1997 271.616 81.2771 272.08 81.2771C272.158 81.2771 272.158 81.1997 272.235 81.1997C272.467 80.9675 272.699 80.7354 273.009 80.5806C273.241 80.4258 273.319 80.1937 273.396 79.9615C273.396 79.9615 273.396 79.8841 273.473 79.8067C273.473 79.4972 273.551 79.1102 273.628 78.8007C273.628 78.1816 273.628 78.9555 273.628 78.3364L273.706 78.259C273.706 78.1042 273.706 77.9494 273.706 77.7946C273.706 77.4851 273.706 77.1755 273.706 76.866C273.706 76.5564 273.86 76.2469 273.938 75.9373C273.938 75.5504 273.86 75.1634 273.86 74.7765C273.86 74.5443 273.938 74.2348 273.938 74.0026C274.015 73.1514 274.015 72.3001 274.015 71.5262C274.015 71.3714 274.015 71.294 274.015 71.1393C274.015 70.4428 274.015 69.7463 274.015 69.0498C274.015 68.9724 274.015 68.895 273.938 68.895ZM319.147 85.0691C319.147 84.8369 319.07 84.6048 318.993 84.3726C318.915 83.9083 318.915 83.444 318.76 82.9796C318.528 82.2058 318.296 81.4319 317.987 80.5806C317.909 80.3484 317.832 80.1163 317.677 79.8841C317.445 79.3424 317.135 78.8781 316.826 78.3364C316.594 77.872 316.361 77.4077 315.974 76.9434C315.665 76.479 315.278 76.0147 314.891 75.5504C314.504 75.0861 314.195 74.6217 313.808 74.1574C313.808 74.08 313.653 74.0026 313.575 74.0026C313.498 73.8478 313.266 73.7705 313.189 73.6931C312.879 73.3835 312.647 73.074 312.337 72.8418C311.796 72.4549 311.099 72.0679 310.48 71.7584C309.938 71.3714 309.396 71.0619 308.777 70.7523C308.313 70.5202 308.004 70.2106 307.539 70.0558C306.224 69.5141 304.831 69.0498 303.515 68.5855C302.199 68.1211 300.884 67.8116 299.568 67.5794C298.794 67.4246 298.02 67.1151 297.169 67.1151C296.705 67.1151 296.163 66.9603 295.621 66.9603C294.615 67.0377 293.687 66.7282 292.681 66.9603C292.603 66.9603 292.526 66.9603 292.449 66.9603C292.062 66.9603 291.675 66.8829 291.288 66.8829C290.823 66.8829 290.282 66.8829 289.817 66.8829C289.43 66.8829 288.966 66.8829 288.579 66.8829C287.728 66.8829 286.877 66.8829 286.025 66.8055C285.251 66.8055 284.478 66.8055 283.704 66.8055C283.394 66.8055 283.085 66.8055 282.698 66.8055C282.233 66.8055 281.692 66.8055 281.227 66.7282C280.686 66.7282 280.299 66.8055 279.834 67.0377C279.757 67.1151 279.68 67.1925 279.68 67.2699C279.293 67.8116 279.138 68.4307 279.138 69.0498C279.138 69.9011 279.138 70.7523 279.138 71.5262C279.138 71.9132 279.138 72.3001 279.138 72.687C279.138 73.074 279.215 73.5383 279.215 73.9252C279.215 74.2348 279.293 74.467 279.293 74.6991C279.293 75.5504 279.06 76.4017 279.37 77.2529C279.37 77.3303 279.37 77.4077 279.37 77.5625C279.293 77.872 279.215 78.259 279.215 78.6459C279.293 79.265 279.293 79.8841 279.293 80.4258C279.293 81.1997 279.293 81.9736 279.293 82.6701C279.293 83.057 279.293 83.444 279.37 83.7535C279.37 84.0631 279.37 84.3726 279.37 84.6822C279.37 85.1465 279.37 85.5334 279.37 85.9204C279.37 86.3847 279.293 86.849 279.293 87.236C279.293 87.7777 279.293 88.242 279.293 88.7837C279.293 89.2481 279.293 89.7124 279.293 90.1767C279.293 90.9506 279.37 91.7245 279.37 92.421C279.37 92.9627 279.293 93.5044 279.293 93.9687C279.293 94.9748 279.37 95.9808 279.37 96.9869C279.37 97.7607 279.37 98.5346 279.37 99.2311C279.37 99.8502 279.37 100.392 279.447 101.011C279.447 101.475 279.447 102.017 279.447 102.481C279.37 102.946 279.293 103.41 279.37 103.874C279.447 104.493 279.525 105.035 279.525 105.577C279.447 106.428 279.447 107.202 279.447 107.976C279.447 108.672 279.447 109.292 279.447 109.988C279.447 110.917 279.447 111.845 279.447 112.774C279.447 113.548 279.37 114.322 279.525 115.096C279.602 115.637 279.525 116.256 279.525 116.876C279.525 117.108 279.447 117.34 279.447 117.572C279.525 117.804 279.602 118.036 279.757 118.114C279.989 118.346 280.376 118.501 280.763 118.423C281.227 118.423 281.769 118.423 282.233 118.423C282.775 118.423 283.394 118.346 283.936 118.346C284.323 118.346 284.71 118.423 285.174 118.423C285.406 118.423 285.638 118.501 285.871 118.501C286.335 118.501 286.722 118.423 287.186 118.501C287.65 118.578 288.192 118.501 288.657 118.501C289.121 118.501 289.585 118.578 290.049 118.578C290.359 118.578 290.669 118.501 291.056 118.501C291.52 118.501 292.062 118.578 292.603 118.578C293.068 118.501 293.687 118.501 293.919 117.959C294.074 117.572 294.228 117.185 294.228 116.721C294.306 115.173 294.228 113.625 294.228 112C294.228 111.304 294.228 110.607 294.228 109.988C294.228 109.059 294.461 108.208 294.306 107.357C294.228 106.97 294.383 106.893 294.77 106.893C295.002 106.893 295.157 106.893 295.389 106.893C295.699 106.815 296.086 106.815 296.395 106.738C296.627 106.738 296.782 106.738 296.937 106.738C297.556 106.66 298.098 106.506 298.717 106.428C299.027 106.351 299.336 106.273 299.646 106.119C299.955 106.119 300.187 106.041 300.419 105.964C300.574 105.964 300.806 105.964 300.961 105.886C301.193 105.654 301.503 105.654 301.812 105.577C302.354 105.422 302.896 105.267 303.438 105.035C303.747 104.958 303.979 104.803 304.211 104.648C304.521 104.571 304.831 104.416 305.14 104.339C305.295 104.261 305.527 104.184 305.682 104.184C306.224 104.107 306.611 103.797 307.075 103.565C307.23 103.487 307.307 103.255 307.617 103.255C308.081 103.178 308.39 102.868 308.777 102.481C309.087 102.172 309.551 101.94 310.016 101.708C310.17 101.63 310.403 101.475 310.557 101.398C310.712 101.321 310.867 101.243 311.022 101.088C311.254 100.934 311.486 100.701 311.718 100.547C311.873 100.392 312.105 100.315 312.337 100.16C312.647 99.8502 313.034 99.5407 313.343 99.1537C313.343 99.1537 313.343 99.1537 313.421 99.1537C313.575 98.999 313.808 98.8442 313.962 98.612C314.117 98.3025 314.349 98.0703 314.659 97.9155C314.814 97.9155 314.891 97.6834 314.968 97.606C315.046 97.4512 315.201 97.2964 315.278 97.1416C315.355 96.9869 315.51 96.9095 315.588 96.7547C315.742 96.5225 315.742 96.1356 316.129 96.1356C316.207 96.0582 316.207 96.0582 316.207 95.9808C316.361 95.7487 316.594 95.5165 316.671 95.2843C316.826 94.8974 317.135 94.5104 317.29 94.0461C317.6 93.1949 318.064 92.421 318.451 91.5697C318.528 91.4149 318.528 91.1828 318.606 91.028C318.683 90.7184 318.76 90.4863 318.838 90.1767C318.838 90.0993 318.915 89.9446 318.915 89.8672C318.993 89.635 318.993 89.4028 319.07 89.1707C319.07 88.9385 319.147 88.7837 319.147 88.5516C319.147 88.1646 319.147 87.7003 319.147 87.3134C319.225 86.9264 319.225 86.5395 319.225 86.1525C319.225 85.843 319.147 85.456 319.147 85.0691ZM303.747 89.5576C303.438 90.0219 303.051 90.4089 302.664 90.7958C302.664 90.8732 302.509 90.9506 302.432 91.028C302.045 91.2602 301.658 91.4923 301.193 91.8019C301.116 91.8793 301.039 91.9566 300.961 91.9566C300.11 92.2662 299.259 92.6531 298.407 92.8853C297.788 93.0401 297.092 93.1175 296.395 93.1949C296.008 93.2722 295.544 93.3496 295.08 93.427C294.925 93.427 294.693 93.3496 294.461 93.3496C294.461 93.0401 294.461 92.8079 294.461 92.5757C294.461 92.421 294.538 92.2662 294.461 92.1114C294.228 91.2602 294.538 90.4089 294.461 89.5576C294.461 88.7837 294.461 88.0872 294.461 87.3134C294.538 86.6943 294.538 85.9978 294.538 85.3787C294.538 84.9917 294.538 84.6822 294.461 84.2952C294.461 83.8309 294.461 83.2892 294.461 82.8249C294.461 82.2831 294.538 81.7414 294.538 81.1223C294.538 80.9675 294.538 80.8128 294.538 80.5806C295.002 80.658 295.389 80.658 295.776 80.7354C296.241 80.7354 296.782 80.8128 297.247 80.9675C297.711 81.0449 298.098 81.1997 298.562 81.3545C298.949 81.5093 299.336 81.664 299.723 81.8188C300.033 81.9736 300.265 82.1284 300.574 82.2831C300.729 82.3605 300.806 82.5153 300.961 82.5927C301.735 82.7475 302.199 83.3666 302.741 83.9083C303.051 84.2178 303.36 84.45 303.592 84.8369C304.057 85.5334 304.366 86.3847 304.444 87.236C304.444 87.3907 304.444 87.5455 304.521 87.7777C304.521 88.4742 304.211 89.0159 303.747 89.5576ZM371.485 75.9373C371.485 75.0861 371.563 74.3122 371.563 73.4609C371.563 73.074 371.485 72.687 371.485 72.2227C371.485 71.3714 371.563 70.5976 371.563 69.7463C371.563 68.7402 371.485 67.8116 371.485 66.8055C371.485 66.109 370.789 65.4899 370.17 65.4899C369.705 65.4899 369.318 65.5673 368.931 65.5673C368.39 65.5673 367.848 65.5673 367.384 65.5673C367.152 65.5673 366.842 65.6447 366.687 65.6447C366.378 65.5673 366.068 65.5673 365.759 65.5673C364.985 65.4126 364.211 65.7995 363.437 65.4899C363.36 65.4899 363.205 65.4899 363.05 65.4899C362.431 65.4126 361.734 65.7221 361.038 65.4899C360.883 65.4126 360.728 65.4899 360.651 65.4899C360.187 65.4899 359.8 65.6447 359.413 65.6447C358.794 65.5673 358.175 65.5673 357.633 65.4899C356.859 65.4126 356.162 65.4126 355.621 65.9543C355.543 65.9543 355.466 65.9543 355.466 65.9543C354.769 65.9543 354.305 66.4186 353.996 66.8829C353.609 67.2699 353.376 67.8116 353.144 68.3533C352.835 68.8176 352.603 69.2046 352.37 69.6689C352.216 69.9784 352.216 70.3654 351.906 70.5976C351.829 70.6749 351.751 70.7523 351.674 70.9071C351.21 71.7584 350.745 72.6096 350.358 73.4609C350.049 74.0026 349.739 74.5443 349.507 75.0861C349.275 75.3956 349.043 75.7826 348.811 76.0921C348.656 76.4017 348.501 76.6338 348.346 76.9434C348.037 77.5625 347.727 78.1816 347.34 78.8007C347.031 79.265 346.798 79.8067 346.644 80.3484C346.566 80.4258 346.566 80.5806 346.489 80.658C346.025 81.1223 346.025 81.7414 346.566 82.1284C347.108 82.5153 347.805 82.5927 348.424 82.5153C348.811 82.5153 349.043 82.5153 349.352 82.5927C349.584 82.5927 349.894 82.5927 350.126 82.5927C350.204 82.5927 350.281 82.5153 350.358 82.5153C350.823 82.5927 351.287 82.5927 351.674 82.5927C352.603 82.6701 353.454 82.6701 354.383 82.7475C354.615 82.7475 354.847 82.7475 355.156 82.7475C355.156 83.5213 355.156 84.2178 355.156 84.9143C355.156 85.3013 355.234 85.6882 355.079 85.9978C355.002 86.1525 355.002 86.3073 355.002 86.4621C354.924 87.0812 355.311 87.7777 355.002 88.4742C355.002 88.5516 355.002 88.7063 355.002 88.7837C355.079 89.7124 355.079 90.641 355.156 91.5697C355.156 91.9566 355.079 92.3436 355.079 92.7305C355.079 92.8853 355.156 93.1175 355.079 93.3496C354.924 93.814 355.002 94.2783 355.079 94.7426C355.079 94.9748 355.079 95.2069 355.079 95.4391C355.002 95.826 354.924 96.2904 354.924 96.6773C355.002 97.2964 355.079 97.9929 355.079 98.612C355.079 99.5407 355.002 100.469 355.002 101.398C355.002 101.63 355.079 101.862 355.002 102.094C354.847 102.791 355.156 103.487 355.002 104.184C354.924 104.416 355.079 104.726 355.002 104.958C354.924 105.422 354.924 105.886 355.002 106.428C355.002 106.893 354.924 107.434 354.924 107.899C354.924 108.208 354.924 108.44 354.924 108.75C354.924 109.137 354.924 109.601 354.924 110.065C354.924 110.53 355.079 110.994 354.924 111.458C354.769 112.232 354.924 113.006 354.847 113.78C354.847 114.399 355.002 115.096 354.924 115.792C354.847 116.179 354.847 116.489 354.847 116.876C354.847 117.03 355.002 117.263 355.079 117.417C355.156 117.495 355.234 117.572 355.234 117.572C355.389 117.882 355.621 118.036 356.008 118.036C356.317 118.036 356.704 118.036 357.091 118.036C358.097 118.036 359.181 118.036 360.187 118.036C361.038 117.959 361.812 117.959 362.663 117.959C362.895 117.959 363.205 117.882 363.437 117.882C364.056 117.882 364.598 117.959 365.139 117.959C366.455 117.959 367.693 117.959 369.009 117.959C369.628 117.882 370.247 117.727 370.866 117.572C371.021 117.495 371.176 117.34 371.253 117.185C371.33 116.721 371.33 116.256 371.408 115.792C371.485 115.405 371.408 115.018 371.408 114.554C371.408 113.78 371.408 113.006 371.408 112.232C371.408 111.304 371.408 110.298 371.408 109.369C371.408 108.595 371.408 107.821 371.408 107.047C371.408 106.351 371.408 105.577 371.408 104.88C371.33 104.416 371.408 103.952 371.408 103.41C371.563 102.791 371.485 102.172 371.408 101.553C371.408 100.856 371.408 100.237 371.408 99.6181C371.408 99.3859 371.485 99.0763 371.485 98.7668C371.485 98.0703 371.485 97.3738 371.485 96.6773C371.485 96.213 371.485 95.826 371.485 95.3617C371.485 94.5878 371.485 93.814 371.485 92.9627C371.485 92.3436 371.485 91.8019 371.485 91.1828C371.485 90.3315 371.563 89.4802 371.485 88.629C371.485 88.1646 371.408 87.7777 371.485 87.3907C371.563 86.3847 371.563 85.3013 371.485 84.2178C371.485 83.5987 371.485 82.9796 371.408 82.2831C371.408 81.8188 371.485 81.3545 371.485 80.8902C371.485 80.2711 371.408 79.6519 371.408 79.0328C371.408 78.7233 371.563 78.4911 371.563 78.259C371.563 77.4851 371.485 76.7112 371.485 75.9373Z" fill="#FCFCFC"/>
</svg>
