<svg width="498" height="213" viewBox="0 0 498 213" fill="none" xmlns="http://www.w3.org/2000/svg">
<path d="M497.059 114.872L397.765 212.96H48.8853L148.279 114.872L48.8853 16.8828H397.765L497.059 114.872Z" fill="#0F0F0F"/>
<path d="M448.561 110.333L349.167 208.322H0.388123L99.7822 110.333L0.388123 12.2451H349.167L448.561 110.333Z" fill="#205EFF"/>
<path d="M494.059 102.833L392.565 203.092H38.6859L140.28 102.833L38.6859 2.67334H392.565L494.059 102.833Z" stroke="#FE7624" stroke-width="5" stroke-miterlimit="10"/>
<path d="M197.679 103.522C197.602 102.903 197.602 102.283 197.602 101.664V101.587C197.602 101.277 197.602 100.968 197.602 100.581C197.602 100.271 197.524 100.039 197.447 99.9618L197.292 99.3427C197.137 98.801 196.983 98.2592 196.828 97.7175C196.751 97.5627 196.673 97.2532 196.596 97.021C196.286 96.5567 196.054 96.0924 195.822 95.628L195.667 95.3185C195.59 95.1637 195.512 95.0863 195.435 94.9316C195.203 94.5446 195.048 94.1577 194.816 93.7707C194.661 93.5386 194.506 93.3064 194.352 93.1516C194.197 92.9195 194.042 92.6873 193.965 92.4551C193.655 91.7586 193.191 91.2943 192.804 90.83C192.572 90.6752 192.417 90.4431 192.262 90.2883C192.185 90.2109 192.107 90.0561 191.952 89.9787C191.798 89.8239 191.72 89.7466 191.566 89.5918C191.179 89.2822 190.792 88.9727 190.405 88.6631C190.095 88.431 189.708 88.1214 189.321 87.8892C189.012 87.7345 188.78 87.5797 188.47 87.5023C188.315 87.4249 188.16 87.3475 188.083 87.2701C188.006 87.1928 187.928 87.1928 187.774 87.1154C187.696 87.038 187.464 86.8832 187.232 86.8058C186.845 86.5737 186.458 86.4189 185.994 86.1867C185.916 86.1093 185.761 86.0319 185.607 86.0319C185.529 85.9545 185.529 85.9545 185.452 85.9545C185.22 85.7998 184.833 85.5676 184.368 85.4902C184.291 85.4902 184.214 85.4128 184.136 85.4128C183.749 85.2581 183.285 85.0259 182.589 84.9485C182.124 84.7937 181.66 84.639 181.273 84.5616C181.041 84.4842 180.886 84.4068 180.654 84.4068C180.576 84.4068 180.422 84.4068 180.344 84.4842C180.267 84.4842 180.112 84.4842 180.035 84.4842C179.803 84.5616 179.648 84.5616 179.493 84.5616C179.493 84.5616 179.493 84.5616 179.416 84.5616C178.487 84.1746 177.636 84.0198 176.784 83.8651C176.707 83.8651 176.707 83.8651 176.63 83.8651H176.552C176.32 83.7103 176.088 83.6329 175.778 83.4781C175.701 83.4007 175.624 83.4007 175.546 83.3234C175.314 83.0912 175.082 82.859 174.927 82.6269C174.927 82.5495 174.927 82.5495 174.927 82.5495C174.85 82.3947 174.695 82.0078 174.385 81.6982L174.308 81.6208C174.308 81.5434 174.231 81.3887 174.231 81.3113C174.231 81.1565 174.231 81.0017 174.308 80.8469C174.308 80.7696 174.308 80.6922 174.308 80.5374C174.308 80.46 174.308 80.1504 174.385 79.9957C174.618 79.9183 174.85 79.7635 175.082 79.6087C175.159 79.6087 175.159 79.5313 175.237 79.5313C175.391 79.454 175.469 79.3766 175.624 79.2992C175.778 79.2992 175.856 79.2218 175.933 79.2218C176.165 79.1444 176.475 79.067 176.784 78.9896C177.326 78.9122 177.868 78.9896 178.332 79.2992C178.951 79.2992 179.493 79.3766 180.035 79.6087C180.809 79.9183 181.196 80.6148 181.428 81.3113C181.582 81.6208 181.66 81.9304 181.815 82.2399C181.815 82.2399 181.815 82.3173 181.892 82.3173C181.969 82.4721 182.047 82.5495 182.047 82.7043C182.124 82.7043 182.124 82.7043 182.124 82.7043C182.124 82.7816 182.124 82.859 182.202 82.859C182.202 82.9364 182.202 83.0138 182.279 83.0138C182.356 83.0912 182.356 83.1686 182.356 83.246C182.743 83.7877 183.44 84.1746 184.214 84.3294C185.142 84.4068 186.071 84.4842 187 84.4842C187.154 84.4842 187.232 84.4842 187.387 84.4842C187.851 84.4842 188.238 84.4842 188.625 84.4842C189.012 84.4842 189.399 84.4842 189.786 84.4842H189.863C190.018 84.4842 190.327 84.4842 190.56 84.4842C190.792 84.5616 191.024 84.5616 191.333 84.5616H191.411C191.952 84.5616 192.494 84.639 193.113 84.639C193.191 84.639 193.268 84.639 193.423 84.639C194.119 84.639 194.816 84.3294 195.358 83.7877C195.899 83.1686 194.971 82.4721 194.893 81.7756C194.816 81.6982 194.816 81.6208 194.816 81.5434C194.738 81.2339 194.738 81.0017 194.738 80.7696C194.584 79.5313 194.506 78.3705 194.042 77.2097C193.965 77.1323 193.887 76.9775 193.887 76.9002C193.655 76.3584 193.423 75.7393 193.113 75.1976C192.804 74.5785 192.339 73.9594 191.952 73.3403C191.411 72.7212 191.024 72.1795 190.56 71.7152C190.327 71.4056 190.018 71.0961 189.708 70.7865C189.321 70.4769 189.012 70.1674 188.78 69.8578C188.16 69.1614 187.387 68.5422 186.303 68.0779C185.065 67.3814 183.672 66.9945 182.434 66.6849C182.202 66.6075 182.047 66.6075 181.892 66.5302C181.196 66.298 180.422 66.1432 179.493 66.0658C179.338 65.9884 179.106 65.9884 178.951 65.9884C178.1 65.8337 177.249 65.6789 176.32 65.6789C176.243 65.6789 176.088 65.6789 176.011 65.7563C175.469 65.5241 175.005 65.4467 174.695 65.4467C174.618 65.4467 174.54 65.4467 174.54 65.4467H174.385H174.231C174.153 65.4467 174.076 65.4467 173.998 65.4467H173.921C173.766 65.4467 173.534 65.5241 173.302 65.5241C172.219 65.6015 171.29 65.9111 170.516 66.2206C170.361 66.2206 170.206 66.298 170.052 66.3754C169.742 66.4528 169.433 66.6075 169.278 66.7623C169.2 66.7623 169.123 66.7623 169.046 66.8397C168.891 66.9171 168.659 66.9945 168.427 67.1493C168.04 67.3814 167.653 67.5362 167.266 67.691C166.028 68.1553 164.944 68.8518 163.938 69.7031C163.474 70.09 162.932 70.5543 162.468 70.9413C162.003 71.3282 161.307 71.9473 160.843 72.876C160.765 73.1081 160.61 73.4177 160.456 73.6499C160.301 73.882 160.069 74.1916 159.991 74.4237C159.604 75.0428 159.45 75.5846 159.295 76.0489C159.14 76.5132 159.063 76.9775 158.985 77.4419C158.985 77.5193 158.908 77.674 158.908 77.7514C158.908 77.9062 158.83 77.9836 158.83 78.1384C158.753 78.6027 158.598 79.067 158.598 79.6087C158.676 80.3052 158.676 80.9243 158.753 81.5434C158.753 81.853 158.83 82.0851 158.83 82.3173C158.83 82.3947 158.83 82.4721 158.83 82.6269C158.83 82.7816 158.908 82.9364 158.908 83.0912C158.908 83.8651 159.14 84.5616 159.372 85.1807C159.527 85.4128 159.682 85.5676 159.759 85.7224C159.759 85.7998 159.836 85.7998 159.836 85.8772L159.914 85.9545C160.069 86.8058 160.456 87.5023 161.152 88.044C161.694 88.5857 162.235 89.1275 162.777 89.8239C163.087 90.2883 163.396 90.5978 163.706 90.9074C163.783 90.9848 163.861 91.0622 163.938 91.1395C164.17 91.3717 164.48 91.5265 164.635 91.6813C164.712 91.6813 164.789 91.7586 164.789 91.7586C164.867 91.836 164.944 91.836 165.021 91.9134C165.099 91.9908 165.176 92.0682 165.254 92.1456C165.408 92.223 165.486 92.3004 165.641 92.3778C165.95 92.6099 166.337 92.9195 166.801 93.1516C167.42 93.4612 168.117 93.6933 168.736 93.9255C169.2 94.0803 169.665 94.2351 170.052 94.3125C170.284 94.3898 170.516 94.4672 170.671 94.5446C171.058 94.622 171.522 94.7768 171.909 94.9316C171.986 94.9316 172.064 95.0089 172.141 95.0089C172.219 95.0863 172.373 95.1637 172.605 95.2411C172.838 95.3185 172.992 95.3185 173.147 95.3959C173.225 95.3959 173.302 95.3959 173.379 95.4733C173.998 95.8602 174.618 96.0924 175.159 96.1698C175.314 96.2472 175.546 96.3245 175.701 96.3245C176.011 96.4793 176.32 96.5567 176.552 96.6341C176.63 96.6341 176.784 96.7115 176.862 96.7115C177.171 96.9436 177.481 97.0984 177.558 97.0984C177.713 97.1758 177.868 97.1758 177.945 97.2532C178.1 97.3306 178.41 97.408 178.41 97.4854C178.797 97.7949 179.183 97.9497 179.416 98.0271C179.648 98.2592 179.88 98.5688 180.19 98.801C180.267 98.8783 180.344 98.9557 180.344 99.0331C180.422 99.0331 180.499 99.1105 180.499 99.1879C180.576 99.2653 180.654 99.4201 180.654 99.5748C181.041 100.349 181.35 101.123 181.35 101.819C181.273 102.825 181.118 103.599 180.886 104.373C180.886 104.373 180.886 104.373 180.809 104.45C180.576 104.605 180.19 104.837 179.88 105.224C179.803 105.302 179.648 105.302 179.648 105.379L179.416 105.456C178.874 105.688 178.332 105.921 177.868 106.075C177.713 106.153 177.558 106.153 177.558 106.153C177.249 106.075 177.017 105.998 176.784 105.921C176.552 105.843 176.32 105.766 176.165 105.688C175.933 105.611 175.701 105.534 175.469 105.456C175.082 105.302 174.772 105.147 174.385 105.069C174.308 104.992 174.153 104.837 174.076 104.76C173.998 104.682 173.921 104.605 173.844 104.528C173.689 104.296 173.457 103.986 173.07 103.754C172.76 103.444 172.605 103.057 172.373 102.361C172.296 101.974 172.219 101.664 172.141 101.355C172.064 100.89 171.909 100.349 171.754 99.8844C171.522 98.9557 170.671 98.3366 169.51 98.3366C169.433 98.3366 169.433 98.3366 169.355 98.3366C169.123 98.3366 168.891 98.3366 168.581 98.3366C168.427 98.3366 168.272 98.3366 168.117 98.3366C167.962 98.3366 167.807 98.3366 167.73 98.3366C167.575 98.3366 167.42 98.3366 167.343 98.3366C166.801 98.3366 166.414 98.3366 165.95 98.3366C165.408 98.3366 164.867 98.2592 164.402 98.2592C163.783 98.1819 163.164 98.1819 162.545 98.1045C162.313 98.1045 162.003 98.1045 161.694 98.1045C161.462 98.1045 161.229 98.1045 160.997 98.1045C160.843 98.1045 160.688 98.1045 160.456 98.1045C160.378 98.1045 160.223 98.1045 160.146 98.1819C159.682 98.0271 159.295 98.0271 158.83 98.0271C158.443 98.0271 158.057 98.0271 157.67 98.1045C157.051 98.2592 156.509 98.414 156.122 98.7236C156.122 99.2653 156.044 99.807 156.044 100.349C155.967 102.206 155.967 104.141 156.354 105.998C156.431 106.617 156.586 107.236 156.741 107.778C156.741 107.855 156.741 107.855 156.818 107.933C156.896 108.088 156.973 108.165 157.051 108.32C157.128 108.397 157.205 108.474 157.205 108.552C157.283 108.629 157.283 108.629 157.283 108.707C157.515 109.635 157.902 110.332 158.521 110.951C158.598 111.106 158.676 111.26 158.83 111.415C158.908 111.493 158.985 111.647 159.063 111.725C159.14 111.88 159.217 111.957 159.295 112.034V112.112C159.604 112.421 159.836 112.808 160.146 113.118C160.456 113.427 160.688 113.659 160.997 113.892C161.075 113.969 161.229 114.124 161.307 114.201C161.384 114.201 161.462 114.279 161.539 114.356C161.849 114.665 162.235 115.052 162.932 115.362C163.009 115.439 163.087 115.517 163.164 115.594C163.628 115.981 164.17 116.523 164.944 116.832C165.099 116.91 165.331 116.987 165.408 117.065C166.182 117.761 167.034 118.148 167.807 118.458C167.962 118.612 168.194 118.69 168.349 118.767C169.046 119.077 169.742 119.309 170.361 119.541C170.671 119.618 170.903 119.696 171.135 119.773C172.141 120.083 173.147 120.16 174.076 120.16C174.308 120.237 174.618 120.237 174.927 120.237C175.237 120.237 175.701 120.315 176.088 120.392C176.552 120.547 176.862 120.547 177.249 120.547C177.558 120.547 177.868 120.547 178.177 120.47H178.255C178.332 120.47 178.332 120.47 178.41 120.47C178.564 120.47 178.719 120.47 178.874 120.47C179.261 120.47 179.648 120.47 180.035 120.392C180.422 120.392 181.041 120.315 181.582 120.005C181.815 119.928 182.124 119.85 182.511 119.773C182.511 119.773 182.589 119.773 182.666 119.773C183.13 119.696 183.672 119.618 184.214 119.464C184.755 119.231 185.142 119.077 185.607 118.844C185.761 118.767 185.916 118.69 186.071 118.612C186.303 118.535 186.458 118.458 186.69 118.38C187.154 118.225 187.696 117.993 188.238 117.684C188.315 117.606 188.47 117.529 188.625 117.451C189.244 117.142 190.018 116.755 190.714 116.136C190.869 115.981 191.179 115.749 191.411 115.594C191.798 115.362 192.185 115.052 192.494 114.743C193.345 113.892 194.042 113.118 194.661 112.421C195.125 111.802 195.435 111.106 195.667 110.487C195.667 110.409 195.745 110.332 195.745 110.254C195.822 110.022 195.899 109.867 195.977 109.713C196.131 109.326 196.286 109.016 196.441 108.784C196.983 108.01 197.292 107.159 197.447 106.308C197.447 106.075 197.447 105.843 197.524 105.534C197.602 104.915 197.679 104.296 197.679 103.522ZM244.87 77.2871C244.87 76.9775 244.87 76.668 244.87 76.3584C244.87 75.8941 244.87 75.5072 244.87 75.0428C244.87 74.6559 244.87 74.269 244.87 73.882C244.87 73.7272 244.87 73.5725 244.87 73.4177C244.792 73.1081 244.715 72.876 244.792 72.6438C244.792 72.0247 244.87 71.4056 244.87 70.7865C244.87 70.2448 244.87 69.7031 244.87 69.1614C244.87 68.6196 244.947 68.0779 244.947 67.5362C244.947 67.4588 244.87 67.304 244.792 67.2267C244.328 66.9945 243.941 66.6849 243.322 66.8397C242.935 66.9171 242.471 66.9171 242.006 66.9171C241.619 66.8397 241.155 66.8397 240.768 66.8397C240.072 66.7623 239.452 66.8397 238.756 66.7623C238.524 66.7623 238.214 66.7623 237.982 66.7623C237.518 66.7623 237.053 66.7623 236.512 66.7623C236.357 66.7623 236.125 66.7623 235.893 66.7623C235.351 66.8397 234.809 66.9171 234.267 66.9171C233.184 66.8397 232.101 66.6849 230.94 66.9171C230.708 66.9171 230.475 66.9171 230.243 66.9945C230.011 66.9945 229.856 66.9945 229.624 66.9945C229.547 66.9945 229.469 67.0719 229.315 67.0719C228.85 67.0719 228.309 66.9945 227.844 66.9945C227.225 66.9945 226.606 67.0719 225.987 67.0719C225.136 67.0719 224.284 66.9945 223.433 66.9945C223.124 66.9945 222.737 66.9171 222.427 66.9171C221.653 66.9171 220.879 66.9945 220.105 66.7623C219.796 66.6849 219.409 66.7623 219.022 66.7623C218.016 66.8397 216.932 66.7623 215.926 66.6849C215.54 66.6075 215.075 66.5302 214.688 66.5302C213.992 66.5302 213.295 66.6075 212.599 66.6075C212.289 66.6849 211.98 66.6849 211.593 66.6849C211.128 66.6075 210.664 66.5302 210.122 66.5302C209.89 66.5302 209.581 66.5302 209.271 66.5302C208.962 66.5302 208.652 66.4528 208.342 66.5302C207.878 66.5302 207.414 66.6849 207.027 66.6075C206.64 66.5302 206.176 66.5302 205.789 66.5302C205.092 66.6075 204.396 66.7623 203.699 66.6075C203.544 66.6075 203.312 66.6075 203.157 66.5302C202.616 66.4528 202.306 66.8397 201.919 67.0719C201.842 67.1493 201.842 67.2267 201.842 67.304C201.842 67.7684 201.842 68.1553 201.842 68.6196C201.842 69.084 201.842 69.5483 201.842 70.0126C201.842 70.4769 201.919 71.0187 201.919 71.483C201.919 71.9473 201.997 72.3343 201.919 72.7986C201.919 73.1855 201.764 73.5725 201.919 73.9594C201.997 74.0368 201.919 74.1142 201.919 74.1916C201.764 74.8881 201.842 75.5072 201.919 76.2037C201.919 76.4358 201.842 76.7454 201.842 76.9775C201.842 77.3645 201.919 77.7514 201.842 78.1384C201.842 78.6027 201.687 79.067 202.074 79.454V79.5313C202.229 79.9183 202.229 80.2278 202.538 80.5374C202.693 80.6148 202.693 80.7696 202.693 80.9243C202.693 81.2339 202.925 81.2339 203.157 81.2339C203.622 81.1565 204.163 81.1565 204.628 81.1565C205.402 81.1565 206.098 81.2339 206.795 81.2339C207.723 81.2339 208.652 81.2339 209.581 81.2339C209.813 81.2339 210.045 81.2339 210.277 81.2339C210.664 81.2339 210.974 81.1565 211.361 81.1565C212.057 81.2339 212.676 81.2339 213.373 81.2339C213.914 81.3113 214.456 81.3113 215.075 81.2339C215.153 81.2339 215.307 81.3113 215.307 81.466C215.23 81.9304 215.23 82.4721 215.23 82.9364C215.307 83.6329 215.307 84.252 215.385 84.9485C215.385 85.4902 215.307 86.0319 215.307 86.5737C215.307 86.7284 215.307 86.9606 215.307 87.1928C215.307 87.5797 215.307 88.044 215.385 88.431C215.385 88.9727 215.385 89.5144 215.385 90.0561C215.385 90.2109 215.385 90.3657 215.385 90.5204C215.385 90.9074 215.385 91.2943 215.385 91.6039C215.385 91.836 215.462 92.0682 215.462 92.3004C215.385 93.0742 215.385 93.8481 215.307 94.5446C215.307 94.8542 215.462 95.0863 215.462 95.3185C215.462 95.8602 215.385 96.4019 215.307 96.9436C215.307 97.6401 215.385 98.2592 215.385 98.9557C215.307 99.807 215.23 100.581 215.462 101.355C215.462 101.432 215.462 101.51 215.462 101.587C215.462 101.974 215.385 102.438 215.385 102.903C215.385 102.98 215.385 103.057 215.385 103.212C215.385 103.676 215.462 104.218 215.462 104.76C215.462 105.147 215.385 105.611 215.385 106.075C215.385 106.462 215.54 106.927 215.462 107.314C215.462 107.701 215.385 108.088 215.462 108.474C215.462 109.016 215.307 109.558 215.54 110.1C215.54 110.177 215.54 110.254 215.54 110.332C215.23 111.106 215.462 111.88 215.385 112.576C215.385 113.118 215.462 113.582 215.462 114.124C215.462 114.356 215.385 114.511 215.462 114.743C215.54 115.285 215.54 115.826 215.462 116.368C215.385 116.832 215.54 117.219 215.694 117.684C216.004 118.148 216.313 118.458 216.855 118.458C217.939 118.458 219.022 118.535 220.105 118.535C221.344 118.535 222.582 118.535 223.82 118.535C224.517 118.535 225.213 118.458 225.909 118.458C226.529 118.458 227.07 118.458 227.612 118.458C227.689 118.535 227.689 118.535 227.689 118.535C228.541 118.535 229.469 118.458 230.398 118.458C230.785 118.38 231.172 118.148 231.172 117.761C231.249 116.987 231.404 116.213 231.404 115.439C231.404 114.588 231.327 113.737 231.327 112.886C231.249 111.338 231.249 109.79 231.249 108.242C231.172 107.546 231.094 106.849 231.094 106.153C231.094 105.456 231.094 104.76 231.094 103.986C231.094 102.748 231.094 101.51 230.94 100.194C230.862 99.1105 231.017 98.1045 230.94 97.021C230.862 96.0924 230.862 95.1637 230.862 94.2351C230.862 93.4612 230.785 92.6099 230.785 91.836C230.785 91.0622 230.785 90.2883 230.785 89.5144C230.785 88.5857 230.708 87.7345 230.63 86.8832C230.63 85.8772 230.63 84.7937 230.63 83.7877C230.553 83.0912 230.553 82.4721 230.475 81.7756C230.475 81.5434 230.553 81.466 230.785 81.466C231.094 81.466 231.404 81.5434 231.714 81.5434C233.184 81.466 234.654 81.466 236.047 81.466C236.279 81.466 236.512 81.5434 236.744 81.5434C237.595 81.466 238.369 81.466 239.143 81.466C239.994 81.466 240.768 81.466 241.619 81.466C242.238 81.466 242.857 81.3887 243.477 81.3887C243.786 81.3887 244.018 81.5434 244.018 81.0791L244.096 81.0017C244.25 80.6148 244.405 80.3052 244.637 79.9183C244.715 79.7635 244.792 79.6087 244.87 79.454C244.87 79.3766 244.947 79.2992 244.947 79.2218C244.947 78.6027 244.947 77.9836 244.87 77.2871ZM288.155 68.7744C287.923 68.3875 287.769 68.0005 287.304 67.8458C286.685 67.5362 286.143 67.304 285.447 67.5362C285.369 67.5362 285.369 67.5362 285.292 67.5362C284.75 67.5362 284.286 67.5362 283.744 67.5362C283.357 67.5362 282.97 67.4588 282.584 67.4588C282.042 67.4588 281.5 67.4588 280.958 67.4588C280.262 67.5362 279.488 67.4588 278.792 67.4588C278.559 67.4588 278.405 67.4588 278.172 67.4588C277.94 67.4588 277.785 67.4588 277.553 67.4588C276.625 67.4588 275.696 67.3814 274.767 67.3814C274.303 67.3814 273.839 67.304 273.374 67.304C272.446 67.304 271.594 67.3814 270.743 67.3814C269.969 67.3814 269.195 67.3814 268.499 67.304C267.802 67.2267 267.183 67.304 266.487 67.304C266.409 67.304 266.332 67.304 266.255 67.304C265.79 67.2267 265.326 67.2267 264.862 67.2267C264.32 67.2267 263.701 67.2267 263.159 67.2267C262.695 67.2267 262.153 67.2267 261.689 67.1493C261.07 67.1493 260.451 67.2267 259.909 67.1493C259.677 67.1493 259.522 67.0719 259.367 67.0719C258.516 67.0719 257.665 67.1493 256.813 67.1493C256.813 67.1493 256.736 67.1493 256.736 67.0719C256.581 67.0719 256.504 66.9945 256.349 66.9945C255.962 66.9945 255.498 67.0719 255.111 67.0719C254.646 67.1493 254.105 67.2267 253.563 67.1493C253.099 66.9945 252.634 67.0719 252.17 67.1493C252.093 67.1493 251.938 67.2267 251.783 67.2267C251.474 67.2267 251.164 67.1493 250.854 67.0719C249.616 66.9945 248.997 67.9231 249.075 69.084C249.152 69.4709 249.075 69.7805 249.075 70.1674C249.075 70.3996 248.997 70.5543 248.997 70.7091C248.997 71.5604 249.075 72.3343 249.075 73.1081C249.075 73.1855 249.075 73.2629 249.075 73.3403C249.075 73.6499 249.152 73.882 249.152 74.1142C249.075 74.6559 249.075 75.1976 248.997 75.7393C248.997 76.0489 248.997 76.281 249.075 76.5906C249.152 76.9775 249.229 77.3645 249.075 77.7514C248.997 77.8288 248.997 77.9836 248.997 78.1384C249.075 78.3705 249.075 78.6027 249.075 78.7575C249.075 79.454 249.075 80.0731 249.075 80.7696C249.075 80.8469 249.075 80.8469 249.075 80.9243C248.997 81.466 248.997 82.0851 248.997 82.6269C249.075 83.1686 249.075 83.7103 249.075 84.252C249.075 84.9485 248.997 85.645 248.997 86.3415C248.997 86.8832 249.075 87.4249 249.075 88.044C249.075 88.5084 248.92 89.0501 248.92 89.5144C248.997 89.9787 249.075 90.3657 248.997 90.83C248.92 91.2169 248.92 91.6039 248.92 91.9908C248.92 92.7647 248.92 93.5386 248.92 94.3125C248.997 94.7768 249.075 95.2411 249.075 95.7828C249.075 96.1698 248.997 96.6341 248.997 97.021C248.997 97.8723 248.92 98.7236 248.92 99.5748C248.92 100.039 248.997 100.503 248.997 100.968C248.997 101.2 248.92 101.432 248.92 101.664C248.92 102.051 248.997 102.438 248.92 102.748C248.92 103.754 248.92 104.682 248.92 105.688C248.92 105.766 248.997 105.921 248.997 106.075C248.997 106.153 248.997 106.23 248.997 106.308C248.997 106.54 248.92 106.849 248.92 107.081C248.92 107.546 248.92 107.933 248.92 108.397C248.92 108.707 248.92 109.094 248.92 109.481C248.92 110.177 248.997 110.873 248.997 111.57C248.997 112.112 248.842 112.653 248.92 113.195C248.997 113.659 248.997 114.046 248.842 114.511C248.842 114.588 248.842 114.665 248.842 114.82C248.92 115.362 248.842 115.904 248.997 116.445C249.152 117.297 249.384 117.916 250.313 117.993C250.467 117.993 250.545 117.993 250.7 117.993C252.015 117.993 253.331 117.993 254.724 117.993C255.575 117.993 256.426 117.993 257.278 117.916C258.593 117.916 259.831 117.916 261.07 117.916C262.076 117.916 263.082 118.071 264.01 117.684C264.088 117.684 264.165 117.684 264.165 117.684C264.784 117.761 265.481 117.606 266.1 117.684C266.719 117.838 267.338 117.761 268.035 117.761C268.576 117.761 269.195 117.838 269.737 117.838C270.666 117.838 271.594 117.838 272.523 117.838C272.987 117.838 273.374 117.838 273.839 117.838C274.999 117.916 276.238 117.916 277.476 117.916C278.559 117.916 279.72 117.916 280.881 117.916C280.958 117.916 281.113 117.916 281.268 117.916C281.732 117.993 282.119 117.993 282.506 117.993C283.28 118.071 283.976 118.071 284.75 118.071C284.983 117.993 285.215 117.993 285.447 117.993C286.221 117.838 286.53 117.374 286.53 116.6C286.53 115.672 286.53 114.82 286.53 113.969C286.53 113.659 286.608 113.427 286.608 113.195C286.608 112.653 286.53 112.112 286.53 111.57C286.53 111.183 286.608 110.796 286.608 110.332C286.608 110.177 286.608 109.945 286.608 109.79C286.608 109.558 286.608 109.403 286.608 109.248C286.608 108.552 286.608 107.933 286.608 107.314C286.685 106.617 286.685 105.998 286.53 105.379C286.685 104.992 286.453 104.682 286.376 104.373C286.376 104.296 286.298 104.218 286.221 104.141C285.834 104.063 285.447 103.831 285.06 103.754C284.518 103.676 283.899 103.676 283.357 103.676C282.584 103.676 281.887 103.676 281.113 103.676C280.881 103.676 280.726 103.599 280.494 103.599C280.107 103.599 279.798 103.599 279.411 103.599C279.333 103.599 279.178 103.599 279.101 103.599C278.637 103.599 278.095 103.676 277.631 103.522C277.476 103.522 277.244 103.522 277.089 103.522C276.857 103.522 276.625 103.599 276.392 103.599C275.773 103.599 275.232 103.522 274.613 103.444C274.226 103.444 273.761 103.444 273.297 103.444C272.91 103.522 272.446 103.522 271.981 103.522C271.362 103.444 270.743 103.444 270.124 103.367C269.35 103.367 268.576 103.367 267.802 103.444C267.493 103.444 265.249 103.444 264.939 103.444C264.475 103.444 264.01 103.444 263.546 103.444C263.391 103.444 263.237 103.444 263.004 103.367C263.004 103.367 262.927 103.289 262.927 103.212C262.85 102.748 262.927 101.277 262.927 100.736C262.927 100.581 262.927 99.3427 262.927 99.1105C262.927 98.9557 262.927 98.8783 263.159 98.8783C263.701 98.9557 264.243 98.9557 264.707 98.8783C264.939 98.801 267.106 98.801 267.261 98.8783C267.648 99.0331 268.035 98.9557 268.422 98.8783C269.041 98.801 269.66 98.4914 270.279 98.9557C270.356 98.9557 270.356 98.9557 270.434 98.9557C270.898 98.8783 271.362 98.801 271.827 98.9557C271.827 99.0331 271.827 98.9557 271.904 98.9557C272.291 98.9557 272.6 98.9557 272.987 98.9557C273.684 98.9557 274.38 98.9557 275.077 99.0331C275.386 99.0331 275.696 98.9557 275.928 99.0331C276.857 99.1879 277.863 98.3366 277.94 97.7175C278.018 97.1758 278.172 97.6401 278.018 97.021C278.018 97.021 278.018 96.9436 278.018 96.8663C278.018 96.6341 278.018 96.3245 278.018 96.0924C278.018 96.015 278.018 95.9376 278.018 95.8602C278.25 95.5507 278.25 95.1637 278.25 94.7768C278.327 93.7707 278.172 92.7647 278.095 91.7586C278.095 91.6039 278.095 91.4491 278.095 91.3717C278.172 90.83 278.25 90.2883 278.327 89.7466C278.405 88.9727 278.405 89.1275 278.482 88.2762C278.559 87.8892 278.482 87.5023 278.25 87.1928C278.018 86.8058 277.476 86.3415 276.934 86.4963C276.779 86.4963 276.547 86.4963 276.392 86.4963C275.851 86.4189 275.309 86.4189 274.767 86.4189C273.993 86.3415 273.22 86.4963 272.446 86.4189C271.749 86.3415 271.13 86.4189 270.434 86.4189C270.356 86.4189 270.201 86.4189 270.124 86.4189C269.66 86.4189 269.195 86.3415 268.808 86.3415C268.576 86.3415 268.422 86.4189 268.267 86.3415C267.648 86.3415 265.016 86.3415 264.397 86.2641C264.243 86.2641 264.088 86.2641 264.01 86.2641C263.778 86.3415 263.623 86.2641 263.391 86.2641C263.314 85.7998 263.314 84.4068 263.314 83.9425C263.237 83.4007 263.546 81.6982 263.933 81.3887C264.165 81.2339 264.475 81.0791 264.784 81.1565C265.171 81.3113 267.57 81.3113 268.035 81.3887C268.189 81.3887 268.344 81.3887 268.499 81.466C268.808 81.6208 269.118 81.6982 269.428 81.5434C269.505 81.466 269.66 81.466 269.737 81.466C270.124 81.466 270.434 81.466 270.821 81.466C271.362 81.466 271.981 81.466 272.6 81.5434C273.065 81.5434 273.607 81.6208 274.148 81.5434C274.69 81.3887 275.232 81.3887 275.851 81.3887C276.16 81.466 276.392 81.3887 276.702 81.3887C277.321 81.5434 277.863 81.1565 278.405 81.3113C278.482 81.3113 278.637 81.2339 278.714 81.2339C279.101 81.2339 279.488 81.1565 279.798 81.0791C280.417 81.0791 280.958 81.1565 281.577 81.1565C281.732 81.1565 281.81 81.1565 281.964 81.1565C282.351 81.1565 282.738 81.3113 283.125 81.0791C283.203 81.0791 283.28 81.1565 283.357 81.1565C283.512 81.1565 283.667 81.2339 283.822 81.1565C284.209 80.9243 284.596 81.0791 284.983 81.0791C285.447 81.0791 285.834 81.1565 286.298 81.1565C286.376 81.1565 286.376 81.0791 286.453 81.0791C286.685 80.8469 286.917 80.6148 287.227 80.46C287.459 80.3052 287.536 80.0731 287.614 79.8409C287.614 79.8409 287.614 79.7635 287.691 79.6861C287.691 79.3766 287.769 78.9896 287.846 78.6801C287.846 78.061 287.846 78.8349 287.846 78.2157L287.923 78.1384C287.923 77.9836 287.923 77.8288 287.923 77.674C287.923 77.3645 287.923 77.0549 287.923 76.7454C287.923 76.4358 288.078 76.1263 288.155 75.8167C288.155 75.4298 288.078 75.0428 288.078 74.6559C288.078 74.4237 288.155 74.1142 288.155 73.882C288.233 73.0308 288.233 72.1795 288.233 71.4056C288.233 71.2508 288.233 71.1734 288.233 71.0187C288.233 70.3222 288.233 69.6257 288.233 68.9292C288.233 68.8518 288.233 68.7744 288.155 68.7744ZM333.365 84.9485C333.365 84.7163 333.288 84.4842 333.21 84.252C333.133 83.7877 333.133 83.3234 332.978 82.859C332.746 82.0851 332.514 81.3113 332.204 80.46C332.127 80.2278 332.05 79.9957 331.895 79.7635C331.663 79.2218 331.353 78.7575 331.044 78.2157C330.811 77.7514 330.579 77.2871 330.192 76.8228C329.883 76.3584 329.496 75.8941 329.109 75.4298C328.722 74.9655 328.412 74.5011 328.025 74.0368C328.025 73.9594 327.871 73.882 327.793 73.882C327.716 73.7272 327.484 73.6499 327.406 73.5725C327.097 73.2629 326.865 72.9534 326.555 72.7212C326.013 72.3343 325.317 71.9473 324.698 71.6378C324.156 71.2508 323.614 70.9413 322.995 70.6317C322.531 70.3996 322.221 70.09 321.757 69.9352C320.441 69.3935 319.048 68.9292 317.733 68.4649C316.417 68.0005 315.102 67.691 313.786 67.4588C313.012 67.304 312.238 66.9945 311.387 66.9945C310.923 66.9945 310.381 66.8397 309.839 66.8397C308.833 66.9171 307.905 66.6075 306.898 66.8397C306.821 66.8397 306.744 66.8397 306.666 66.8397C306.279 66.8397 305.892 66.7623 305.505 66.7623C305.041 66.7623 304.499 66.7623 304.035 66.7623C303.648 66.7623 303.184 66.7623 302.797 66.7623C301.946 66.7623 301.094 66.7623 300.243 66.6849C299.469 66.6849 298.695 66.6849 297.921 66.6849C297.612 66.6849 297.302 66.6849 296.915 66.6849C296.451 66.6849 295.909 66.6849 295.445 66.6075C294.903 66.6075 294.516 66.6849 294.052 66.9171C293.975 66.9945 293.897 67.0719 293.897 67.1493C293.51 67.691 293.356 68.3101 293.356 68.9292C293.356 69.7805 293.356 70.6317 293.356 71.4056C293.356 71.7925 293.356 72.1795 293.356 72.5664C293.356 72.9534 293.433 73.4177 293.433 73.8046C293.433 74.1142 293.51 74.3463 293.51 74.5785C293.51 75.4298 293.278 76.281 293.588 77.1323C293.588 77.2097 293.588 77.2871 293.588 77.4419C293.51 77.7514 293.433 78.1384 293.433 78.5253C293.51 79.1444 293.51 79.7635 293.51 80.3052C293.51 81.0791 293.51 81.853 293.51 82.5495C293.51 82.9364 293.51 83.3234 293.588 83.6329C293.588 83.9425 293.588 84.252 293.588 84.5616C293.588 85.0259 293.588 85.4128 293.588 85.7998C293.588 86.2641 293.51 86.7284 293.51 87.1154C293.51 87.6571 293.51 88.1214 293.51 88.6631C293.51 89.1275 293.51 89.5918 293.51 90.0561C293.51 90.83 293.588 91.6039 293.588 92.3004C293.588 92.8421 293.51 93.3838 293.51 93.8481C293.51 94.8542 293.588 95.8602 293.588 96.8663C293.588 97.6401 293.588 98.414 293.588 99.1105C293.588 99.7296 293.588 100.271 293.665 100.89C293.665 101.355 293.665 101.896 293.665 102.361C293.588 102.825 293.51 103.289 293.588 103.754C293.665 104.373 293.742 104.915 293.742 105.456C293.665 106.308 293.665 107.081 293.665 107.855C293.665 108.552 293.665 109.171 293.665 109.867C293.665 110.796 293.665 111.725 293.665 112.653C293.665 113.427 293.588 114.201 293.742 114.975C293.82 115.517 293.742 116.136 293.742 116.755C293.742 116.987 293.665 117.219 293.665 117.451C293.742 117.684 293.82 117.916 293.975 117.993C294.207 118.225 294.594 118.38 294.981 118.303C295.445 118.303 295.987 118.303 296.451 118.303C296.993 118.303 297.612 118.225 298.154 118.225C298.541 118.225 298.927 118.303 299.392 118.303C299.624 118.303 299.856 118.38 300.088 118.38C300.553 118.38 300.94 118.303 301.404 118.38C301.868 118.458 302.41 118.38 302.874 118.38C303.339 118.38 303.803 118.458 304.267 118.458C304.577 118.458 304.886 118.38 305.273 118.38C305.738 118.38 306.279 118.458 306.821 118.458C307.285 118.38 307.905 118.38 308.137 117.838C308.291 117.451 308.446 117.065 308.446 116.6C308.524 115.052 308.446 113.505 308.446 111.88C308.446 111.183 308.446 110.487 308.446 109.867C308.446 108.939 308.678 108.088 308.524 107.236C308.446 106.849 308.601 106.772 308.988 106.772C309.22 106.772 309.375 106.772 309.607 106.772C309.917 106.695 310.304 106.695 310.613 106.617C310.845 106.617 311 106.617 311.155 106.617C311.774 106.54 312.316 106.385 312.935 106.308C313.244 106.23 313.554 106.153 313.863 105.998C314.173 105.998 314.405 105.921 314.637 105.843C314.792 105.843 315.024 105.843 315.179 105.766C315.411 105.534 315.721 105.534 316.03 105.456C316.572 105.302 317.114 105.147 317.655 104.915C317.965 104.837 318.197 104.682 318.429 104.528C318.739 104.45 319.048 104.296 319.358 104.218C319.513 104.141 319.745 104.063 319.9 104.063C320.441 103.986 320.828 103.676 321.293 103.444C321.447 103.367 321.525 103.135 321.834 103.135C322.299 103.057 322.608 102.748 322.995 102.361C323.305 102.051 323.769 101.819 324.233 101.587C324.388 101.51 324.62 101.355 324.775 101.277C324.93 101.2 325.085 101.123 325.239 100.968C325.472 100.813 325.704 100.581 325.936 100.426C326.091 100.271 326.323 100.194 326.555 100.039C326.865 99.7296 327.252 99.4201 327.561 99.0331C327.561 99.0331 327.561 99.0331 327.638 99.0331C327.793 98.8783 328.025 98.7236 328.18 98.4914C328.335 98.1819 328.567 97.9497 328.877 97.7949C329.031 97.7949 329.109 97.5627 329.186 97.4854C329.264 97.3306 329.418 97.1758 329.496 97.021C329.573 96.8663 329.728 96.7889 329.805 96.6341C329.96 96.4019 329.96 96.015 330.347 96.015C330.424 95.9376 330.424 95.9376 330.424 95.8602C330.579 95.628 330.811 95.3959 330.889 95.1637C331.044 94.7768 331.353 94.3898 331.508 93.9255C331.817 93.0742 332.282 92.3004 332.669 91.4491C332.746 91.2943 332.746 91.0622 332.823 90.9074C332.901 90.5978 332.978 90.3657 333.056 90.0561C333.056 89.9787 333.133 89.8239 333.133 89.7466C333.21 89.5144 333.21 89.2822 333.288 89.0501C333.288 88.8179 333.365 88.6631 333.365 88.431C333.365 88.044 333.365 87.5797 333.365 87.1928C333.443 86.8058 333.443 86.4189 333.443 86.0319C333.443 85.7224 333.365 85.3354 333.365 84.9485ZM317.965 89.437C317.655 89.9013 317.268 90.2883 316.882 90.6752C316.882 90.7526 316.727 90.83 316.649 90.9074C316.262 91.1395 315.875 91.3717 315.411 91.6813C315.334 91.7586 315.256 91.836 315.179 91.836C314.328 92.1456 313.476 92.5325 312.625 92.7647C312.006 92.9195 311.31 92.9969 310.613 93.0742C310.226 93.1516 309.762 93.229 309.297 93.3064C309.143 93.3064 308.911 93.229 308.678 93.229C308.678 92.9195 308.678 92.6873 308.678 92.4551C308.678 92.3004 308.756 92.1456 308.678 91.9908C308.446 91.1395 308.756 90.2883 308.678 89.437C308.678 88.6631 308.678 87.9666 308.678 87.1928C308.756 86.5737 308.756 85.8772 308.756 85.2581C308.756 84.8711 308.756 84.5616 308.678 84.1746C308.678 83.7103 308.678 83.1686 308.678 82.7043C308.678 82.1625 308.756 81.6208 308.756 81.0017C308.756 80.8469 308.756 80.6922 308.756 80.46C309.22 80.5374 309.607 80.5374 309.994 80.6148C310.458 80.6148 311 80.6922 311.464 80.8469C311.929 80.9243 312.316 81.0791 312.78 81.2339C313.167 81.3887 313.554 81.5434 313.941 81.6982C314.25 81.853 314.482 82.0078 314.792 82.1625C314.947 82.2399 315.024 82.3947 315.179 82.4721C315.953 82.6269 316.417 83.246 316.959 83.7877C317.268 84.0972 317.578 84.3294 317.81 84.7163C318.274 85.4128 318.584 86.2641 318.661 87.1154C318.661 87.2701 318.661 87.4249 318.739 87.6571C318.739 88.3536 318.429 88.8953 317.965 89.437ZM402.341 98.5688C402.341 98.414 402.341 98.2592 402.341 98.1045L402.264 97.9497C402.264 97.8723 402.264 97.7175 402.264 97.6401C402.264 97.408 402.187 97.0984 402.187 96.8663C402.032 96.0924 401.8 95.3959 401.49 94.7768C401.258 94.2351 401.103 93.7707 400.948 93.229C400.871 92.9195 400.716 92.6099 400.639 92.3004C400.562 92.1456 400.484 91.9908 400.407 91.836C400.407 91.7586 400.329 91.6813 400.329 91.6813C400.175 91.3717 400.02 90.9848 399.865 90.6752C399.71 90.3657 399.555 90.0561 399.401 89.7466C399.401 89.6692 399.323 89.5918 399.246 89.5144C399.246 89.437 399.246 89.437 399.246 89.437C398.936 88.7405 398.472 88.1988 398.008 87.7345C397.93 87.6571 397.93 87.5797 397.853 87.5797C397.621 87.2701 397.311 87.038 397.002 86.8058C397.002 86.7284 396.924 86.7284 396.924 86.7284C397.002 86.5737 397.079 86.4189 397.079 86.3415C397.234 86.0319 397.389 85.7224 397.543 85.3354C397.698 84.9485 397.853 84.5616 398.085 84.1746C398.085 84.0198 398.162 83.8651 398.24 83.7877C398.24 83.6329 398.24 83.5555 398.24 83.4781C398.317 83.4007 398.317 83.246 398.395 83.0912C398.472 82.859 398.549 82.6269 398.627 82.3947C398.627 82.3173 398.627 82.1625 398.704 82.0078C398.704 81.9304 398.704 81.853 398.704 81.7756C398.704 81.6982 398.704 81.6208 398.704 81.5434C398.782 81.3887 398.782 81.1565 398.782 81.0017L398.859 80.7696C398.859 80.6922 398.859 80.6148 398.859 80.6148C398.859 80.5374 398.859 80.5374 398.859 80.46C399.091 79.8409 399.169 79.2218 399.091 78.6027V77.9836C399.091 77.4419 399.169 76.8228 399.169 76.2037C399.169 76.0489 399.169 75.8941 399.091 75.8167V75.7393V75.5072C399.014 75.3524 399.014 75.1976 398.936 74.9655C398.936 74.8881 398.936 74.8107 398.936 74.7333C398.859 74.5785 398.859 74.4237 398.782 74.1916C398.782 74.0368 398.704 73.8046 398.627 73.7272C398.549 73.6499 398.549 73.5725 398.549 73.5725C398.472 73.4177 398.395 73.2629 398.317 73.1081C398.317 72.9534 398.24 72.7986 398.162 72.7212C398.162 72.5664 398.085 72.489 398.085 72.489C398.085 72.489 398.085 72.489 398.008 72.489C397.853 71.8699 397.543 71.483 397.156 71.0961C397.079 71.0961 397.079 71.0187 397.002 70.9413L396.924 70.8639C396.924 70.8639 396.924 70.7865 396.847 70.7091C396.77 70.6317 396.692 70.4769 396.615 70.3996C396.46 70.2448 396.383 70.1674 396.305 70.0126C396.228 69.9352 396.15 69.9352 396.073 69.8578C395.918 69.6257 395.763 69.4709 395.531 69.2387C395.222 68.8518 394.835 68.4649 394.448 68.0779C393.519 67.1493 392.358 66.5302 391.198 65.9884C390.965 65.8337 390.656 65.7563 390.424 65.6789C390.346 65.6789 390.192 65.6789 390.114 65.6015C390.037 65.6015 389.882 65.5241 389.805 65.5241C389.572 65.4467 389.418 65.3693 389.185 65.3693C389.108 65.2919 388.953 65.2919 388.876 65.2146C388.644 65.1372 388.412 65.0598 388.179 64.9824C387.947 64.905 387.715 64.905 387.483 64.8276C387.173 64.8276 386.864 64.7502 386.709 64.6728C386.167 64.4407 385.703 64.4407 385.239 64.3633H385.161C384.929 64.3633 384.697 64.3633 384.387 64.2859C383.923 64.1311 383.459 64.0537 382.994 64.0537C382.608 64.0537 382.298 64.0537 381.911 64.0537C381.524 64.0537 381.137 64.0537 380.828 64.0537C379.899 64.1311 379.048 64.2085 378.119 64.2859C377.655 64.3633 377.113 64.4407 376.571 64.5955C376.107 64.6728 375.488 64.6728 375.101 65.0598H375.023C374.404 65.1372 373.863 65.3693 373.398 65.6789C373.166 65.7563 372.934 65.8337 372.702 65.9884C372.315 66.1432 371.928 66.298 371.541 66.5302C371.231 66.6849 370.999 66.9171 370.69 66.9945C370.303 67.1493 369.993 67.304 369.838 67.691C369.838 67.691 369.838 67.691 369.838 67.7684C369.761 67.8458 369.684 67.9231 369.606 67.9231C369.374 68.0779 369.065 68.2327 368.832 68.4649C368.291 68.8518 367.749 69.3161 367.285 69.7805C367.207 69.8578 367.207 69.9352 367.13 69.9352C366.898 70.1674 366.743 70.3996 366.588 70.5543C366.279 70.7865 366.046 71.0187 365.814 71.4056C365.737 71.5604 365.505 71.7152 365.35 71.9473C365.118 72.4116 364.653 72.7212 364.576 73.2629C364.576 73.2629 364.576 73.2629 364.499 73.2629C364.189 73.4951 364.034 73.882 363.802 74.1916C363.57 74.5785 363.261 75.0428 363.106 75.4298C363.028 75.6619 362.951 75.8167 362.874 75.9715C362.564 76.7454 362.1 77.4419 361.945 78.2931C361.945 78.5253 361.945 78.7575 361.868 78.9122C361.79 79.3766 361.635 79.7635 361.481 80.2278C361.403 80.5374 361.403 80.7696 361.326 81.0791C361.171 81.466 361.016 81.853 361.094 82.3173C361.094 82.3947 361.016 82.4721 361.016 82.5495C360.939 83.1686 361.016 83.7877 361.481 84.1746C361.635 84.4068 361.713 84.5616 361.635 84.7163C361.558 84.9485 361.635 85.1033 361.635 85.2581C361.79 85.3354 361.868 85.3354 361.945 85.4128C362.022 85.4128 362.022 85.4902 362.1 85.4902L369.065 85.8772C369.219 85.8772 369.452 85.9545 369.606 85.9545L371.154 86.0319C371.541 86.0319 371.851 86.0319 372.16 85.9545C373.011 85.8772 373.863 85.7998 374.559 85.4128C374.714 85.3354 374.869 85.2581 374.946 85.1807C375.178 84.5616 375.41 83.7103 375.875 82.6269C376.339 81.466 376.649 80.8469 377.036 80.46C377.964 79.6087 379.125 79.5313 380.131 79.454C381.06 79.3766 381.524 79.5313 381.679 79.6087C382.143 79.8409 382.453 80.1504 382.685 80.46C382.994 80.7696 383.149 80.8469 383.459 81.3113C383.536 81.3887 383.614 81.466 383.691 81.6208C383.768 81.6982 383.768 81.7756 383.846 81.9304C383.846 82.1625 383.846 82.3947 383.768 82.5495V82.7043V82.7816C383.768 82.859 383.768 82.9364 383.768 83.0138C383.691 83.4007 383.536 83.7103 383.149 84.0972C382.994 84.252 382.685 84.4842 382.453 84.639C381.911 85.2581 381.215 85.7224 380.518 86.0319C379.667 86.3415 378.893 86.4189 378.042 86.4189C378.042 86.4189 378.042 86.4963 377.964 86.4963C377.964 87.1154 378.042 87.7345 378.042 88.2762C378.042 89.2822 378.042 90.2883 378.042 91.2169C378.274 91.5265 378.583 91.7586 378.97 91.9908C379.667 92.0682 380.208 92.1456 380.75 92.3778C381.215 92.5325 381.601 92.6873 381.988 92.9969H382.066L382.143 93.0742H382.221C382.298 93.0742 382.375 93.1516 382.453 93.1516C382.685 93.3064 382.994 93.4612 383.304 93.7707C383.536 94.0803 383.768 94.3898 384 94.7768L384.078 94.8542C384.155 94.9316 384.233 95.0863 384.233 95.1637C384.31 95.3185 384.387 95.4733 384.465 95.628C384.542 95.7828 384.62 95.8602 384.697 95.9376C384.774 96.015 384.852 96.0924 384.852 96.1698C385.007 96.4019 385.084 96.7115 385.239 96.9436C385.239 97.0984 385.316 97.2532 385.316 97.408C385.316 97.4854 385.393 97.5627 385.393 97.7175C385.393 97.7949 385.393 97.8723 385.393 97.9497C385.393 98.1045 385.393 98.1819 385.471 98.3366C385.471 98.8783 385.548 99.3427 385.471 99.807C385.471 99.9618 385.471 100.039 385.471 100.117C385.471 100.426 385.393 100.736 385.316 100.813C385.161 100.968 385.084 101.123 385.007 101.277C384.62 101.664 384.465 101.974 384.078 102.129C383.846 102.206 383.614 102.361 383.459 102.438C383.304 102.516 383.227 102.593 383.072 102.67C382.762 102.748 382.453 102.903 382.143 102.98C382.066 102.98 382.066 102.98 381.988 102.98L381.834 102.903C381.679 102.903 381.524 102.903 381.292 102.98C381.137 102.98 380.982 102.98 380.828 102.98C380.441 102.98 380.131 102.903 379.744 102.67C379.744 102.67 379.667 102.67 379.589 102.593C379.512 102.516 379.357 102.438 379.202 102.361C378.893 102.206 378.583 101.974 378.274 101.819C377.655 101.51 377.19 101.045 376.571 100.194C376.494 100.039 376.416 99.9618 376.339 99.807C376.184 99.4974 375.952 99.1879 375.72 98.8783C375.41 98.4914 375.101 98.1045 374.869 97.5627V97.4854C374.869 97.408 374.869 97.2532 374.869 97.1758C374.637 96.9436 374.559 96.6341 374.637 96.3245C374.637 96.1698 374.559 96.015 374.559 95.8602C373.863 95.7054 373.244 95.5507 372.547 95.5507C372.083 95.5507 371.618 95.628 371.077 95.628C370.612 95.5507 370.148 95.5507 369.684 95.5507C368.678 95.5507 367.749 95.628 366.82 95.628C365.814 95.628 364.808 95.5507 363.88 95.4733C363.415 95.4733 362.951 95.4733 362.487 95.5507C362.022 95.5507 361.635 95.628 361.248 95.628C361.171 95.7054 361.171 95.7828 361.094 95.8602C360.629 96.2472 360.397 96.7889 360.397 97.408C360.397 97.4854 360.397 97.5627 360.397 97.6401C360.32 98.1045 360.397 98.4914 360.475 98.8783C360.552 99.1879 360.475 99.4974 360.552 99.807C360.629 100.194 360.707 100.658 360.707 101.123C360.784 101.277 360.707 101.51 360.707 101.742C360.707 102.593 361.094 103.367 361.248 104.141C361.403 104.837 361.635 105.456 361.945 106.075C362.1 106.462 362.177 106.849 362.487 107.081V107.159C362.564 107.701 362.951 108.088 363.106 108.552C363.183 108.784 363.415 108.939 363.493 109.171C363.647 109.481 363.88 109.79 364.112 110.1C364.267 110.254 364.421 110.487 364.576 110.719C364.653 110.796 364.653 110.873 364.653 110.951C365.118 111.493 365.582 112.034 366.046 112.499C366.201 112.731 366.511 112.886 366.743 113.118C366.82 113.195 366.898 113.273 366.898 113.35C366.975 113.814 367.285 114.046 367.672 114.201C367.981 114.356 368.136 114.665 368.446 114.82C368.755 115.052 369.142 115.285 369.452 115.517C369.684 115.672 369.916 115.749 370.148 115.904C370.535 116.291 371.077 116.6 371.618 116.755C371.696 116.755 371.696 116.755 371.696 116.832C372.083 117.219 372.624 117.297 373.089 117.451C373.63 117.684 374.095 117.838 374.637 117.993C375.488 118.225 376.339 118.458 377.268 118.612C377.732 118.69 378.351 118.69 378.893 118.767C379.202 118.844 379.589 118.844 379.899 118.844C380.054 118.844 380.286 118.844 380.441 118.844C380.595 118.922 380.673 118.922 380.828 118.922C380.905 118.922 380.982 118.922 381.137 118.922C381.292 118.922 381.447 118.922 381.601 118.922C381.756 118.922 381.911 118.922 382.066 118.922C382.221 118.922 382.375 118.922 382.53 118.922C382.608 118.922 382.685 118.922 382.762 118.922C382.917 118.922 382.994 118.922 383.072 118.922C383.149 118.922 383.227 118.999 383.381 118.999C383.614 118.999 383.923 118.999 384.233 118.922C385.007 118.844 385.78 118.69 386.477 118.535C386.709 118.535 386.941 118.458 387.096 118.38H387.173C387.638 118.303 388.179 118.225 388.644 118.071C389.263 117.838 389.959 117.606 390.578 117.451L390.656 117.374C390.965 117.297 391.198 117.142 391.352 117.065H391.43C391.662 116.91 391.971 116.755 392.281 116.6L392.591 116.368H392.668C392.745 116.291 392.745 116.291 392.823 116.213C393.055 116.136 393.21 115.981 393.442 115.904C393.906 115.594 394.448 115.285 394.912 114.975L395.067 114.898C395.686 114.511 396.383 114.046 396.924 113.273C397.389 112.963 397.698 112.576 398.008 112.189C398.162 111.957 398.317 111.802 398.472 111.57C398.859 111.028 399.246 110.409 399.71 109.867C399.865 109.635 399.942 109.403 400.02 109.171C400.02 109.094 400.097 109.016 400.097 109.016C400.175 108.861 400.175 108.707 400.252 108.552C400.484 108.088 400.716 107.546 400.871 106.927C401.026 106.695 401.103 106.385 401.181 106.153C401.181 105.921 401.258 105.766 401.335 105.611C401.413 105.456 401.413 105.302 401.49 105.147C401.645 104.837 401.722 104.528 401.8 104.218C402.032 103.444 402.187 102.67 402.341 101.819C402.574 100.503 402.574 99.4974 402.341 98.5688Z" fill="#FCFCFC"/>
</svg>
