<svg width="484" height="222" viewBox="0 0 484 222" fill="none" xmlns="http://www.w3.org/2000/svg">
<path d="M3.14551 122.981L102.54 221.069H451.319L352.025 122.981L451.319 24.9915H102.54L3.14551 122.981Z" fill="#0F0F0F"/>
<path d="M35.0981 98.0882L134.392 196.077H483.271L383.877 98.0882L483.271 0H134.392L35.0981 98.0882Z" fill="#FE7624"/>
<path d="M3 109.436L104.594 209.596H458.373L356.879 109.436L458.373 9.27588H104.594L3 109.436Z" stroke="#205EFF" stroke-width="3.8224" stroke-miterlimit="10"/>
<path d="M141.798 111.602C141.721 110.983 141.721 110.364 141.721 109.745V109.668C141.721 109.358 141.721 109.049 141.721 108.662C141.721 108.352 141.644 108.12 141.566 108.043L141.411 107.423C141.257 106.882 141.102 106.34 140.947 105.798C140.87 105.644 140.792 105.334 140.715 105.102C140.405 104.638 140.173 104.173 139.941 103.709L139.786 103.399C139.709 103.245 139.631 103.167 139.554 103.012C139.322 102.625 139.167 102.238 138.935 101.852C138.78 101.619 138.625 101.387 138.471 101.232C138.316 101 138.161 100.768 138.084 100.536C137.774 99.8395 137.31 99.3751 136.923 98.9108C136.691 98.756 136.536 98.5239 136.381 98.3691C136.304 98.2917 136.226 98.1369 136.072 98.0595C135.917 97.9048 135.839 97.8274 135.685 97.6726C135.298 97.363 134.911 97.0535 134.524 96.7439C134.214 96.5118 133.827 96.2022 133.44 95.9701C133.131 95.8153 132.899 95.6605 132.589 95.5831C132.434 95.5057 132.28 95.4283 132.202 95.351C132.125 95.2736 132.047 95.2736 131.893 95.1962C131.815 95.1188 131.583 94.964 131.351 94.8866C130.964 94.6545 130.577 94.4997 130.113 94.2675C130.035 94.1901 129.881 94.1127 129.726 94.1127C129.648 94.0354 129.648 94.0354 129.571 94.0354C129.339 93.8806 128.952 93.6484 128.488 93.571C128.41 93.571 128.333 93.4936 128.255 93.4936C127.868 93.3389 127.404 93.1067 126.708 93.0293C126.243 92.8745 125.779 92.7198 125.392 92.6424C125.16 92.565 125.005 92.4876 124.773 92.4876C124.696 92.4876 124.541 92.4876 124.463 92.565C124.386 92.565 124.231 92.565 124.154 92.565C123.922 92.6424 123.767 92.6424 123.612 92.6424C123.612 92.6424 123.612 92.6424 123.535 92.6424C122.606 92.2554 121.755 92.1007 120.904 91.9459C120.826 91.9459 120.826 91.9459 120.749 91.9459H120.671C120.439 91.7911 120.207 91.7137 119.897 91.5589C119.82 91.4816 119.743 91.4816 119.665 91.4042C119.433 91.172 119.201 90.9398 119.046 90.7077C119.046 90.6303 119.046 90.6303 119.046 90.6303C118.969 90.4755 118.814 90.0886 118.504 89.779L118.427 89.7016C118.427 89.6242 118.35 89.4695 118.35 89.3921C118.35 89.2373 118.35 89.0825 118.427 88.9278C118.427 88.8504 118.427 88.773 118.427 88.6182C118.427 88.5408 118.427 88.2313 118.504 88.0765C118.737 87.9991 118.969 87.8443 119.201 87.6895C119.278 87.6895 119.278 87.6122 119.356 87.6122C119.511 87.5348 119.588 87.4574 119.743 87.38C119.897 87.38 119.975 87.3026 120.052 87.3026C120.284 87.2252 120.594 87.1478 120.904 87.0704C121.445 86.9931 121.987 87.0704 122.451 87.38C123.07 87.38 123.612 87.4574 124.154 87.6895C124.928 87.9991 125.315 88.6956 125.547 89.3921C125.702 89.7016 125.779 90.0112 125.934 90.3207C125.934 90.3207 125.934 90.3981 126.011 90.3981C126.089 90.5529 126.166 90.6303 126.166 90.7851C126.243 90.7851 126.243 90.7851 126.243 90.7851C126.243 90.8625 126.243 90.9398 126.321 90.9398C126.321 91.0172 126.321 91.0946 126.398 91.0946C126.475 91.172 126.475 91.2494 126.475 91.3268C126.862 91.8685 127.559 92.2554 128.333 92.4102C129.261 92.4876 130.19 92.565 131.119 92.565C131.274 92.565 131.351 92.565 131.506 92.565C131.97 92.565 132.357 92.565 132.744 92.565C133.131 92.565 133.518 92.565 133.905 92.565H133.982C134.137 92.565 134.446 92.565 134.679 92.565C134.911 92.6424 135.143 92.6424 135.452 92.6424H135.53C136.072 92.6424 136.613 92.7198 137.232 92.7198C137.31 92.7198 137.387 92.7198 137.542 92.7198C138.238 92.7198 138.935 92.4102 139.477 91.8685C140.018 91.2494 139.09 90.5529 139.012 89.8564C138.935 89.779 138.935 89.7016 138.935 89.6242C138.858 89.3147 138.858 89.0825 138.858 88.8504C138.703 87.6122 138.625 86.4513 138.161 85.2905C138.084 85.2131 138.006 85.0583 138.006 84.981C137.774 84.4392 137.542 83.8201 137.232 83.2784C136.923 82.6593 136.459 82.0402 136.072 81.4211C135.53 80.802 135.143 80.2603 134.679 79.796C134.446 79.4864 134.137 79.1769 133.827 78.8673C133.44 78.5578 133.131 78.2482 132.899 77.9387C132.28 77.2422 131.506 76.6231 130.422 76.1587C129.184 75.4622 127.791 75.0753 126.553 74.7657C126.321 74.6884 126.166 74.6884 126.011 74.611C125.315 74.3788 124.541 74.224 123.612 74.1466C123.457 74.0693 123.225 74.0693 123.07 74.0693C122.219 73.9145 121.368 73.7597 120.439 73.7597C120.362 73.7597 120.207 73.7597 120.13 73.8371C119.588 73.6049 119.124 73.5275 118.814 73.5275C118.737 73.5275 118.659 73.5275 118.659 73.5275H118.504H118.35C118.272 73.5275 118.195 73.5275 118.118 73.5275H118.04C117.885 73.5275 117.653 73.6049 117.421 73.6049C116.338 73.6823 115.409 73.9919 114.635 74.3014C114.48 74.3014 114.326 74.3788 114.171 74.4562C113.861 74.5336 113.552 74.6884 113.397 74.8431C113.319 74.8431 113.242 74.8431 113.165 74.9205C113.01 74.9979 112.778 75.0753 112.546 75.2301C112.159 75.4622 111.772 75.617 111.385 75.7718C110.147 76.2361 109.063 76.9326 108.057 77.7839C107.593 78.1708 107.051 78.6351 106.587 79.0221C106.122 79.409 105.426 80.0281 104.962 80.9568C104.884 81.1889 104.729 81.4985 104.575 81.7307C104.42 81.9628 104.188 82.2724 104.11 82.5045C103.723 83.1237 103.569 83.6654 103.414 84.1297C103.259 84.594 103.182 85.0583 103.104 85.5227C103.104 85.6001 103.027 85.7548 103.027 85.8322C103.027 85.987 102.95 86.0644 102.95 86.2192C102.872 86.6835 102.717 87.1478 102.717 87.6895C102.795 88.386 102.795 89.0051 102.872 89.6242C102.872 89.9338 102.95 90.166 102.95 90.3981C102.95 90.4755 102.95 90.5529 102.95 90.7077C102.95 90.8625 103.027 91.0172 103.027 91.172C103.027 91.9459 103.259 92.6424 103.491 93.2615C103.646 93.4936 103.801 93.6484 103.878 93.8032C103.878 93.8806 103.956 93.8806 103.956 93.958L104.033 94.0354C104.188 94.8866 104.575 95.5831 105.271 96.1248C105.813 96.6666 106.355 97.2083 106.896 97.9048C107.206 98.3691 107.515 98.6786 107.825 98.9882C107.902 99.0656 107.98 99.143 108.057 99.2204C108.289 99.4525 108.599 99.6073 108.754 99.7621C108.831 99.7621 108.908 99.8395 108.908 99.8395C108.986 99.9168 109.063 99.9168 109.141 99.9942C109.218 100.072 109.295 100.149 109.373 100.226C109.527 100.304 109.605 100.381 109.76 100.459C110.069 100.691 110.456 101 110.92 101.232C111.54 101.542 112.236 101.774 112.855 102.006C113.319 102.161 113.784 102.316 114.171 102.393C114.403 102.471 114.635 102.548 114.79 102.625C115.177 102.703 115.641 102.858 116.028 103.012C116.105 103.012 116.183 103.09 116.26 103.09C116.338 103.167 116.492 103.245 116.725 103.322C116.957 103.399 117.112 103.399 117.266 103.477C117.344 103.477 117.421 103.477 117.498 103.554C118.118 103.941 118.737 104.173 119.278 104.251C119.433 104.328 119.665 104.405 119.82 104.405C120.13 104.56 120.439 104.638 120.671 104.715C120.749 104.715 120.904 104.792 120.981 104.792C121.29 105.024 121.6 105.179 121.677 105.179C121.832 105.257 121.987 105.257 122.064 105.334C122.219 105.411 122.529 105.489 122.529 105.566C122.916 105.876 123.303 106.03 123.535 106.108C123.767 106.34 123.999 106.65 124.309 106.882C124.386 106.959 124.463 107.037 124.463 107.114C124.541 107.114 124.618 107.191 124.618 107.269C124.696 107.346 124.773 107.501 124.773 107.656C125.16 108.43 125.469 109.203 125.469 109.9C125.392 110.906 125.237 111.68 125.005 112.454C125.005 112.454 125.005 112.454 124.928 112.531C124.696 112.686 124.309 112.918 123.999 113.305C123.922 113.382 123.767 113.382 123.767 113.46L123.535 113.537C122.993 113.769 122.451 114.001 121.987 114.156C121.832 114.234 121.677 114.234 121.677 114.234C121.368 114.156 121.136 114.079 120.904 114.001C120.671 113.924 120.439 113.847 120.284 113.769C120.052 113.692 119.82 113.615 119.588 113.537C119.201 113.382 118.891 113.228 118.504 113.15C118.427 113.073 118.272 112.918 118.195 112.841C118.118 112.763 118.04 112.686 117.963 112.608C117.808 112.376 117.576 112.067 117.189 111.835C116.879 111.525 116.725 111.138 116.492 110.442C116.415 110.055 116.338 109.745 116.26 109.436C116.183 108.971 116.028 108.43 115.873 107.965C115.641 107.037 114.79 106.417 113.629 106.417C113.552 106.417 113.552 106.417 113.474 106.417C113.242 106.417 113.01 106.417 112.7 106.417C112.546 106.417 112.391 106.417 112.236 106.417C112.081 106.417 111.927 106.417 111.849 106.417C111.694 106.417 111.54 106.417 111.462 106.417C110.92 106.417 110.534 106.417 110.069 106.417C109.527 106.417 108.986 106.34 108.521 106.34C107.902 106.263 107.283 106.263 106.664 106.185C106.432 106.185 106.122 106.185 105.813 106.185C105.581 106.185 105.349 106.185 105.116 106.185C104.962 106.185 104.807 106.185 104.575 106.185C104.497 106.185 104.342 106.185 104.265 106.263C103.801 106.108 103.414 106.108 102.95 106.108C102.563 106.108 102.176 106.108 101.789 106.185C101.17 106.34 100.628 106.495 100.241 106.804C100.241 107.346 100.164 107.888 100.164 108.43C100.086 110.287 100.086 112.222 100.473 114.079C100.55 114.698 100.705 115.317 100.86 115.859C100.86 115.936 100.86 115.936 100.937 116.014C101.015 116.168 101.092 116.246 101.17 116.4C101.247 116.478 101.324 116.555 101.324 116.633C101.402 116.71 101.402 116.71 101.402 116.787C101.634 117.716 102.021 118.413 102.64 119.032C102.717 119.186 102.795 119.341 102.95 119.496C103.027 119.573 103.104 119.728 103.182 119.806C103.259 119.96 103.336 120.038 103.414 120.115V120.193C103.723 120.502 103.956 120.889 104.265 121.199C104.575 121.508 104.807 121.74 105.116 121.972C105.194 122.05 105.349 122.205 105.426 122.282C105.503 122.282 105.581 122.359 105.658 122.437C105.968 122.746 106.355 123.133 107.051 123.443C107.128 123.52 107.206 123.598 107.283 123.675C107.748 124.062 108.289 124.604 109.063 124.913C109.218 124.991 109.45 125.068 109.527 125.145C110.301 125.842 111.153 126.229 111.927 126.538C112.081 126.693 112.313 126.77 112.468 126.848C113.165 127.157 113.861 127.39 114.48 127.622C114.79 127.699 115.022 127.777 115.254 127.854C116.26 128.163 117.266 128.241 118.195 128.241C118.427 128.318 118.737 128.318 119.046 128.318C119.356 128.318 119.82 128.396 120.207 128.473C120.671 128.628 120.981 128.628 121.368 128.628C121.677 128.628 121.987 128.628 122.297 128.55H122.374C122.451 128.55 122.451 128.55 122.529 128.55C122.683 128.55 122.838 128.55 122.993 128.55C123.38 128.55 123.767 128.55 124.154 128.473C124.541 128.473 125.16 128.396 125.702 128.086C125.934 128.009 126.243 127.931 126.63 127.854C126.63 127.854 126.708 127.854 126.785 127.854C127.249 127.777 127.791 127.699 128.333 127.544C128.874 127.312 129.261 127.157 129.726 126.925C129.881 126.848 130.035 126.77 130.19 126.693C130.422 126.616 130.577 126.538 130.809 126.461C131.274 126.306 131.815 126.074 132.357 125.764C132.434 125.687 132.589 125.61 132.744 125.532C133.363 125.223 134.137 124.836 134.833 124.217C134.988 124.062 135.298 123.83 135.53 123.675C135.917 123.443 136.304 123.133 136.613 122.824C137.465 121.972 138.161 121.199 138.78 120.502C139.244 119.883 139.554 119.186 139.786 118.567C139.786 118.49 139.864 118.413 139.864 118.335C139.941 118.103 140.018 117.948 140.096 117.793C140.251 117.407 140.405 117.097 140.56 116.865C141.102 116.091 141.411 115.24 141.566 114.388C141.566 114.156 141.566 113.924 141.644 113.615C141.721 112.995 141.798 112.376 141.798 111.602ZM188.989 85.3679C188.989 85.0583 188.989 84.7488 188.989 84.4392C188.989 83.9749 188.989 83.588 188.989 83.1237C188.989 82.7367 188.989 82.3498 188.989 81.9628C188.989 81.8081 188.989 81.6533 188.989 81.4985C188.911 81.1889 188.834 80.9568 188.911 80.7246C188.911 80.1055 188.989 79.4864 188.989 78.8673C188.989 78.3256 188.989 77.7839 188.989 77.2422C188.989 76.7004 189.066 76.1587 189.066 75.617C189.066 75.5396 188.989 75.3848 188.911 75.3075C188.447 75.0753 188.06 74.7657 187.441 74.9205C187.054 74.9979 186.59 74.9979 186.125 74.9979C185.738 74.9205 185.274 74.9205 184.887 74.9205C184.191 74.8431 183.571 74.9205 182.875 74.8431C182.643 74.8431 182.333 74.8431 182.101 74.8431C181.637 74.8431 181.172 74.8431 180.631 74.8431C180.476 74.8431 180.244 74.8431 180.012 74.8431C179.47 74.9205 178.928 74.9979 178.386 74.9979C177.303 74.9205 176.22 74.7657 175.059 74.9979C174.827 74.9979 174.594 74.9979 174.362 75.0753C174.13 75.0753 173.975 75.0753 173.743 75.0753C173.666 75.0753 173.588 75.1527 173.434 75.1527C172.969 75.1527 172.428 75.0753 171.963 75.0753C171.344 75.0753 170.725 75.1527 170.106 75.1527C169.255 75.1527 168.403 75.0753 167.552 75.0753C167.243 75.0753 166.856 74.9979 166.546 74.9979C165.772 74.9979 164.998 75.0753 164.224 74.8431C163.915 74.7657 163.528 74.8431 163.141 74.8431C162.135 74.9205 161.052 74.8431 160.046 74.7657C159.659 74.6884 159.194 74.611 158.807 74.611C158.111 74.611 157.414 74.6884 156.718 74.6884C156.408 74.7657 156.099 74.7657 155.712 74.7657C155.247 74.6884 154.783 74.611 154.241 74.611C154.009 74.611 153.7 74.611 153.39 74.611C153.081 74.611 152.771 74.5336 152.462 74.611C151.997 74.611 151.533 74.7657 151.146 74.6884C150.759 74.611 150.295 74.611 149.908 74.611C149.211 74.6884 148.515 74.8431 147.818 74.6884C147.663 74.6884 147.431 74.6884 147.277 74.611C146.735 74.5336 146.425 74.9205 146.038 75.1527C145.961 75.2301 145.961 75.3075 145.961 75.3848C145.961 75.8492 145.961 76.2361 145.961 76.7004C145.961 77.1648 145.961 77.6291 145.961 78.0934C145.961 78.5578 146.038 79.0995 146.038 79.5638C146.038 80.0281 146.116 80.4151 146.038 80.8794C146.038 81.2663 145.884 81.6533 146.038 82.0402C146.116 82.1176 146.038 82.195 146.038 82.2724C145.884 82.9689 145.961 83.588 146.038 84.2845C146.038 84.5166 145.961 84.8262 145.961 85.0583C145.961 85.4453 146.038 85.8322 145.961 86.2192C145.961 86.6835 145.806 87.1478 146.193 87.5348V87.6122C146.348 87.9991 146.348 88.3086 146.657 88.6182C146.812 88.6956 146.812 88.8504 146.812 89.0051C146.812 89.3147 147.044 89.3147 147.277 89.3147C147.741 89.2373 148.283 89.2373 148.747 89.2373C149.521 89.2373 150.217 89.3147 150.914 89.3147C151.842 89.3147 152.771 89.3147 153.7 89.3147C153.932 89.3147 154.164 89.3147 154.396 89.3147C154.783 89.3147 155.093 89.2373 155.48 89.2373C156.176 89.3147 156.795 89.3147 157.492 89.3147C158.033 89.3921 158.575 89.3921 159.194 89.3147C159.272 89.3147 159.426 89.3921 159.426 89.5469C159.349 90.0112 159.349 90.5529 159.349 91.0172C159.426 91.7137 159.426 92.3328 159.504 93.0293C159.504 93.571 159.426 94.1127 159.426 94.6545C159.426 94.8092 159.426 95.0414 159.426 95.2736C159.426 95.6605 159.426 96.1248 159.504 96.5118C159.504 97.0535 159.504 97.5952 159.504 98.1369C159.504 98.2917 159.504 98.4465 159.504 98.6013C159.504 98.9882 159.504 99.3751 159.504 99.6847C159.504 99.9168 159.581 100.149 159.581 100.381C159.504 101.155 159.504 101.929 159.426 102.625C159.426 102.935 159.581 103.167 159.581 103.399C159.581 103.941 159.504 104.483 159.426 105.024C159.426 105.721 159.504 106.34 159.504 107.037C159.426 107.888 159.349 108.662 159.581 109.436C159.581 109.513 159.581 109.59 159.581 109.668C159.581 110.055 159.504 110.519 159.504 110.983C159.504 111.061 159.504 111.138 159.504 111.293C159.504 111.757 159.581 112.299 159.581 112.841C159.581 113.228 159.504 113.692 159.504 114.156C159.504 114.543 159.659 115.008 159.581 115.394C159.581 115.781 159.504 116.168 159.581 116.555C159.581 117.097 159.426 117.639 159.659 118.18C159.659 118.258 159.659 118.335 159.659 118.413C159.349 119.186 159.581 119.96 159.504 120.657C159.504 121.199 159.581 121.663 159.581 122.205C159.581 122.437 159.504 122.592 159.581 122.824C159.659 123.365 159.659 123.907 159.581 124.449C159.504 124.913 159.659 125.3 159.813 125.764C160.123 126.229 160.432 126.538 160.974 126.538C162.058 126.538 163.141 126.616 164.224 126.616C165.463 126.616 166.701 126.616 167.939 126.616C168.636 126.616 169.332 126.538 170.029 126.538C170.648 126.538 171.189 126.538 171.731 126.538C171.809 126.616 171.809 126.616 171.809 126.616C172.66 126.616 173.588 126.538 174.517 126.538C174.904 126.461 175.291 126.229 175.291 125.842C175.368 125.068 175.523 124.294 175.523 123.52C175.523 122.669 175.446 121.818 175.446 120.966C175.368 119.419 175.368 117.871 175.368 116.323C175.291 115.627 175.214 114.93 175.214 114.234C175.214 113.537 175.214 112.841 175.214 112.067C175.214 110.829 175.214 109.59 175.059 108.275C174.981 107.191 175.136 106.185 175.059 105.102C174.981 104.173 174.981 103.245 174.981 102.316C174.981 101.542 174.904 100.691 174.904 99.9168C174.904 99.143 174.904 98.3691 174.904 97.5952C174.904 96.6666 174.827 95.8153 174.749 94.964C174.749 93.958 174.749 92.8745 174.749 91.8685C174.672 91.172 174.672 90.5529 174.594 89.8564C174.594 89.6242 174.672 89.5469 174.904 89.5469C175.214 89.5469 175.523 89.6242 175.833 89.6242C177.303 89.5469 178.773 89.5469 180.166 89.5469C180.399 89.5469 180.631 89.6242 180.863 89.6242C181.714 89.5469 182.488 89.5469 183.262 89.5469C184.113 89.5469 184.887 89.5469 185.738 89.5469C186.357 89.5469 186.977 89.4695 187.596 89.4695C187.905 89.4695 188.137 89.6242 188.137 89.1599L188.215 89.0825C188.37 88.6956 188.524 88.386 188.756 87.9991C188.834 87.8443 188.911 87.6895 188.989 87.5348C188.989 87.4574 189.066 87.38 189.066 87.3026C189.066 86.6835 189.066 86.0644 188.989 85.3679ZM232.275 76.8552C232.042 76.4683 231.888 76.0813 231.423 75.9266C230.804 75.617 230.262 75.3848 229.566 75.617C229.489 75.617 229.489 75.617 229.411 75.617C228.869 75.617 228.405 75.617 227.863 75.617C227.476 75.617 227.09 75.5396 226.703 75.5396C226.161 75.5396 225.619 75.5396 225.077 75.5396C224.381 75.617 223.607 75.5396 222.911 75.5396C222.678 75.5396 222.524 75.5396 222.291 75.5396C222.059 75.5396 221.905 75.5396 221.672 75.5396C220.744 75.5396 219.815 75.4622 218.886 75.4622C218.422 75.4622 217.958 75.3848 217.493 75.3848C216.565 75.3848 215.713 75.4622 214.862 75.4622C214.088 75.4622 213.314 75.4622 212.618 75.3848C211.921 75.3075 211.302 75.3848 210.606 75.3848C210.529 75.3848 210.451 75.3848 210.374 75.3848C209.909 75.3075 209.445 75.3075 208.981 75.3075C208.439 75.3075 207.82 75.3075 207.278 75.3075C206.814 75.3075 206.272 75.3075 205.808 75.2301C205.189 75.2301 204.57 75.3075 204.028 75.2301C203.796 75.2301 203.641 75.1527 203.486 75.1527C202.635 75.1527 201.784 75.2301 200.932 75.2301C200.932 75.2301 200.855 75.2301 200.855 75.1527C200.7 75.1527 200.623 75.0753 200.468 75.0753C200.081 75.0753 199.617 75.1527 199.23 75.1527C198.766 75.2301 198.224 75.3075 197.682 75.2301C197.218 75.0753 196.753 75.1527 196.289 75.2301C196.212 75.2301 196.057 75.3075 195.902 75.3075C195.593 75.3075 195.283 75.2301 194.974 75.1527C193.735 75.0753 193.116 76.004 193.194 77.1648C193.271 77.5517 193.194 77.8613 193.194 78.2482C193.194 78.4804 193.116 78.6351 193.116 78.7899C193.116 79.6412 193.194 80.4151 193.194 81.1889C193.194 81.2663 193.194 81.3437 193.194 81.4211C193.194 81.7307 193.271 81.9628 193.271 82.195C193.194 82.7367 193.194 83.2784 193.116 83.8201C193.116 84.1297 193.116 84.3619 193.194 84.6714C193.271 85.0583 193.348 85.4453 193.194 85.8322C193.116 85.9096 193.116 86.0644 193.116 86.2192C193.194 86.4513 193.194 86.6835 193.194 86.8383C193.194 87.5348 193.194 88.1539 193.194 88.8504C193.194 88.9278 193.194 88.9278 193.194 89.0051C193.116 89.5469 193.116 90.166 193.116 90.7077C193.194 91.2494 193.194 91.7911 193.194 92.3328C193.194 93.0293 193.116 93.7258 193.116 94.4223C193.116 94.964 193.194 95.5057 193.194 96.1248C193.194 96.5892 193.039 97.1309 193.039 97.5952C193.116 98.0595 193.194 98.4465 193.116 98.9108C193.039 99.2977 193.039 99.6847 193.039 100.072C193.039 100.846 193.039 101.619 193.039 102.393C193.116 102.858 193.194 103.322 193.194 103.864C193.194 104.251 193.116 104.715 193.116 105.102C193.116 105.953 193.039 106.804 193.039 107.656C193.039 108.12 193.116 108.584 193.116 109.049C193.116 109.281 193.039 109.513 193.039 109.745C193.039 110.132 193.116 110.519 193.039 110.829C193.039 111.835 193.039 112.763 193.039 113.769C193.039 113.847 193.116 114.001 193.116 114.156C193.116 114.234 193.116 114.311 193.116 114.388C193.116 114.621 193.039 114.93 193.039 115.162C193.039 115.627 193.039 116.014 193.039 116.478C193.039 116.787 193.039 117.174 193.039 117.561C193.039 118.258 193.116 118.954 193.116 119.651C193.116 120.193 192.961 120.734 193.039 121.276C193.116 121.74 193.116 122.127 192.961 122.592C192.961 122.669 192.961 122.746 192.961 122.901C193.039 123.443 192.961 123.985 193.116 124.526C193.271 125.378 193.503 125.997 194.432 126.074C194.587 126.074 194.664 126.074 194.819 126.074C196.134 126.074 197.45 126.074 198.843 126.074C199.694 126.074 200.545 126.074 201.397 125.997C202.712 125.997 203.951 125.997 205.189 125.997C206.195 125.997 207.201 126.151 208.129 125.764C208.207 125.764 208.284 125.764 208.284 125.764C208.903 125.842 209.6 125.687 210.219 125.764C210.838 125.919 211.457 125.842 212.154 125.842C212.695 125.842 213.314 125.919 213.856 125.919C214.785 125.919 215.713 125.919 216.642 125.919C217.106 125.919 217.493 125.919 217.958 125.919C219.119 125.997 220.357 125.997 221.595 125.997C222.678 125.997 223.839 125.997 225 125.997C225.077 125.997 225.232 125.997 225.387 125.997C225.851 126.074 226.238 126.074 226.625 126.074C227.399 126.151 228.096 126.151 228.869 126.151C229.102 126.074 229.334 126.074 229.566 126.074C230.34 125.919 230.649 125.455 230.649 124.681C230.649 123.752 230.649 122.901 230.649 122.05C230.649 121.74 230.727 121.508 230.727 121.276C230.727 120.734 230.649 120.193 230.649 119.651C230.649 119.264 230.727 118.877 230.727 118.413C230.727 118.258 230.727 118.026 230.727 117.871C230.727 117.639 230.727 117.484 230.727 117.329C230.727 116.633 230.727 116.014 230.727 115.394C230.804 114.698 230.804 114.079 230.649 113.46C230.804 113.073 230.572 112.763 230.495 112.454C230.495 112.376 230.417 112.299 230.34 112.222C229.953 112.144 229.566 111.912 229.179 111.835C228.637 111.757 228.018 111.757 227.476 111.757C226.703 111.757 226.006 111.757 225.232 111.757C225 111.757 224.845 111.68 224.613 111.68C224.226 111.68 223.917 111.68 223.53 111.68C223.452 111.68 223.298 111.68 223.22 111.68C222.756 111.68 222.214 111.757 221.75 111.602C221.595 111.602 221.363 111.602 221.208 111.602C220.976 111.602 220.744 111.68 220.512 111.68C219.892 111.68 219.351 111.602 218.732 111.525C218.345 111.525 217.88 111.525 217.416 111.525C217.029 111.602 216.565 111.602 216.1 111.602C215.481 111.525 214.862 111.525 214.243 111.448C213.469 111.448 212.695 111.448 211.921 111.525C211.612 111.525 209.368 111.525 209.058 111.525C208.594 111.525 208.129 111.525 207.665 111.525C207.51 111.525 207.356 111.525 207.123 111.448C207.123 111.448 207.046 111.37 207.046 111.293C206.969 110.829 207.046 109.358 207.046 108.816C207.046 108.662 207.046 107.423 207.046 107.191C207.046 107.037 207.046 106.959 207.278 106.959C207.82 107.037 208.362 107.037 208.826 106.959C209.058 106.882 211.225 106.882 211.38 106.959C211.767 107.114 212.154 107.037 212.541 106.959C213.16 106.882 213.779 106.572 214.398 107.037C214.475 107.037 214.475 107.037 214.553 107.037C215.017 106.959 215.481 106.882 215.946 107.037C215.946 107.114 215.946 107.037 216.023 107.037C216.41 107.037 216.72 107.037 217.106 107.037C217.803 107.037 218.499 107.037 219.196 107.114C219.506 107.114 219.815 107.037 220.047 107.114C220.976 107.269 221.982 106.417 222.059 105.798C222.137 105.257 222.291 105.721 222.137 105.102C222.137 105.102 222.137 105.024 222.137 104.947C222.137 104.715 222.137 104.405 222.137 104.173C222.137 104.096 222.137 104.018 222.137 103.941C222.369 103.631 222.369 103.245 222.369 102.858C222.446 101.852 222.291 100.846 222.214 99.8395C222.214 99.6847 222.214 99.5299 222.214 99.4525C222.291 98.9108 222.369 98.3691 222.446 97.8274C222.524 97.0535 222.524 97.2083 222.601 96.357C222.678 95.9701 222.601 95.5831 222.369 95.2736C222.137 94.8866 221.595 94.4223 221.053 94.5771C220.898 94.5771 220.666 94.5771 220.512 94.5771C219.97 94.4997 219.428 94.4997 218.886 94.4997C218.113 94.4223 217.339 94.5771 216.565 94.4997C215.868 94.4223 215.249 94.4997 214.553 94.4997C214.475 94.4997 214.321 94.4997 214.243 94.4997C213.779 94.4997 213.314 94.4223 212.928 94.4223C212.695 94.4223 212.541 94.4997 212.386 94.4223C211.767 94.4223 209.136 94.4223 208.516 94.3449C208.362 94.3449 208.207 94.3449 208.129 94.3449C207.897 94.4223 207.743 94.3449 207.51 94.3449C207.433 93.8806 207.433 92.4876 207.433 92.0233C207.356 91.4816 207.665 89.779 208.052 89.4695C208.284 89.3147 208.594 89.1599 208.903 89.2373C209.29 89.3921 211.689 89.3921 212.154 89.4695C212.308 89.4695 212.463 89.4695 212.618 89.5469C212.928 89.7016 213.237 89.779 213.547 89.6242C213.624 89.5469 213.779 89.5469 213.856 89.5469C214.243 89.5469 214.553 89.5469 214.94 89.5469C215.481 89.5469 216.1 89.5469 216.72 89.6242C217.184 89.6242 217.726 89.7016 218.267 89.6242C218.809 89.4695 219.351 89.4695 219.97 89.4695C220.279 89.5469 220.512 89.4695 220.821 89.4695C221.44 89.6242 221.982 89.2373 222.524 89.3921C222.601 89.3921 222.756 89.3147 222.833 89.3147C223.22 89.3147 223.607 89.2373 223.917 89.1599C224.536 89.1599 225.077 89.2373 225.697 89.2373C225.851 89.2373 225.929 89.2373 226.083 89.2373C226.47 89.2373 226.857 89.3921 227.244 89.1599C227.322 89.1599 227.399 89.2373 227.476 89.2373C227.631 89.2373 227.786 89.3147 227.941 89.2373C228.328 89.0051 228.715 89.1599 229.102 89.1599C229.566 89.1599 229.953 89.2373 230.417 89.2373C230.495 89.2373 230.495 89.1599 230.572 89.1599C230.804 88.9278 231.036 88.6956 231.346 88.5408C231.578 88.386 231.655 88.1539 231.733 87.9217C231.733 87.9217 231.733 87.8443 231.81 87.7669C231.81 87.4574 231.888 87.0704 231.965 86.7609C231.965 86.1418 231.965 86.9157 231.965 86.2966L232.042 86.2192C232.042 86.0644 232.042 85.9096 232.042 85.7548C232.042 85.4453 232.042 85.1357 232.042 84.8262C232.042 84.5166 232.197 84.2071 232.275 83.8975C232.275 83.5106 232.197 83.1237 232.197 82.7367C232.197 82.5045 232.275 82.195 232.275 81.9628C232.352 81.1116 232.352 80.2603 232.352 79.4864C232.352 79.3316 232.352 79.2543 232.352 79.0995C232.352 78.403 232.352 77.7065 232.352 77.01C232.352 76.9326 232.352 76.8552 232.275 76.8552ZM277.484 93.0293C277.484 92.7972 277.407 92.565 277.329 92.3328C277.252 91.8685 277.252 91.4042 277.097 90.9398C276.865 90.166 276.633 89.3921 276.323 88.5408C276.246 88.3086 276.169 88.0765 276.014 87.8443C275.782 87.3026 275.472 86.8383 275.163 86.2966C274.93 85.8322 274.698 85.3679 274.311 84.9036C274.002 84.4392 273.615 83.9749 273.228 83.5106C272.841 83.0463 272.531 82.5819 272.144 82.1176C272.144 82.0402 271.99 81.9628 271.912 81.9628C271.835 81.8081 271.603 81.7307 271.525 81.6533C271.216 81.3437 270.984 81.0342 270.674 80.802C270.132 80.4151 269.436 80.0281 268.817 79.7186C268.275 79.3316 267.733 79.0221 267.114 78.7125C266.65 78.4804 266.34 78.1708 265.876 78.016C264.56 77.4743 263.167 77.01 261.852 76.5457C260.536 76.0813 259.221 75.7718 257.905 75.5396C257.131 75.3848 256.357 75.0753 255.506 75.0753C255.042 75.0753 254.5 74.9205 253.958 74.9205C252.952 74.9979 252.024 74.6884 251.018 74.9205C250.94 74.9205 250.863 74.9205 250.785 74.9205C250.398 74.9205 250.011 74.8431 249.625 74.8431C249.16 74.8431 248.619 74.8431 248.154 74.8431C247.767 74.8431 247.303 74.8431 246.916 74.8431C246.065 74.8431 245.213 74.8431 244.362 74.7657C243.588 74.7657 242.814 74.7657 242.041 74.7657C241.731 74.7657 241.421 74.7657 241.034 74.7657C240.57 74.7657 240.028 74.7657 239.564 74.6884C239.022 74.6884 238.635 74.7657 238.171 74.9979C238.094 75.0753 238.016 75.1527 238.016 75.2301C237.629 75.7718 237.475 76.3909 237.475 77.01C237.475 77.8613 237.475 78.7125 237.475 79.4864C237.475 79.8734 237.475 80.2603 237.475 80.6472C237.475 81.0342 237.552 81.4985 237.552 81.8854C237.552 82.195 237.629 82.4272 237.629 82.6593C237.629 83.5106 237.397 84.3619 237.707 85.2131C237.707 85.2905 237.707 85.3679 237.707 85.5227C237.629 85.8322 237.552 86.2192 237.552 86.6061C237.629 87.2252 237.629 87.8443 237.629 88.386C237.629 89.1599 237.629 89.9338 237.629 90.6303C237.629 91.0172 237.629 91.4042 237.707 91.7137C237.707 92.0233 237.707 92.3328 237.707 92.6424C237.707 93.1067 237.707 93.4936 237.707 93.8806C237.707 94.3449 237.629 94.8092 237.629 95.1962C237.629 95.7379 237.629 96.2022 237.629 96.7439C237.629 97.2083 237.629 97.6726 237.629 98.1369C237.629 98.9108 237.707 99.6847 237.707 100.381C237.707 100.923 237.629 101.465 237.629 101.929C237.629 102.935 237.707 103.941 237.707 104.947C237.707 105.721 237.707 106.495 237.707 107.191C237.707 107.81 237.707 108.352 237.784 108.971C237.784 109.436 237.784 109.977 237.784 110.442C237.707 110.906 237.629 111.37 237.707 111.835C237.784 112.454 237.862 112.995 237.862 113.537C237.784 114.388 237.784 115.162 237.784 115.936C237.784 116.633 237.784 117.252 237.784 117.948C237.784 118.877 237.784 119.806 237.784 120.734C237.784 121.508 237.707 122.282 237.862 123.056C237.939 123.598 237.862 124.217 237.862 124.836C237.862 125.068 237.784 125.3 237.784 125.532C237.862 125.764 237.939 125.997 238.094 126.074C238.326 126.306 238.713 126.461 239.1 126.384C239.564 126.384 240.106 126.384 240.57 126.384C241.112 126.384 241.731 126.306 242.273 126.306C242.66 126.306 243.047 126.384 243.511 126.384C243.743 126.384 243.975 126.461 244.207 126.461C244.672 126.461 245.059 126.384 245.523 126.461C245.987 126.538 246.529 126.461 246.993 126.461C247.458 126.461 247.922 126.538 248.386 126.538C248.696 126.538 249.005 126.461 249.392 126.461C249.857 126.461 250.398 126.538 250.94 126.538C251.404 126.461 252.024 126.461 252.256 125.919C252.411 125.532 252.565 125.145 252.565 124.681C252.643 123.133 252.565 121.585 252.565 119.96C252.565 119.264 252.565 118.567 252.565 117.948C252.565 117.02 252.797 116.168 252.643 115.317C252.565 114.93 252.72 114.853 253.107 114.853C253.339 114.853 253.494 114.853 253.726 114.853C254.036 114.775 254.423 114.775 254.732 114.698C254.964 114.698 255.119 114.698 255.274 114.698C255.893 114.621 256.435 114.466 257.054 114.388C257.363 114.311 257.673 114.234 257.982 114.079C258.292 114.079 258.524 114.001 258.756 113.924C258.911 113.924 259.143 113.924 259.298 113.847C259.53 113.615 259.84 113.615 260.149 113.537C260.691 113.382 261.233 113.228 261.774 112.995C262.084 112.918 262.316 112.763 262.548 112.608C262.858 112.531 263.167 112.376 263.477 112.299C263.632 112.222 263.864 112.144 264.019 112.144C264.56 112.067 264.947 111.757 265.412 111.525C265.566 111.448 265.644 111.215 265.953 111.215C266.418 111.138 266.727 110.829 267.114 110.442C267.424 110.132 267.888 109.9 268.352 109.668C268.507 109.59 268.739 109.436 268.894 109.358C269.049 109.281 269.204 109.203 269.358 109.049C269.591 108.894 269.823 108.662 270.055 108.507C270.21 108.352 270.442 108.275 270.674 108.12C270.984 107.81 271.371 107.501 271.68 107.114C271.68 107.114 271.68 107.114 271.758 107.114C271.912 106.959 272.144 106.804 272.299 106.572C272.454 106.263 272.686 106.03 272.996 105.876C273.151 105.876 273.228 105.644 273.305 105.566C273.383 105.411 273.537 105.257 273.615 105.102C273.692 104.947 273.847 104.87 273.924 104.715C274.079 104.483 274.079 104.096 274.466 104.096C274.543 104.018 274.543 104.018 274.543 103.941C274.698 103.709 274.93 103.477 275.008 103.245C275.163 102.858 275.472 102.471 275.627 102.006C275.936 101.155 276.401 100.381 276.788 99.5299C276.865 99.3751 276.865 99.143 276.943 98.9882C277.02 98.6786 277.097 98.4465 277.175 98.1369C277.175 98.0595 277.252 97.9048 277.252 97.8274C277.329 97.5952 277.329 97.363 277.407 97.1309C277.407 96.8987 277.484 96.7439 277.484 96.5118C277.484 96.1248 277.484 95.6605 277.484 95.2736C277.562 94.8866 277.562 94.4997 277.562 94.1127C277.562 93.8032 277.484 93.4163 277.484 93.0293ZM262.084 97.5178C261.774 97.9821 261.388 98.3691 261.001 98.756C261.001 98.8334 260.846 98.9108 260.768 98.9882C260.381 99.2204 259.995 99.4525 259.53 99.7621C259.453 99.8395 259.375 99.9168 259.298 99.9168C258.447 100.226 257.596 100.613 256.744 100.846C256.125 101 255.429 101.078 254.732 101.155C254.345 101.232 253.881 101.31 253.417 101.387C253.262 101.387 253.03 101.31 252.797 101.31C252.797 101 252.797 100.768 252.797 100.536C252.797 100.381 252.875 100.226 252.797 100.072C252.565 99.2204 252.875 98.3691 252.797 97.5178C252.797 96.7439 252.797 96.0474 252.797 95.2736C252.875 94.6545 252.875 93.958 252.875 93.3389C252.875 92.9519 252.875 92.6424 252.797 92.2554C252.797 91.7911 252.797 91.2494 252.797 90.7851C252.797 90.2433 252.875 89.7016 252.875 89.0825C252.875 88.9278 252.875 88.773 252.875 88.5408C253.339 88.6182 253.726 88.6182 254.113 88.6956C254.577 88.6956 255.119 88.773 255.583 88.9278C256.048 89.0051 256.435 89.1599 256.899 89.3147C257.286 89.4695 257.673 89.6242 258.06 89.779C258.369 89.9338 258.602 90.0886 258.911 90.2433C259.066 90.3207 259.143 90.4755 259.298 90.5529C260.072 90.7077 260.536 91.3268 261.078 91.8685C261.388 92.178 261.697 92.4102 261.929 92.7972C262.394 93.4936 262.703 94.3449 262.781 95.1962C262.781 95.351 262.781 95.5057 262.858 95.7379C262.858 96.4344 262.548 96.9761 262.084 97.5178ZM349.246 121.044C349.246 120.347 349.246 119.651 349.169 118.954C349.169 118.18 349.169 117.407 349.092 116.555C349.092 115.627 349.324 114.621 349.092 113.615C349.092 113.537 349.092 113.537 349.092 113.46C349.092 112.686 349.092 111.912 349.092 111.138C349.092 111.138 349.092 111.061 349.092 110.983C349.014 110.519 348.627 110.209 348.163 110.209C347.312 110.209 346.383 110.287 345.454 110.287C344.371 110.287 343.21 110.132 342.127 110.132C340.889 110.132 339.728 110.209 338.567 110.209C338.412 110.209 338.257 110.209 338.18 110.132C338.18 110.055 338.18 109.9 338.257 109.823C338.412 109.513 338.644 109.203 338.799 108.894C338.954 108.662 339.031 108.43 339.186 108.197C339.805 107.191 340.424 106.108 341.043 105.102C341.121 105.024 341.121 105.024 341.121 105.024C341.353 104.483 341.585 104.018 341.817 103.477C342.049 103.012 342.282 102.625 342.514 102.161C342.591 102.006 342.669 101.774 342.746 101.619C342.901 101.31 343.133 101 343.21 100.613C343.52 99.7621 343.829 98.9882 344.061 98.1369C344.371 97.2083 344.758 96.2796 344.99 95.351C345.222 94.4997 345.222 93.4936 345.222 92.565C345.222 91.9459 345.145 91.3268 345.145 90.7077C345.222 89.7016 345.377 88.6182 345.3 87.5348C345.3 86.4513 345.068 85.3679 344.835 84.2845C344.835 83.8975 344.603 83.588 344.448 83.201C344.216 82.7367 344.061 82.195 343.752 81.7307C343.52 81.2663 343.21 80.8794 342.901 80.4925C342.514 79.9507 342.127 79.409 341.662 78.9447C341.276 78.4804 340.734 78.1708 340.269 77.7839C339.728 77.3969 339.263 77.01 338.722 76.6231C338.257 76.3135 337.793 76.004 337.406 75.6944C336.787 75.2301 336.013 74.9205 335.239 74.6884C335.162 74.611 335.084 74.5336 334.93 74.4562C334.698 74.3014 334.388 74.1466 334.078 74.0693C333.382 73.7597 332.685 73.5275 331.912 73.2954C331.447 73.1406 331.06 72.9084 330.596 72.7537C330.132 72.6763 329.667 72.6763 329.203 72.5989C327.965 72.2893 326.727 72.0572 325.488 72.1346C324.869 72.1346 324.328 72.1346 323.708 72.2119C322.78 72.3667 321.851 72.5215 320.922 72.7537C320.381 72.831 319.839 72.9858 319.297 73.1406C318.756 73.3728 318.137 73.3728 317.75 73.8371H317.672C317.053 73.9919 316.511 74.224 315.97 74.611C315.815 74.7657 315.505 74.9205 315.273 74.9979C314.886 75.2301 314.499 75.4622 314.112 75.6944C313.803 75.8492 313.571 76.1587 313.261 76.3135C312.874 76.4683 312.565 76.7004 312.41 77.1648C312.41 77.2422 312.332 77.3196 312.255 77.3969C311.945 77.6291 311.636 77.7839 311.404 78.016C310.862 78.4804 310.398 79.0221 309.856 79.5638C309.856 79.6412 309.779 79.7186 309.779 79.796C309.546 80.0281 309.392 80.2603 309.237 80.4925C308.927 80.802 308.695 81.0342 308.54 81.4211C308.463 81.6533 308.153 81.8081 308.076 82.0402C307.844 82.5819 307.38 82.8915 307.38 83.5106C307.38 83.5106 307.302 83.5106 307.302 83.588C306.915 83.8201 306.838 84.2071 306.683 84.594C306.374 85.2131 305.987 85.9096 305.832 86.6061C305.6 87.4574 305.135 88.2313 305.135 89.1599C305.058 89.3921 305.135 89.6242 305.058 89.8564C304.981 90.3207 304.903 90.7077 304.748 91.172C304.748 91.4816 304.748 91.8685 304.671 92.178C304.516 92.565 304.439 93.0293 304.516 93.4936C304.516 93.571 304.516 93.6484 304.516 93.8032C304.439 94.4223 304.671 95.0414 305.058 95.4283C305.29 95.6605 305.367 95.7379 305.367 95.9701C305.29 96.357 305.445 96.5892 305.6 96.8213C305.909 97.2857 306.451 97.5178 306.838 97.363C306.993 97.2857 307.225 97.2857 307.38 97.2857C307.612 97.2857 307.767 97.363 307.999 97.363C308.618 97.363 309.237 97.2857 309.779 97.2857C310.011 97.2083 310.243 97.2083 310.475 97.2083C311.481 97.1309 312.487 97.1309 313.493 97.1309C313.958 97.1309 314.499 97.0535 314.964 97.0535C315.583 97.0535 316.124 97.0535 316.744 96.9761C316.898 96.9761 317.053 96.9761 317.208 96.9761C317.75 97.0535 318.214 96.9761 318.678 96.8213C319.143 96.5892 319.53 96.357 319.53 95.8153C319.53 95.4283 319.607 95.1188 319.839 94.8866C319.916 94.8092 319.916 94.6545 319.916 94.5771C319.916 94.2675 319.839 93.958 319.916 93.6484C320.071 93.1067 320.226 92.4876 320.458 92.0233C320.768 91.4042 321.232 90.9398 321.851 90.4755C322.393 90.0886 323.012 89.8564 323.708 89.6242C324.018 89.5469 324.25 89.5469 324.56 89.4695C324.637 89.4695 324.714 89.4695 324.792 89.4695C325.411 89.3147 325.953 89.3921 326.417 89.779C326.494 89.779 326.494 89.779 326.572 89.8564C327.191 89.9338 327.733 90.0886 328.12 90.6303C328.429 91.0172 328.739 91.3268 328.893 91.7137C329.048 92.178 329.126 92.7198 329.28 93.1841C329.513 93.7258 329.28 94.3449 329.358 94.8866C329.358 95.5057 329.203 96.1248 329.048 96.6666C328.971 97.1309 328.816 97.6726 328.584 98.0595C328.197 98.6786 327.733 99.2204 327.346 99.8395C326.881 100.381 326.34 100.923 325.875 101.465C325.798 101.542 325.721 101.542 325.643 101.619C325.566 101.619 325.411 101.697 325.334 101.774C324.947 102.006 324.792 102.548 324.173 102.548L324.095 102.625C323.786 102.935 323.476 103.245 323.089 103.477C322.935 103.631 322.702 103.786 322.47 103.786C322.161 103.786 321.929 103.864 321.851 104.096C321.774 104.173 321.696 104.251 321.619 104.251C321.542 104.328 321.387 104.328 321.309 104.405C321.155 104.483 321.077 104.56 321 104.638C320.69 104.792 320.381 104.947 320.071 105.024C320.071 105.102 319.994 105.102 319.994 105.102C319.53 105.024 319.22 105.257 318.91 105.566C318.523 106.03 317.827 106.108 317.363 106.34C316.898 106.572 316.357 106.65 315.815 106.804H315.737C315.428 106.959 315.041 107.037 314.731 107.191C314.499 107.269 314.267 107.346 313.958 107.423C313.571 107.578 313.106 107.733 312.642 107.888C312.41 108.043 312.178 108.043 311.945 108.12C311.636 108.275 311.326 108.43 311.017 108.507C310.32 108.662 309.624 108.816 308.927 108.894C308.695 108.971 308.308 108.971 308.153 109.203C308.076 109.203 307.999 109.281 307.921 109.281C307.38 109.436 306.838 109.59 306.219 109.745C305.909 109.823 305.677 110.055 305.522 110.287C305.367 110.751 305.213 111.37 305.754 111.757C305.832 111.835 305.832 112.067 305.909 112.144C305.909 112.376 305.909 112.531 305.987 112.763C305.987 112.918 305.987 113.073 305.987 113.228C305.909 113.537 305.832 113.769 305.832 114.079C305.832 114.388 305.909 114.775 305.909 115.162C305.909 115.24 305.909 115.394 305.909 115.549C305.909 116.091 305.754 116.633 305.987 117.174C305.987 117.252 305.987 117.252 305.987 117.252C305.909 117.871 305.909 118.49 305.909 119.109C305.909 119.264 305.987 119.419 305.909 119.496C305.677 120.347 305.987 121.121 305.909 121.972C305.909 122.127 305.987 122.282 305.987 122.437C305.987 122.901 305.909 123.288 305.909 123.675C305.909 123.985 305.909 124.217 305.909 124.526C305.832 124.913 305.987 125.223 306.296 125.532C306.76 125.919 307.38 125.919 307.921 125.997C308.618 126.074 309.314 125.997 310.011 125.997C311.326 126.074 312.565 125.919 313.88 125.997C314.499 126.074 315.196 125.997 315.815 125.997C316.976 125.997 318.137 125.997 319.22 125.997C320.768 125.919 322.238 125.919 323.708 125.919C324.405 125.919 325.101 125.997 325.798 125.919C327.191 125.764 328.661 125.919 330.054 125.919C330.906 125.842 331.757 125.919 332.608 125.919C333.924 125.919 335.239 125.919 336.555 125.919C337.019 125.919 337.406 125.919 337.793 125.919C338.567 125.842 339.341 125.842 340.115 125.919C340.811 125.997 341.508 125.919 342.282 125.919C343.52 125.842 344.835 125.842 346.151 125.842C346.461 125.842 346.77 125.842 347.08 125.842C347.467 125.842 347.854 125.842 348.163 125.764C348.395 125.764 348.627 125.61 348.705 125.455C349.014 124.991 349.246 124.526 349.246 123.907C349.246 122.978 349.246 122.05 349.246 121.044Z" fill="#FCFCFC"/>
</svg>
