<svg width="13" height="13" viewBox="0 0 13 13" fill="none" xmlns="http://www.w3.org/2000/svg"><path d="M6.5 13C5.61979 13 4.77767 12.8286 3.97363 12.4858C3.1696 12.1431 2.4777 11.6818 1.89795 11.1021C1.3182 10.5223 0.856934 9.8304 0.51416 9.02637C0.171387 8.22233 0 7.38021 0 6.5C0 5.61979 0.171387 4.77767 0.51416 3.97363C0.856934 3.1696 1.3182 2.4777 1.89795 1.89795C2.4777 1.3182 3.1696 0.856934 3.97363 0.51416C4.77767 0.171387 5.61979 0 6.5 0C7.38021 0 8.22233 0.171387 9.02637 0.51416C9.8304 0.856934 10.5223 1.3182 11.1021 1.89795C11.6818 2.4777 12.1431 3.1696 12.4858 3.97363C12.8286 4.77767 13 5.61979 13 6.5C13 7.38021 12.8286 8.22233 12.4858 9.02637C12.1431 9.8304 11.6818 10.5223 11.1021 11.1021C10.5223 11.6818 9.8304 12.1431 9.02637 12.4858C8.22233 12.8286 7.38021 13 6.5 13ZM10.3149 4.29736C10.1499 4.13232 9.94889 4.0498 9.71191 4.0498C9.47493 4.0498 9.27604 4.13444 9.11523 4.30371L5.6748 7.73145L3.87207 5.92871C3.71126 5.75944 3.51237 5.6748 3.27539 5.6748C3.03841 5.6748 2.8374 5.75732 2.67236 5.92236C2.50732 6.0874 2.4248 6.28841 2.4248 6.52539C2.4248 6.76237 2.50944 6.96126 2.67871 7.12207L5.05273 9.49609C5.22201 9.67383 5.43359 9.75846 5.6875 9.75C5.93294 9.75846 6.1403 9.67383 6.30957 9.49609L10.3086 5.49707C10.4779 5.33626 10.5625 5.13737 10.5625 4.90039C10.5625 4.66341 10.48 4.4624 10.3149 4.29736Z" fill="url(#paint0_linear_585:445)"/><defs><linearGradient id="paint0_linear_585:445" x1="-4.84288e-08" y1="6.5" x2="12.7775" y2="6.5" gradientUnits="userSpaceOnUse"><stop stop-color="#F15A24"/><stop offset="1" stop-color="#F68F1F"/><stop offset="1" stop-color="#F68F1F"/></linearGradient></defs></svg>