<svg width="476" height="213" viewBox="0 0 476 213" fill="none" xmlns="http://www.w3.org/2000/svg">
<path d="M475.372 114.199L376.078 212.287H27.1984L126.592 114.199L27.1984 16.21H376.078L475.372 114.199Z" fill="#FE7624"/>
<path d="M448.173 109.561L348.779 207.648H0L99.3941 109.561L0 11.5723H348.779L448.173 109.561Z" fill="#0F0F0F"/>
<path d="M472.372 102.16L370.878 202.419H16.999L118.593 102.16L16.999 2H370.878L472.372 102.16Z" stroke="#205EFF" stroke-width="3.8224" stroke-miterlimit="10"/>
<path d="M175.992 102.837C175.915 102.218 175.915 101.599 175.915 100.98V100.902C175.915 100.593 175.915 100.283 175.915 99.8963C175.915 99.5868 175.838 99.3546 175.76 99.2772L175.605 98.6581C175.451 98.1164 175.296 97.5747 175.141 97.033C175.064 96.8782 174.986 96.5686 174.909 96.3365C174.599 95.8721 174.367 95.4078 174.135 94.9435L173.98 94.6339C173.903 94.4791 173.825 94.4018 173.748 94.247C173.516 93.86 173.361 93.4731 173.129 93.0862C172.974 92.854 172.819 92.6218 172.665 92.4671C172.51 92.2349 172.355 92.0027 172.278 91.7706C171.968 91.0741 171.504 90.6098 171.117 90.1454C170.885 89.9906 170.73 89.7585 170.575 89.6037C170.498 89.5263 170.42 89.3715 170.266 89.2942C170.111 89.1394 170.033 89.062 169.879 88.9072C169.492 88.5977 169.105 88.2881 168.718 87.9786C168.408 87.7464 168.021 87.4368 167.634 87.2047C167.325 87.0499 167.093 86.8951 166.783 86.8177C166.628 86.7404 166.474 86.663 166.396 86.5856C166.319 86.5082 166.241 86.5082 166.087 86.4308C166.009 86.3534 165.777 86.1986 165.545 86.1212C165.158 85.8891 164.771 85.7343 164.307 85.5021C164.229 85.4248 164.075 85.3474 163.92 85.3474C163.842 85.27 163.842 85.27 163.765 85.27C163.533 85.1152 163.146 84.883 162.682 84.8056C162.604 84.8056 162.527 84.7283 162.449 84.7283C162.062 84.5735 161.598 84.3413 160.902 84.2639C160.437 84.1092 159.973 83.9544 159.586 83.877C159.354 83.7996 159.199 83.7222 158.967 83.7222C158.89 83.7222 158.735 83.7222 158.657 83.7996C158.58 83.7996 158.425 83.7996 158.348 83.7996C158.116 83.877 157.961 83.877 157.806 83.877C157.806 83.877 157.806 83.877 157.729 83.877C156.8 83.4901 155.949 83.3353 155.098 83.1805C155.02 83.1805 155.02 83.1805 154.943 83.1805H154.865C154.633 83.0257 154.401 82.9483 154.092 82.7936C154.014 82.7162 153.937 82.7162 153.859 82.6388C153.627 82.4066 153.395 82.1745 153.24 81.9423C153.24 81.8649 153.24 81.8649 153.24 81.8649C153.163 81.7101 153.008 81.3232 152.699 81.0136L152.621 80.9362C152.621 80.8589 152.544 80.7041 152.544 80.6267C152.544 80.4719 152.544 80.3171 152.621 80.1624C152.621 80.085 152.621 80.0076 152.621 79.8528C152.621 79.7754 152.621 79.4659 152.699 79.3111C152.931 79.2337 153.163 79.0789 153.395 78.9242C153.472 78.9242 153.472 78.8468 153.55 78.8468C153.705 78.7694 153.782 78.692 153.937 78.6146C154.092 78.6146 154.169 78.5372 154.246 78.5372C154.478 78.4598 154.788 78.3824 155.098 78.3051C155.639 78.2277 156.181 78.3051 156.645 78.6146C157.264 78.6146 157.806 78.692 158.348 78.9242C159.122 79.2337 159.509 79.9302 159.741 80.6267C159.896 80.9362 159.973 81.2458 160.128 81.5554C160.128 81.5554 160.128 81.6327 160.205 81.6327C160.283 81.7875 160.36 81.8649 160.36 82.0197C160.437 82.0197 160.437 82.0197 160.437 82.0197C160.437 82.0971 160.437 82.1745 160.515 82.1745C160.515 82.2518 160.515 82.3292 160.592 82.3292C160.669 82.4066 160.669 82.484 160.669 82.5614C161.056 83.1031 161.753 83.4901 162.527 83.6448C163.455 83.7222 164.384 83.7996 165.313 83.7996C165.468 83.7996 165.545 83.7996 165.7 83.7996C166.164 83.7996 166.551 83.7996 166.938 83.7996C167.325 83.7996 167.712 83.7996 168.099 83.7996H168.176C168.331 83.7996 168.64 83.7996 168.873 83.7996C169.105 83.877 169.337 83.877 169.646 83.877H169.724C170.266 83.877 170.807 83.9544 171.426 83.9544C171.504 83.9544 171.581 83.9544 171.736 83.9544C172.432 83.9544 173.129 83.6448 173.671 83.1031C174.212 82.484 173.284 81.7875 173.206 81.091C173.129 81.0136 173.129 80.9362 173.129 80.8589C173.052 80.5493 173.052 80.3171 173.052 80.085C172.897 78.8468 172.819 77.686 172.355 76.5251C172.278 76.4477 172.2 76.293 172.2 76.2156C171.968 75.6739 171.736 75.0548 171.426 74.513C171.117 73.8939 170.653 73.2748 170.266 72.6557C169.724 72.0366 169.337 71.4949 168.873 71.0306C168.64 70.721 168.331 70.4115 168.021 70.1019C167.634 69.7924 167.325 69.4828 167.093 69.1733C166.474 68.4768 165.7 67.8577 164.616 67.3933C163.378 66.6969 161.985 66.3099 160.747 66.0004C160.515 65.923 160.36 65.923 160.205 65.8456C159.509 65.6134 158.735 65.4586 157.806 65.3813C157.651 65.3039 157.419 65.3039 157.264 65.3039C156.413 65.1491 155.562 64.9943 154.633 64.9943C154.556 64.9943 154.401 64.9943 154.324 65.0717C153.782 64.8395 153.318 64.7622 153.008 64.7622C152.931 64.7622 152.853 64.7622 152.853 64.7622H152.699H152.544C152.466 64.7622 152.389 64.7622 152.312 64.7622H152.234C152.079 64.7622 151.847 64.8395 151.615 64.8395C150.532 64.9169 149.603 65.2265 148.829 65.536C148.674 65.536 148.52 65.6134 148.365 65.6908C148.055 65.7682 147.746 65.923 147.591 66.0778C147.514 66.0778 147.436 66.0778 147.359 66.1551C147.204 66.2325 146.972 66.3099 146.74 66.4647C146.353 66.6969 145.966 66.8516 145.579 67.0064C144.341 67.4707 143.257 68.1672 142.251 69.0185C141.787 69.4054 141.245 69.8698 140.781 70.2567C140.316 70.6436 139.62 71.2627 139.156 72.1914C139.078 72.4236 138.923 72.7331 138.769 72.9653C138.614 73.1975 138.382 73.507 138.304 73.7392C137.917 74.3583 137.763 74.9 137.608 75.3643C137.453 75.8286 137.376 76.293 137.298 76.7573C137.298 76.8347 137.221 76.9895 137.221 77.0668C137.221 77.2216 137.144 77.299 137.144 77.4538C137.066 77.9181 136.911 78.3824 136.911 78.9242C136.989 79.6207 136.989 80.2398 137.066 80.8589C137.066 81.1684 137.144 81.4006 137.144 81.6327C137.144 81.7101 137.144 81.7875 137.144 81.9423C137.144 82.0971 137.221 82.2518 137.221 82.4066C137.221 83.1805 137.453 83.877 137.685 84.4961C137.84 84.7283 137.995 84.883 138.072 85.0378C138.072 85.1152 138.15 85.1152 138.15 85.1926L138.227 85.27C138.382 86.1212 138.769 86.8177 139.465 87.3595C140.007 87.9012 140.549 88.4429 141.09 89.1394C141.4 89.6037 141.709 89.9133 142.019 90.2228C142.096 90.3002 142.174 90.3776 142.251 90.455C142.483 90.6871 142.793 90.8419 142.948 90.9967C143.025 90.9967 143.102 91.0741 143.102 91.0741C143.18 91.1515 143.257 91.1515 143.335 91.2289C143.412 91.3062 143.489 91.3836 143.567 91.461C143.722 91.5384 143.799 91.6158 143.954 91.6932C144.263 91.9253 144.65 92.2349 145.115 92.4671C145.734 92.7766 146.43 93.0088 147.049 93.2409C147.514 93.3957 147.978 93.5505 148.365 93.6279C148.597 93.7053 148.829 93.7827 148.984 93.86C149.371 93.9374 149.835 94.0922 150.222 94.247C150.299 94.247 150.377 94.3244 150.454 94.3244C150.532 94.4018 150.686 94.4791 150.919 94.5565C151.151 94.6339 151.306 94.6339 151.46 94.7113C151.538 94.7113 151.615 94.7113 151.692 94.7887C152.312 95.1756 152.931 95.4078 153.472 95.4852C153.627 95.5626 153.859 95.64 154.014 95.64C154.324 95.7947 154.633 95.8721 154.865 95.9495C154.943 95.9495 155.098 96.0269 155.175 96.0269C155.484 96.2591 155.794 96.4139 155.871 96.4139C156.026 96.4912 156.181 96.4912 156.258 96.5686C156.413 96.646 156.723 96.7234 156.723 96.8008C157.11 97.1103 157.497 97.2651 157.729 97.3425C157.961 97.5747 158.193 97.8842 158.503 98.1164C158.58 98.1938 158.657 98.2712 158.657 98.3486C158.735 98.3486 158.812 98.4259 158.812 98.5033C158.89 98.5807 158.967 98.7355 158.967 98.8903C159.354 99.6641 159.663 100.438 159.663 101.135C159.586 102.141 159.431 102.914 159.199 103.688C159.199 103.688 159.199 103.688 159.122 103.766C158.89 103.92 158.503 104.153 158.193 104.54C158.116 104.617 157.961 104.617 157.961 104.694L157.729 104.772C157.187 105.004 156.645 105.236 156.181 105.391C156.026 105.468 155.871 105.468 155.871 105.468C155.562 105.391 155.33 105.313 155.098 105.236C154.865 105.159 154.633 105.081 154.478 105.004C154.246 104.927 154.014 104.849 153.782 104.772C153.395 104.617 153.085 104.462 152.699 104.385C152.621 104.307 152.466 104.153 152.389 104.075C152.312 103.998 152.234 103.92 152.157 103.843C152.002 103.611 151.77 103.301 151.383 103.069C151.073 102.76 150.919 102.373 150.686 101.676C150.609 101.289 150.532 100.98 150.454 100.67C150.377 100.206 150.222 99.6641 150.067 99.1998C149.835 98.2712 148.984 97.6521 147.823 97.6521C147.746 97.6521 147.746 97.6521 147.668 97.6521C147.436 97.6521 147.204 97.6521 146.894 97.6521C146.74 97.6521 146.585 97.6521 146.43 97.6521C146.275 97.6521 146.121 97.6521 146.043 97.6521C145.888 97.6521 145.734 97.6521 145.656 97.6521C145.115 97.6521 144.728 97.6521 144.263 97.6521C143.722 97.6521 143.18 97.5747 142.715 97.5747C142.096 97.4973 141.477 97.4973 140.858 97.4199C140.626 97.4199 140.316 97.4199 140.007 97.4199C139.775 97.4199 139.543 97.4199 139.31 97.4199C139.156 97.4199 139.001 97.4199 138.769 97.4199C138.691 97.4199 138.537 97.4199 138.459 97.4973C137.995 97.3425 137.608 97.3425 137.144 97.3425C136.757 97.3425 136.37 97.3425 135.983 97.4199C135.364 97.5747 134.822 97.7294 134.435 98.039C134.435 98.5807 134.358 99.1224 134.358 99.6641C134.28 101.521 134.28 103.456 134.667 105.313C134.745 105.933 134.899 106.552 135.054 107.093C135.054 107.171 135.054 107.171 135.131 107.248C135.209 107.403 135.286 107.48 135.364 107.635C135.441 107.712 135.518 107.79 135.518 107.867C135.596 107.945 135.596 107.945 135.596 108.022C135.828 108.951 136.215 109.647 136.834 110.266C136.911 110.421 136.989 110.576 137.144 110.731C137.221 110.808 137.298 110.963 137.376 111.04C137.453 111.195 137.53 111.272 137.608 111.35V111.427C137.917 111.737 138.15 112.124 138.459 112.433C138.769 112.743 139.001 112.975 139.31 113.207C139.388 113.284 139.543 113.439 139.62 113.517C139.697 113.517 139.775 113.594 139.852 113.671C140.162 113.981 140.549 114.368 141.245 114.677C141.322 114.755 141.4 114.832 141.477 114.91C141.942 115.297 142.483 115.838 143.257 116.148C143.412 116.225 143.644 116.303 143.722 116.38C144.495 117.076 145.347 117.463 146.121 117.773C146.275 117.928 146.507 118.005 146.662 118.082C147.359 118.392 148.055 118.624 148.674 118.856C148.984 118.934 149.216 119.011 149.448 119.089C150.454 119.398 151.46 119.475 152.389 119.475C152.621 119.553 152.931 119.553 153.24 119.553C153.55 119.553 154.014 119.63 154.401 119.708C154.865 119.862 155.175 119.862 155.562 119.862C155.871 119.862 156.181 119.862 156.491 119.785H156.568C156.645 119.785 156.645 119.785 156.723 119.785C156.877 119.785 157.032 119.785 157.187 119.785C157.574 119.785 157.961 119.785 158.348 119.708C158.735 119.708 159.354 119.63 159.896 119.321C160.128 119.243 160.437 119.166 160.824 119.089C160.824 119.089 160.902 119.089 160.979 119.089C161.443 119.011 161.985 118.934 162.527 118.779C163.069 118.547 163.455 118.392 163.92 118.16C164.075 118.082 164.229 118.005 164.384 117.928C164.616 117.85 164.771 117.773 165.003 117.696C165.468 117.541 166.009 117.309 166.551 116.999C166.628 116.922 166.783 116.844 166.938 116.767C167.557 116.457 168.331 116.07 169.027 115.451C169.182 115.297 169.492 115.064 169.724 114.91C170.111 114.677 170.498 114.368 170.807 114.058C171.659 113.207 172.355 112.433 172.974 111.737C173.439 111.118 173.748 110.421 173.98 109.802C173.98 109.725 174.058 109.647 174.058 109.57C174.135 109.338 174.212 109.183 174.29 109.028C174.445 108.641 174.599 108.332 174.754 108.099C175.296 107.326 175.605 106.474 175.76 105.623C175.76 105.391 175.76 105.159 175.838 104.849C175.915 104.23 175.992 103.611 175.992 102.837ZM223.183 76.6025C223.183 76.293 223.183 75.9834 223.183 75.6739C223.183 75.2095 223.183 74.8226 223.183 74.3583C223.183 73.9713 223.183 73.5844 223.183 73.1975C223.183 73.0427 223.183 72.8879 223.183 72.7331C223.105 72.4236 223.028 72.1914 223.105 71.9592C223.105 71.3401 223.183 70.721 223.183 70.1019C223.183 69.5602 223.183 69.0185 223.183 68.4768C223.183 67.9351 223.26 67.3933 223.26 66.8516C223.26 66.7742 223.183 66.6195 223.105 66.5421C222.641 66.3099 222.254 66.0004 221.635 66.1551C221.248 66.2325 220.784 66.2325 220.319 66.2325C219.932 66.1551 219.468 66.1551 219.081 66.1551C218.385 66.0778 217.766 66.1551 217.069 66.0778C216.837 66.0778 216.527 66.0778 216.295 66.0778C215.831 66.0778 215.366 66.0778 214.825 66.0778C214.67 66.0778 214.438 66.0778 214.206 66.0778C213.664 66.1551 213.122 66.2325 212.581 66.2325C211.497 66.1551 210.414 66.0004 209.253 66.2325C209.021 66.2325 208.789 66.2325 208.556 66.3099C208.324 66.3099 208.169 66.3099 207.937 66.3099C207.86 66.3099 207.782 66.3873 207.628 66.3873C207.163 66.3873 206.622 66.3099 206.157 66.3099C205.538 66.3099 204.919 66.3873 204.3 66.3873C203.449 66.3873 202.597 66.3099 201.746 66.3099C201.437 66.3099 201.05 66.2325 200.74 66.2325C199.966 66.2325 199.192 66.3099 198.419 66.0778C198.109 66.0004 197.722 66.0778 197.335 66.0778C196.329 66.1551 195.246 66.0778 194.24 66.0004C193.853 65.923 193.388 65.8456 193.001 65.8456C192.305 65.8456 191.608 65.923 190.912 65.923C190.602 66.0004 190.293 66.0004 189.906 66.0004C189.442 65.923 188.977 65.8456 188.435 65.8456C188.203 65.8456 187.894 65.8456 187.584 65.8456C187.275 65.8456 186.965 65.7682 186.656 65.8456C186.191 65.8456 185.727 66.0004 185.34 65.923C184.953 65.8456 184.489 65.8456 184.102 65.8456C183.405 65.923 182.709 66.0778 182.012 65.923C181.857 65.923 181.625 65.923 181.471 65.8456C180.929 65.7682 180.619 66.1551 180.232 66.3873C180.155 66.4647 180.155 66.5421 180.155 66.6195C180.155 67.0838 180.155 67.4707 180.155 67.9351C180.155 68.3994 180.155 68.8637 180.155 69.3281C180.155 69.7924 180.232 70.3341 180.232 70.7984C180.232 71.2627 180.31 71.6497 180.232 72.114C180.232 72.501 180.078 72.8879 180.232 73.2748C180.31 73.3522 180.232 73.4296 180.232 73.507C180.078 74.2035 180.155 74.8226 180.232 75.5191C180.232 75.7513 180.155 76.0608 180.155 76.293C180.155 76.6799 180.232 77.0668 180.155 77.4538C180.155 77.9181 180 78.3824 180.387 78.7694V78.8468C180.542 79.2337 180.542 79.5433 180.851 79.8528C181.006 79.9302 181.006 80.085 181.006 80.2398C181.006 80.5493 181.238 80.5493 181.471 80.5493C181.935 80.4719 182.477 80.4719 182.941 80.4719C183.715 80.4719 184.411 80.5493 185.108 80.5493C186.036 80.5493 186.965 80.5493 187.894 80.5493C188.126 80.5493 188.358 80.5493 188.59 80.5493C188.977 80.5493 189.287 80.4719 189.674 80.4719C190.37 80.5493 190.989 80.5493 191.686 80.5493C192.227 80.6267 192.769 80.6267 193.388 80.5493C193.466 80.5493 193.62 80.6267 193.62 80.7815C193.543 81.2458 193.543 81.7875 193.543 82.2518C193.62 82.9483 193.62 83.5674 193.698 84.2639C193.698 84.8056 193.62 85.3474 193.62 85.8891C193.62 86.0439 193.62 86.276 193.62 86.5082C193.62 86.8951 193.62 87.3595 193.698 87.7464C193.698 88.2881 193.698 88.8298 193.698 89.3715C193.698 89.5263 193.698 89.6811 193.698 89.8359C193.698 90.2228 193.698 90.6098 193.698 90.9193C193.698 91.1515 193.775 91.3836 193.775 91.6158C193.698 92.3897 193.698 93.1636 193.62 93.86C193.62 94.1696 193.775 94.4018 193.775 94.6339C193.775 95.1756 193.698 95.7174 193.62 96.2591C193.62 96.9556 193.698 97.5747 193.698 98.2712C193.62 99.1224 193.543 99.8963 193.775 100.67C193.775 100.748 193.775 100.825 193.775 100.902C193.775 101.289 193.698 101.754 193.698 102.218C193.698 102.295 193.698 102.373 193.698 102.528C193.698 102.992 193.775 103.534 193.775 104.075C193.775 104.462 193.698 104.927 193.698 105.391C193.698 105.778 193.853 106.242 193.775 106.629C193.775 107.016 193.698 107.403 193.775 107.79C193.775 108.332 193.62 108.873 193.853 109.415C193.853 109.492 193.853 109.57 193.853 109.647C193.543 110.421 193.775 111.195 193.698 111.891C193.698 112.433 193.775 112.897 193.775 113.439C193.775 113.671 193.698 113.826 193.775 114.058C193.853 114.6 193.853 115.142 193.775 115.683C193.698 116.148 193.853 116.535 194.007 116.999C194.317 117.463 194.626 117.773 195.168 117.773C196.252 117.773 197.335 117.85 198.419 117.85C199.657 117.85 200.895 117.85 202.133 117.85C202.83 117.85 203.526 117.773 204.223 117.773C204.842 117.773 205.383 117.773 205.925 117.773C206.003 117.85 206.003 117.85 206.003 117.85C206.854 117.85 207.782 117.773 208.711 117.773C209.098 117.696 209.485 117.463 209.485 117.076C209.562 116.303 209.717 115.529 209.717 114.755C209.717 113.904 209.64 113.052 209.64 112.201C209.562 110.653 209.562 109.105 209.562 107.558C209.485 106.861 209.408 106.165 209.408 105.468C209.408 104.772 209.408 104.075 209.408 103.301C209.408 102.063 209.408 100.825 209.253 99.5094C209.175 98.4259 209.33 97.4199 209.253 96.3365C209.175 95.4078 209.175 94.4791 209.175 93.5505C209.175 92.7766 209.098 91.9253 209.098 91.1515C209.098 90.3776 209.098 89.6037 209.098 88.8298C209.098 87.9012 209.021 87.0499 208.943 86.1986C208.943 85.1926 208.943 84.1092 208.943 83.1031C208.866 82.4066 208.866 81.7875 208.789 81.091C208.789 80.8589 208.866 80.7815 209.098 80.7815C209.408 80.7815 209.717 80.8589 210.027 80.8589C211.497 80.7815 212.967 80.7815 214.36 80.7815C214.593 80.7815 214.825 80.8589 215.057 80.8589C215.908 80.7815 216.682 80.7815 217.456 80.7815C218.307 80.7815 219.081 80.7815 219.932 80.7815C220.551 80.7815 221.171 80.7041 221.79 80.7041C222.099 80.7041 222.331 80.8589 222.331 80.3945L222.409 80.3171C222.564 79.9302 222.718 79.6207 222.951 79.2337C223.028 79.0789 223.105 78.9242 223.183 78.7694C223.183 78.692 223.26 78.6146 223.26 78.5372C223.26 77.9181 223.26 77.299 223.183 76.6025ZM266.469 68.0898C266.236 67.7029 266.082 67.316 265.617 67.1612C264.998 66.8516 264.456 66.6195 263.76 66.8516C263.683 66.8516 263.683 66.8516 263.605 66.8516C263.063 66.8516 262.599 66.8516 262.057 66.8516C261.671 66.8516 261.284 66.7742 260.897 66.7742C260.355 66.7742 259.813 66.7742 259.271 66.7742C258.575 66.8516 257.801 66.7742 257.105 66.7742C256.872 66.7742 256.718 66.7742 256.486 66.7742C256.253 66.7742 256.099 66.7742 255.866 66.7742C254.938 66.7742 254.009 66.6969 253.08 66.6969C252.616 66.6969 252.152 66.6195 251.687 66.6195C250.759 66.6195 249.908 66.6969 249.056 66.6969C248.282 66.6969 247.508 66.6969 246.812 66.6195C246.116 66.5421 245.496 66.6195 244.8 66.6195C244.723 66.6195 244.645 66.6195 244.568 66.6195C244.103 66.5421 243.639 66.5421 243.175 66.5421C242.633 66.5421 242.014 66.5421 241.472 66.5421C241.008 66.5421 240.466 66.5421 240.002 66.4647C239.383 66.4647 238.764 66.5421 238.222 66.4647C237.99 66.4647 237.835 66.3873 237.68 66.3873C236.829 66.3873 235.978 66.4647 235.126 66.4647C235.126 66.4647 235.049 66.4647 235.049 66.3873C234.894 66.3873 234.817 66.3099 234.662 66.3099C234.275 66.3099 233.811 66.3873 233.424 66.3873C232.96 66.4647 232.418 66.5421 231.876 66.4647C231.412 66.3099 230.947 66.3873 230.483 66.4647C230.406 66.4647 230.251 66.5421 230.096 66.5421C229.787 66.5421 229.477 66.4647 229.168 66.3873C227.929 66.3099 227.31 67.2386 227.388 68.3994C227.465 68.7863 227.388 69.0959 227.388 69.4828C227.388 69.715 227.31 69.8698 227.31 70.0245C227.31 70.8758 227.388 71.6497 227.388 72.4236C227.388 72.501 227.388 72.5783 227.388 72.6557C227.388 72.9653 227.465 73.1975 227.465 73.4296C227.388 73.9713 227.388 74.513 227.31 75.0548C227.31 75.3643 227.31 75.5965 227.388 75.906C227.465 76.293 227.542 76.6799 227.388 77.0668C227.31 77.1442 227.31 77.299 227.31 77.4538C227.388 77.686 227.388 77.9181 227.388 78.0729C227.388 78.7694 227.388 79.3885 227.388 80.085C227.388 80.1624 227.388 80.1624 227.388 80.2398C227.31 80.7815 227.31 81.4006 227.31 81.9423C227.388 82.484 227.388 83.0257 227.388 83.5674C227.388 84.2639 227.31 84.9604 227.31 85.6569C227.31 86.1986 227.388 86.7404 227.388 87.3595C227.388 87.8238 227.233 88.3655 227.233 88.8298C227.31 89.2942 227.388 89.6811 227.31 90.1454C227.233 90.5324 227.233 90.9193 227.233 91.3062C227.233 92.0801 227.233 92.854 227.233 93.6279C227.31 94.0922 227.388 94.5565 227.388 95.0983C227.388 95.4852 227.31 95.9495 227.31 96.3365C227.31 97.1877 227.233 98.039 227.233 98.8903C227.233 99.3546 227.31 99.8189 227.31 100.283C227.31 100.515 227.233 100.748 227.233 100.98C227.233 101.367 227.31 101.754 227.233 102.063C227.233 103.069 227.233 103.998 227.233 105.004C227.233 105.081 227.31 105.236 227.31 105.391C227.31 105.468 227.31 105.546 227.31 105.623C227.31 105.855 227.233 106.165 227.233 106.397C227.233 106.861 227.233 107.248 227.233 107.712C227.233 108.022 227.233 108.409 227.233 108.796C227.233 109.492 227.31 110.189 227.31 110.885C227.31 111.427 227.155 111.969 227.233 112.511C227.31 112.975 227.31 113.362 227.155 113.826C227.155 113.904 227.155 113.981 227.155 114.136C227.233 114.677 227.155 115.219 227.31 115.761C227.465 116.612 227.697 117.231 228.626 117.309C228.781 117.309 228.858 117.309 229.013 117.309C230.328 117.309 231.644 117.309 233.037 117.309C233.888 117.309 234.739 117.309 235.591 117.231C236.906 117.231 238.145 117.231 239.383 117.231C240.389 117.231 241.395 117.386 242.324 116.999C242.401 116.999 242.478 116.999 242.478 116.999C243.097 117.076 243.794 116.922 244.413 116.999C245.032 117.154 245.651 117.076 246.348 117.076C246.889 117.076 247.508 117.154 248.05 117.154C248.979 117.154 249.908 117.154 250.836 117.154C251.301 117.154 251.687 117.154 252.152 117.154C253.313 117.231 254.551 117.231 255.789 117.231C256.872 117.231 258.033 117.231 259.194 117.231C259.271 117.231 259.426 117.231 259.581 117.231C260.045 117.309 260.432 117.309 260.819 117.309C261.593 117.386 262.29 117.386 263.063 117.386C263.296 117.309 263.528 117.309 263.76 117.309C264.534 117.154 264.843 116.69 264.843 115.916C264.843 114.987 264.843 114.136 264.843 113.284C264.843 112.975 264.921 112.743 264.921 112.511C264.921 111.969 264.843 111.427 264.843 110.885C264.843 110.498 264.921 110.112 264.921 109.647C264.921 109.492 264.921 109.26 264.921 109.105C264.921 108.873 264.921 108.719 264.921 108.564C264.921 107.867 264.921 107.248 264.921 106.629C264.998 105.933 264.998 105.313 264.843 104.694C264.998 104.307 264.766 103.998 264.689 103.688C264.689 103.611 264.611 103.534 264.534 103.456C264.147 103.379 263.76 103.147 263.373 103.069C262.831 102.992 262.212 102.992 261.671 102.992C260.897 102.992 260.2 102.992 259.426 102.992C259.194 102.992 259.039 102.914 258.807 102.914C258.42 102.914 258.111 102.914 257.724 102.914C257.646 102.914 257.492 102.914 257.414 102.914C256.95 102.914 256.408 102.992 255.944 102.837C255.789 102.837 255.557 102.837 255.402 102.837C255.17 102.837 254.938 102.914 254.706 102.914C254.086 102.914 253.545 102.837 252.926 102.76C252.539 102.76 252.074 102.76 251.61 102.76C251.223 102.837 250.759 102.837 250.294 102.837C249.675 102.76 249.056 102.76 248.437 102.682C247.663 102.682 246.889 102.682 246.116 102.76C245.806 102.76 243.562 102.76 243.252 102.76C242.788 102.76 242.324 102.76 241.859 102.76C241.704 102.76 241.55 102.76 241.317 102.682C241.317 102.682 241.24 102.605 241.24 102.528C241.163 102.063 241.24 100.593 241.24 100.051C241.24 99.8963 241.24 98.6581 241.24 98.4259C241.24 98.2712 241.24 98.1938 241.472 98.1938C242.014 98.2712 242.556 98.2712 243.02 98.1938C243.252 98.1164 245.419 98.1164 245.574 98.1938C245.961 98.3486 246.348 98.2712 246.735 98.1938C247.354 98.1164 247.973 97.8068 248.592 98.2712C248.669 98.2712 248.669 98.2712 248.747 98.2712C249.211 98.1938 249.675 98.1164 250.14 98.2712C250.14 98.3486 250.14 98.2712 250.217 98.2712C250.604 98.2712 250.914 98.2712 251.301 98.2712C251.997 98.2712 252.693 98.2712 253.39 98.3486C253.7 98.3486 254.009 98.2712 254.241 98.3486C255.17 98.5033 256.176 97.6521 256.253 97.033C256.331 96.4912 256.486 96.9556 256.331 96.3365C256.331 96.3365 256.331 96.2591 256.331 96.1817C256.331 95.9495 256.331 95.64 256.331 95.4078C256.331 95.3304 256.331 95.253 256.331 95.1756C256.563 94.8661 256.563 94.4791 256.563 94.0922C256.64 93.0862 256.486 92.0801 256.408 91.0741C256.408 90.9193 256.408 90.7645 256.408 90.6871C256.486 90.1454 256.563 89.6037 256.64 89.062C256.718 88.2881 256.718 88.4429 256.795 87.5916C256.872 87.2047 256.795 86.8177 256.563 86.5082C256.331 86.1212 255.789 85.6569 255.247 85.8117C255.093 85.8117 254.86 85.8117 254.706 85.8117C254.164 85.7343 253.622 85.7343 253.08 85.7343C252.307 85.6569 251.533 85.8117 250.759 85.7343C250.062 85.6569 249.443 85.7343 248.747 85.7343C248.669 85.7343 248.515 85.7343 248.437 85.7343C247.973 85.7343 247.508 85.6569 247.122 85.6569C246.889 85.6569 246.735 85.7343 246.58 85.6569C245.961 85.6569 243.33 85.6569 242.71 85.5795C242.556 85.5795 242.401 85.5795 242.324 85.5795C242.091 85.6569 241.937 85.5795 241.704 85.5795C241.627 85.1152 241.627 83.7222 241.627 83.2579C241.55 82.7162 241.859 81.0136 242.246 80.7041C242.478 80.5493 242.788 80.3945 243.097 80.4719C243.484 80.6267 245.883 80.6267 246.348 80.7041C246.502 80.7041 246.657 80.7041 246.812 80.7815C247.122 80.9362 247.431 81.0136 247.741 80.8589C247.818 80.7815 247.973 80.7815 248.05 80.7815C248.437 80.7815 248.747 80.7815 249.134 80.7815C249.675 80.7815 250.294 80.7815 250.914 80.8589C251.378 80.8589 251.92 80.9362 252.461 80.8589C253.003 80.7041 253.545 80.7041 254.164 80.7041C254.473 80.7815 254.706 80.7041 255.015 80.7041C255.634 80.8589 256.176 80.4719 256.718 80.6267C256.795 80.6267 256.95 80.5493 257.027 80.5493C257.414 80.5493 257.801 80.4719 258.111 80.3945C258.73 80.3945 259.271 80.4719 259.891 80.4719C260.045 80.4719 260.123 80.4719 260.278 80.4719C260.664 80.4719 261.051 80.6267 261.438 80.3945C261.516 80.3945 261.593 80.4719 261.671 80.4719C261.825 80.4719 261.98 80.5493 262.135 80.4719C262.522 80.2398 262.909 80.3945 263.296 80.3945C263.76 80.3945 264.147 80.4719 264.611 80.4719C264.689 80.4719 264.689 80.3945 264.766 80.3945C264.998 80.1624 265.23 79.9302 265.54 79.7754C265.772 79.6207 265.849 79.3885 265.927 79.1563C265.927 79.1563 265.927 79.0789 266.004 79.0016C266.004 78.692 266.082 78.3051 266.159 77.9955C266.159 77.3764 266.159 78.1503 266.159 77.5312L266.236 77.4538C266.236 77.299 266.236 77.1442 266.236 76.9895C266.236 76.6799 266.236 76.3704 266.236 76.0608C266.236 75.7513 266.391 75.4417 266.469 75.1321C266.469 74.7452 266.391 74.3583 266.391 73.9713C266.391 73.7392 266.469 73.4296 266.469 73.1975C266.546 72.3462 266.546 71.4949 266.546 70.721C266.546 70.5663 266.546 70.4889 266.546 70.3341C266.546 69.6376 266.546 68.9411 266.546 68.2446C266.546 68.1672 266.546 68.0898 266.469 68.0898ZM311.678 84.2639C311.678 84.0318 311.601 83.7996 311.523 83.5674C311.446 83.1031 311.446 82.6388 311.291 82.1745C311.059 81.4006 310.827 80.6267 310.517 79.7754C310.44 79.5433 310.363 79.3111 310.208 79.0789C309.976 78.5372 309.666 78.0729 309.357 77.5312C309.124 77.0668 308.892 76.6025 308.505 76.1382C308.196 75.6739 307.809 75.2095 307.422 74.7452C307.035 74.2809 306.725 73.8166 306.338 73.3522C306.338 73.2748 306.184 73.1975 306.106 73.1975C306.029 73.0427 305.797 72.9653 305.719 72.8879C305.41 72.5783 305.178 72.2688 304.868 72.0366C304.326 71.6497 303.63 71.2627 303.011 70.9532C302.469 70.5663 301.927 70.2567 301.308 69.9472C300.844 69.715 300.534 69.4054 300.07 69.2507C298.754 68.7089 297.361 68.2446 296.046 67.7803C294.73 67.316 293.415 67.0064 292.099 66.7742C291.325 66.6195 290.551 66.3099 289.7 66.3099C289.236 66.3099 288.694 66.1551 288.152 66.1551C287.146 66.2325 286.218 65.923 285.212 66.1551C285.134 66.1551 285.057 66.1551 284.979 66.1551C284.592 66.1551 284.206 66.0778 283.819 66.0778C283.354 66.0778 282.813 66.0778 282.348 66.0778C281.961 66.0778 281.497 66.0778 281.11 66.0778C280.259 66.0778 279.407 66.0778 278.556 66.0004C277.782 66.0004 277.008 66.0004 276.235 66.0004C275.925 66.0004 275.615 66.0004 275.229 66.0004C274.764 66.0004 274.222 66.0004 273.758 65.923C273.216 65.923 272.829 66.0004 272.365 66.2325C272.288 66.3099 272.21 66.3873 272.21 66.4647C271.823 67.0064 271.669 67.6255 271.669 68.2446C271.669 69.0959 271.669 69.9472 271.669 70.721C271.669 71.108 271.669 71.4949 271.669 71.8819C271.669 72.2688 271.746 72.7331 271.746 73.1201C271.746 73.4296 271.823 73.6618 271.823 73.8939C271.823 74.7452 271.591 75.5965 271.901 76.4477C271.901 76.5251 271.901 76.6025 271.901 76.7573C271.823 77.0668 271.746 77.4538 271.746 77.8407C271.823 78.4598 271.823 79.0789 271.823 79.6207C271.823 80.3945 271.823 81.1684 271.823 81.8649C271.823 82.2518 271.823 82.6388 271.901 82.9483C271.901 83.2579 271.901 83.5674 271.901 83.877C271.901 84.3413 271.901 84.7283 271.901 85.1152C271.901 85.5795 271.823 86.0439 271.823 86.4308C271.823 86.9725 271.823 87.4368 271.823 87.9786C271.823 88.4429 271.823 88.9072 271.823 89.3715C271.823 90.1454 271.901 90.9193 271.901 91.6158C271.901 92.1575 271.823 92.6992 271.823 93.1636C271.823 94.1696 271.901 95.1756 271.901 96.1817C271.901 96.9556 271.901 97.7294 271.901 98.4259C271.901 99.045 271.901 99.5868 271.978 100.206C271.978 100.67 271.978 101.212 271.978 101.676C271.901 102.141 271.823 102.605 271.901 103.069C271.978 103.688 272.056 104.23 272.056 104.772C271.978 105.623 271.978 106.397 271.978 107.171C271.978 107.867 271.978 108.486 271.978 109.183C271.978 110.112 271.978 111.04 271.978 111.969C271.978 112.743 271.901 113.517 272.056 114.29C272.133 114.832 272.056 115.451 272.056 116.07C272.056 116.303 271.978 116.535 271.978 116.767C272.056 116.999 272.133 117.231 272.288 117.309C272.52 117.541 272.907 117.696 273.294 117.618C273.758 117.618 274.3 117.618 274.764 117.618C275.306 117.618 275.925 117.541 276.467 117.541C276.854 117.541 277.241 117.618 277.705 117.618C277.937 117.618 278.169 117.696 278.401 117.696C278.866 117.696 279.253 117.618 279.717 117.696C280.181 117.773 280.723 117.696 281.187 117.696C281.652 117.696 282.116 117.773 282.58 117.773C282.89 117.773 283.199 117.696 283.586 117.696C284.051 117.696 284.592 117.773 285.134 117.773C285.599 117.696 286.218 117.696 286.45 117.154C286.605 116.767 286.759 116.38 286.759 115.916C286.837 114.368 286.759 112.82 286.759 111.195C286.759 110.498 286.759 109.802 286.759 109.183C286.759 108.254 286.991 107.403 286.837 106.552C286.759 106.165 286.914 106.087 287.301 106.087C287.533 106.087 287.688 106.087 287.92 106.087C288.23 106.01 288.617 106.01 288.926 105.933C289.158 105.933 289.313 105.933 289.468 105.933C290.087 105.855 290.629 105.7 291.248 105.623C291.557 105.546 291.867 105.468 292.176 105.313C292.486 105.313 292.718 105.236 292.95 105.159C293.105 105.159 293.337 105.159 293.492 105.081C293.724 104.849 294.034 104.849 294.343 104.772C294.885 104.617 295.427 104.462 295.969 104.23C296.278 104.153 296.51 103.998 296.742 103.843C297.052 103.766 297.361 103.611 297.671 103.534C297.826 103.456 298.058 103.379 298.213 103.379C298.754 103.301 299.141 102.992 299.606 102.76C299.761 102.682 299.838 102.45 300.147 102.45C300.612 102.373 300.921 102.063 301.308 101.676C301.618 101.367 302.082 101.135 302.546 100.902C302.701 100.825 302.933 100.67 303.088 100.593C303.243 100.515 303.398 100.438 303.553 100.283C303.785 100.128 304.017 99.8963 304.249 99.7415C304.404 99.5868 304.636 99.5094 304.868 99.3546C305.178 99.045 305.565 98.7355 305.874 98.3486C305.874 98.3486 305.874 98.3486 305.952 98.3486C306.106 98.1938 306.338 98.039 306.493 97.8068C306.648 97.4973 306.88 97.2651 307.19 97.1103C307.345 97.1103 307.422 96.8782 307.499 96.8008C307.577 96.646 307.731 96.4912 307.809 96.3365C307.886 96.1817 308.041 96.1043 308.118 95.9495C308.273 95.7174 308.273 95.3304 308.66 95.3304C308.738 95.253 308.738 95.253 308.738 95.1756C308.892 94.9435 309.124 94.7113 309.202 94.4791C309.357 94.0922 309.666 93.7053 309.821 93.2409C310.131 92.3897 310.595 91.6158 310.982 90.7645C311.059 90.6098 311.059 90.3776 311.137 90.2228C311.214 89.9133 311.291 89.6811 311.369 89.3715C311.369 89.2942 311.446 89.1394 311.446 89.062C311.523 88.8298 311.523 88.5977 311.601 88.3655C311.601 88.1333 311.678 87.9786 311.678 87.7464C311.678 87.3595 311.678 86.8951 311.678 86.5082C311.756 86.1212 311.756 85.7343 311.756 85.3474C311.756 85.0378 311.678 84.6509 311.678 84.2639ZM296.278 88.7524C295.969 89.2168 295.582 89.6037 295.195 89.9906C295.195 90.068 295.04 90.1454 294.962 90.2228C294.576 90.455 294.189 90.6871 293.724 90.9967C293.647 91.0741 293.569 91.1515 293.492 91.1515C292.641 91.461 291.79 91.848 290.938 92.0801C290.319 92.2349 289.623 92.3123 288.926 92.3897C288.539 92.4671 288.075 92.5445 287.611 92.6218C287.456 92.6218 287.224 92.5445 286.991 92.5445C286.991 92.2349 286.991 92.0027 286.991 91.7706C286.991 91.6158 287.069 91.461 286.991 91.3062C286.759 90.455 287.069 89.6037 286.991 88.7524C286.991 87.9786 286.991 87.2821 286.991 86.5082C287.069 85.8891 287.069 85.1926 287.069 84.5735C287.069 84.1865 287.069 83.877 286.991 83.4901C286.991 83.0257 286.991 82.484 286.991 82.0197C286.991 81.478 287.069 80.9362 287.069 80.3171C287.069 80.1624 287.069 80.0076 287.069 79.7754C287.533 79.8528 287.92 79.8528 288.307 79.9302C288.771 79.9302 289.313 80.0076 289.777 80.1624C290.242 80.2398 290.629 80.3945 291.093 80.5493C291.48 80.7041 291.867 80.8589 292.254 81.0136C292.563 81.1684 292.796 81.3232 293.105 81.478C293.26 81.5554 293.337 81.7101 293.492 81.7875C294.266 81.9423 294.73 82.5614 295.272 83.1031C295.582 83.4127 295.891 83.6448 296.123 84.0318C296.588 84.7283 296.897 85.5795 296.975 86.4308C296.975 86.5856 296.975 86.7404 297.052 86.9725C297.052 87.669 296.742 88.2107 296.278 88.7524ZM374.077 98.8129C374.154 98.7355 374.077 98.6581 374.077 98.5033C374.077 98.3486 373.999 98.1164 373.999 97.9616C373.999 97.4973 373.999 97.1103 373.922 96.7234C373.922 96.1817 373.844 95.64 373.767 95.0983C373.767 94.247 373.69 93.3957 373.38 92.5445C373.225 92.2349 372.993 91.848 372.993 91.461C372.761 90.5324 372.374 89.6037 371.755 88.8298C371.368 88.3655 370.981 87.9786 370.594 87.5142C369.975 86.7404 369.201 85.9665 368.427 85.3474C367.576 84.6509 366.647 84.0318 365.719 83.4901C365.254 83.1805 364.713 82.9483 364.171 82.7162C363.32 82.4066 362.468 82.0197 361.617 81.6327C361.23 81.478 360.766 81.478 360.379 81.4006C359.605 81.2458 358.831 81.1684 358.057 81.091C357.825 81.0136 357.593 80.9362 357.361 80.9362C357.051 80.9362 356.742 80.9362 356.51 80.9362C356.277 80.8589 355.968 80.8589 355.736 80.8589C355.271 80.8589 354.807 80.9362 354.343 80.9362C353.956 81.0136 353.569 81.0136 353.182 81.091C352.872 81.091 352.563 81.1684 352.253 81.2458C352.176 81.2458 352.021 81.1684 352.021 81.091C351.944 80.5493 351.944 80.0076 351.944 79.3885C351.944 79.0016 352.253 78.6146 352.563 78.6146C352.872 78.5372 353.182 78.5372 353.491 78.5372C354.033 78.5372 354.575 78.5372 355.117 78.5372C355.503 78.5372 355.813 78.3824 356.123 78.3824C357.283 78.3051 358.367 78.3051 359.45 78.3051C360.069 78.3051 360.688 78.3824 361.23 78.4598C362.236 78.6146 363.242 78.5372 364.248 78.4598C364.713 78.3824 365.177 78.4598 365.564 78.3824C365.951 78.3824 366.338 78.3051 366.802 78.2277C367.034 78.2277 367.344 78.1503 367.576 78.1503C368.04 78.0729 368.427 78.0729 368.814 78.0729C369.433 77.9955 369.975 77.9955 370.594 77.9955C371.291 78.0729 371.832 77.7633 371.987 76.9895C372.064 76.6799 372.064 76.293 372.064 75.906C371.987 75.0548 371.91 74.2035 371.987 73.2748C372.064 72.6557 371.987 71.9592 371.987 71.2627C371.987 70.4889 371.987 69.715 371.987 68.8637C372.064 68.0125 372.064 67.2386 371.523 66.5421C371.291 66.1551 370.981 65.8456 370.517 65.7682C369.124 65.7682 367.808 65.7682 366.415 65.7682C365.487 65.7682 364.558 65.7682 363.629 65.7682C362.778 65.7682 361.849 65.6908 360.921 65.6908C360.302 65.6908 359.76 65.6908 359.141 65.6908C358.909 65.6908 358.754 65.6134 358.522 65.6134C357.67 65.6134 356.819 65.6134 355.968 65.6908C354.884 65.6908 353.801 65.6908 352.717 65.6908C352.331 65.6908 351.866 65.6908 351.479 65.6908C350.86 65.6908 350.241 65.6908 349.622 65.6908C348.771 65.7682 347.997 65.923 347.146 65.6908C347.068 65.6908 346.991 65.6908 346.991 65.6908C346.062 65.7682 345.211 65.8456 344.36 65.8456C343.508 65.8456 342.657 65.8456 341.728 66.0004C341.341 66.0778 340.955 66.0004 340.568 65.923C340.103 65.7682 339.02 66.0778 338.865 66.5421C338.71 66.8516 338.633 67.316 338.71 67.7029C338.71 68.7089 338.788 69.715 338.865 70.721C338.865 71.0306 338.788 71.3401 338.788 71.7271C338.788 72.5783 338.865 73.507 338.865 74.4357C338.942 75.0548 339.02 75.5965 339.097 76.2156C339.097 76.5251 339.097 76.9121 339.175 77.2216C339.175 77.3764 339.097 77.4538 339.097 77.6086C339.097 78.1503 339.175 78.692 339.175 79.1563C339.175 79.3885 339.175 79.6207 339.175 79.8528C339.175 80.3171 339.175 80.7815 339.175 81.2458C339.175 81.9423 339.252 82.6388 339.252 83.3353C339.329 83.7996 339.329 84.2639 339.329 84.7283C339.329 85.0378 339.329 85.3474 339.329 85.5795C339.407 86.3534 339.484 87.1273 339.407 87.9012C339.407 88.4429 339.407 88.9846 339.484 89.5263C339.562 89.9133 339.716 90.3002 339.716 90.6098C339.639 91.5384 339.562 92.3897 339.562 93.2409C339.562 93.7053 339.794 94.0148 340.181 94.0148C340.722 94.0922 341.264 94.0148 341.728 93.9374C342.038 93.9374 342.347 93.7827 342.657 93.7827C342.967 93.7827 343.354 93.7827 343.74 93.7827C344.282 93.7053 344.901 93.7053 345.52 93.6279C345.83 93.6279 346.217 93.7827 346.449 93.7827C346.913 93.6279 347.378 93.5505 347.919 93.6279C347.919 93.7053 347.919 93.6279 347.919 93.6279C348.771 93.7053 349.622 93.7053 350.473 93.7827C351.015 93.7827 351.479 93.7827 351.944 93.6279C352.64 93.3183 353.414 93.0862 354.11 92.9314C354.343 92.854 354.575 92.854 354.807 92.854C355.503 92.854 356.123 92.854 356.664 93.1636C357.129 93.3183 357.438 93.7827 358.057 93.7827C358.444 94.0148 358.831 94.247 359.141 94.4791C359.295 94.6339 359.45 94.8661 359.528 95.0209C359.76 95.4078 359.837 95.8721 359.915 96.2591C360.069 96.7234 360.224 97.2651 360.147 97.7294C360.147 98.2712 360.379 98.7355 360.147 99.2772C359.992 99.6641 359.992 100.128 359.76 100.438C359.682 100.825 359.373 101.135 359.141 101.367C358.831 101.831 358.367 101.986 357.825 102.141C357.748 102.141 357.748 102.141 357.67 102.141C357.283 102.528 356.819 102.528 356.355 102.373C356.277 102.373 356.2 102.45 356.123 102.45C355.89 102.373 355.581 102.295 355.349 102.218C354.807 102.063 354.265 101.908 353.724 101.521C353.259 101.135 352.872 100.748 352.563 100.206C352.408 99.8189 352.253 99.3546 352.176 98.8903C352.098 98.5807 352.098 98.2712 352.098 98.039C352.098 97.9616 352.098 97.8842 352.098 97.8068C351.944 97.7294 351.944 97.5747 351.866 97.4199C351.634 97.3425 351.402 97.2651 351.17 97.1877H350.938C350.164 97.1877 349.467 97.2651 348.771 97.2651C348.693 97.2651 348.693 97.2651 348.616 97.2651C348.306 97.2651 347.919 97.1877 347.532 97.1877H346.604C346.372 97.1877 346.14 97.1877 345.985 97.2651C345.675 97.2651 345.366 97.2651 345.133 97.2651C344.514 97.3425 343.973 97.3425 343.354 97.3425C342.193 97.2651 341.109 97.2651 339.948 97.2651C339.871 97.2651 339.871 97.1877 339.794 97.1877C339.639 97.2651 339.562 97.3425 339.407 97.3425C339.02 97.7294 338.865 98.1938 338.942 98.7355C338.942 98.8129 338.942 98.8903 338.942 98.9677C338.865 99.3546 338.942 99.7415 339.02 100.128C339.097 100.361 339.097 100.67 339.175 100.902C339.252 101.289 339.329 101.676 339.407 102.141C339.407 102.295 339.407 102.528 339.407 102.682C339.484 103.224 339.639 103.611 339.794 104.075C339.794 104.772 340.026 105.391 340.181 106.01C340.181 106.165 340.181 106.32 340.258 106.397C340.49 106.939 340.722 107.48 341.032 108.022C341.109 108.254 341.187 108.564 341.341 108.796C341.806 109.415 342.193 110.189 342.58 110.808C342.657 110.963 342.734 111.04 342.812 111.118C343.044 111.427 343.354 111.659 343.663 111.969C344.205 112.433 344.747 112.975 345.288 113.439C345.598 113.671 345.985 113.749 346.294 113.981C346.913 114.523 347.687 114.832 348.461 115.219C348.693 115.374 349.003 115.606 349.235 115.683C349.777 115.916 350.241 115.993 350.783 116.148H350.86C350.938 116.225 351.015 116.225 351.092 116.225C351.247 116.303 351.479 116.38 351.634 116.38C352.098 116.535 352.563 116.69 353.027 116.767C353.801 116.922 354.575 117.076 355.426 117.231C355.89 117.231 356.432 117.231 356.896 117.231C357.206 117.309 357.516 117.309 357.748 117.231C357.98 117.231 358.212 117.231 358.444 117.231C358.676 117.231 358.909 117.154 359.141 117.076C359.682 116.999 360.147 116.999 360.611 116.844C360.998 116.767 361.385 116.69 361.694 116.612C361.849 116.535 362.081 116.535 362.236 116.457C362.546 116.38 362.933 116.225 363.32 116.07C363.707 115.916 364.171 115.993 364.558 115.683C364.635 115.606 364.79 115.529 364.945 115.451C365.332 115.451 365.564 115.142 365.873 114.91C366.338 114.677 366.725 114.445 367.112 114.213C367.421 113.904 367.886 113.671 368.195 113.439C368.659 113.13 369.124 112.743 369.511 112.433C369.975 112.124 370.362 111.814 370.749 111.427C371.136 111.04 371.445 110.576 371.832 110.112C372.064 109.725 372.374 109.415 372.529 109.028C372.761 108.641 372.916 108.177 373.148 107.79C373.225 107.48 373.457 107.171 373.457 106.861C373.612 105.933 373.844 105.004 373.844 104.075C373.922 103.456 373.844 102.76 373.767 102.141C373.844 101.831 373.844 101.521 373.922 101.212C373.999 100.438 374.077 99.5868 374.077 98.8129Z" fill="#FCFCFC"/>
</svg>
