<svg width="489" height="217" viewBox="0 0 489 217" fill="none" xmlns="http://www.w3.org/2000/svg">
<path d="M0 114.199L99.3941 212.287H448.173L348.879 114.199L448.173 16.21H99.3941L0 114.199Z" fill="#0F0F0F"/>
<path d="M40.0976 118.837L139.492 216.925H488.271L388.977 118.837L488.271 20.8477H139.492L40.0976 118.837Z" fill="#FE7624"/>
<path d="M2.99976 102.16L104.594 202.419H458.373L356.879 102.16L458.373 2H104.594L2.99976 102.16Z" stroke="#205EFF" stroke-width="3.8224" stroke-miterlimit="10"/>
<path d="M138.653 106.752C138.575 106.133 138.575 105.514 138.575 104.895V104.817C138.575 104.508 138.575 104.198 138.575 103.811C138.575 103.502 138.498 103.27 138.421 103.192L138.266 102.573C138.111 102.031 137.956 101.49 137.802 100.948C137.724 100.793 137.647 100.484 137.569 100.252C137.26 99.7872 137.028 99.3228 136.795 98.8585L136.641 98.549C136.563 98.3942 136.486 98.3168 136.409 98.162C136.176 97.7751 136.022 97.3881 135.789 97.0012C135.635 96.769 135.48 96.5369 135.325 96.3821C135.17 96.1499 135.016 95.9178 134.938 95.6856C134.629 94.9891 134.164 94.5248 133.777 94.0605C133.545 93.9057 133.39 93.6735 133.236 93.5187C133.158 93.4414 133.081 93.2866 132.926 93.2092C132.771 93.0544 132.694 92.977 132.539 92.8223C132.152 92.5127 131.765 92.2032 131.378 91.8936C131.069 91.6614 130.682 91.3519 130.295 91.1197C129.985 90.9649 129.753 90.8102 129.444 90.7328C129.289 90.6554 129.134 90.578 129.057 90.5006C128.979 90.4232 128.902 90.4232 128.747 90.3458C128.67 90.2684 128.438 90.1137 128.205 90.0363C127.818 89.8041 127.432 89.6493 126.967 89.4172C126.89 89.3398 126.735 89.2624 126.58 89.2624C126.503 89.185 126.503 89.185 126.425 89.185C126.193 89.0302 125.806 88.7981 125.342 88.7207C125.265 88.7207 125.187 88.6433 125.11 88.6433C124.723 88.4885 124.259 88.2564 123.562 88.179C123.098 88.0242 122.633 87.8694 122.247 87.792C122.014 87.7146 121.86 87.6373 121.627 87.6373C121.55 87.6373 121.395 87.6373 121.318 87.7146C121.24 87.7146 121.086 87.7146 121.008 87.7146C120.776 87.792 120.621 87.792 120.467 87.792C120.467 87.792 120.467 87.792 120.389 87.792C119.461 87.4051 118.609 87.2503 117.758 87.0955C117.681 87.0955 117.681 87.0955 117.603 87.0955H117.526C117.294 86.9408 117.062 86.8634 116.752 86.7086C116.675 86.6312 116.597 86.6312 116.52 86.5538C116.288 86.3217 116.055 86.0895 115.901 85.8573C115.901 85.7799 115.901 85.7799 115.901 85.7799C115.823 85.6252 115.669 85.2382 115.359 84.9287L115.282 84.8513C115.282 84.7739 115.204 84.6191 115.204 84.5417C115.204 84.387 115.204 84.2322 115.282 84.0774C115.282 84 115.282 83.9226 115.282 83.7679C115.282 83.6905 115.282 83.3809 115.359 83.2261C115.591 83.1488 115.823 82.994 116.055 82.8392C116.133 82.8392 116.133 82.7618 116.21 82.7618C116.365 82.6844 116.442 82.607 116.597 82.5297C116.752 82.5297 116.829 82.4523 116.907 82.4523C117.139 82.3749 117.448 82.2975 117.758 82.2201C118.3 82.1427 118.841 82.2201 119.306 82.5297C119.925 82.5297 120.467 82.607 121.008 82.8392C121.782 83.1488 122.169 83.8452 122.401 84.5417C122.556 84.8513 122.633 85.1608 122.788 85.4704C122.788 85.4704 122.788 85.5478 122.866 85.5478C122.943 85.7026 123.02 85.7799 123.02 85.9347C123.098 85.9347 123.098 85.9347 123.098 85.9347C123.098 86.0121 123.098 86.0895 123.175 86.0895C123.175 86.1669 123.175 86.2443 123.253 86.2443C123.33 86.3217 123.33 86.399 123.33 86.4764C123.717 87.0182 124.413 87.4051 125.187 87.5599C126.116 87.6373 127.045 87.7146 127.973 87.7146C128.128 87.7146 128.205 87.7146 128.36 87.7146C128.824 87.7146 129.211 87.7146 129.598 87.7146C129.985 87.7146 130.372 87.7146 130.759 87.7146H130.837C130.991 87.7146 131.301 87.7146 131.533 87.7146C131.765 87.792 131.997 87.792 132.307 87.792H132.384C132.926 87.792 133.468 87.8694 134.087 87.8694C134.164 87.8694 134.242 87.8694 134.396 87.8694C135.093 87.8694 135.789 87.5599 136.331 87.0182C136.873 86.399 135.944 85.7026 135.867 85.0061C135.789 84.9287 135.789 84.8513 135.789 84.7739C135.712 84.4643 135.712 84.2322 135.712 84C135.557 82.7618 135.48 81.601 135.016 80.4402C134.938 80.3628 134.861 80.208 134.861 80.1306C134.629 79.5889 134.396 78.9698 134.087 78.4281C133.777 77.809 133.313 77.1899 132.926 76.5708C132.384 75.9517 131.997 75.41 131.533 74.9456C131.301 74.6361 130.991 74.3265 130.682 74.017C130.295 73.7074 129.985 73.3979 129.753 73.0883C129.134 72.3918 128.36 71.7727 127.277 71.3084C126.039 70.6119 124.646 70.225 123.407 69.9154C123.175 69.838 123.02 69.838 122.866 69.7606C122.169 69.5285 121.395 69.3737 120.467 69.2963C120.312 69.2189 120.08 69.2189 119.925 69.2189C119.074 69.0641 118.222 68.9094 117.294 68.9094C117.216 68.9094 117.062 68.9094 116.984 68.9867C116.442 68.7546 115.978 68.6772 115.669 68.6772C115.591 68.6772 115.514 68.6772 115.514 68.6772H115.359H115.204C115.127 68.6772 115.049 68.6772 114.972 68.6772H114.895C114.74 68.6772 114.508 68.7546 114.276 68.7546C113.192 68.832 112.263 69.1415 111.49 69.4511C111.335 69.4511 111.18 69.5285 111.025 69.6059C110.716 69.6832 110.406 69.838 110.251 69.9928C110.174 69.9928 110.097 69.9928 110.019 70.0702C109.864 70.1476 109.632 70.225 109.4 70.3797C109.013 70.6119 108.626 70.7667 108.239 70.9214C107.001 71.3858 105.918 72.0823 104.912 72.9335C104.447 73.3205 103.906 73.7848 103.441 74.1717C102.977 74.5587 102.28 75.1778 101.816 76.1064C101.739 76.3386 101.584 76.6482 101.429 76.8803C101.274 77.1125 101.042 77.422 100.965 77.6542C100.578 78.2733 100.423 78.815 100.268 79.2794C100.114 79.7437 100.036 80.208 99.9588 80.6723C99.9588 80.7497 99.8814 80.9045 99.8814 80.9819C99.8814 81.1367 99.804 81.2141 99.804 81.3688C99.7266 81.8332 99.5718 82.2975 99.5718 82.8392C99.6492 83.5357 99.6492 84.1548 99.7266 84.7739C99.7266 85.0835 99.804 85.3156 99.804 85.5478C99.804 85.6252 99.804 85.7026 99.804 85.8573C99.804 86.0121 99.8814 86.1669 99.8814 86.3217C99.8814 87.0955 100.114 87.792 100.346 88.4111C100.5 88.6433 100.655 88.7981 100.733 88.9529C100.733 89.0302 100.81 89.0302 100.81 89.1076L100.887 89.185C101.042 90.0363 101.429 90.7328 102.126 91.2745C102.667 91.8162 103.209 92.3579 103.751 93.0544C104.06 93.5187 104.37 93.8283 104.679 94.1379C104.757 94.2152 104.834 94.2926 104.912 94.37C105.144 94.6022 105.453 94.757 105.608 94.9117C105.685 94.9117 105.763 94.9891 105.763 94.9891C105.84 95.0665 105.918 95.0665 105.995 95.1439C106.072 95.2213 106.15 95.2987 106.227 95.3761C106.382 95.4534 106.459 95.5308 106.614 95.6082C106.924 95.8404 107.311 96.1499 107.775 96.3821C108.394 96.6917 109.091 96.9238 109.71 97.156C110.174 97.3108 110.638 97.4655 111.025 97.5429C111.257 97.6203 111.49 97.6977 111.644 97.7751C112.031 97.8525 112.496 98.0072 112.883 98.162C112.96 98.162 113.037 98.2394 113.115 98.2394C113.192 98.3168 113.347 98.3942 113.579 98.4716C113.811 98.549 113.966 98.549 114.121 98.6264C114.198 98.6264 114.276 98.6264 114.353 98.7037C114.972 99.0907 115.591 99.3228 116.133 99.4002C116.288 99.4776 116.52 99.555 116.675 99.555C116.984 99.7098 117.294 99.7872 117.526 99.8646C117.603 99.8646 117.758 99.9419 117.835 99.9419C118.145 100.174 118.455 100.329 118.532 100.329C118.687 100.406 118.841 100.406 118.919 100.484C119.074 100.561 119.383 100.638 119.383 100.716C119.77 101.025 120.157 101.18 120.389 101.258C120.621 101.49 120.854 101.799 121.163 102.031C121.24 102.109 121.318 102.186 121.318 102.264C121.395 102.264 121.473 102.341 121.473 102.418C121.55 102.496 121.627 102.651 121.627 102.805C122.014 103.579 122.324 104.353 122.324 105.05C122.247 106.056 122.092 106.829 121.86 107.603C121.86 107.603 121.86 107.603 121.782 107.681C121.55 107.836 121.163 108.068 120.854 108.455C120.776 108.532 120.621 108.532 120.621 108.609L120.389 108.687C119.847 108.919 119.306 109.151 118.841 109.306C118.687 109.383 118.532 109.383 118.532 109.383C118.222 109.306 117.99 109.229 117.758 109.151C117.526 109.074 117.294 108.996 117.139 108.919C116.907 108.842 116.675 108.764 116.442 108.687C116.055 108.532 115.746 108.377 115.359 108.3C115.282 108.222 115.127 108.068 115.049 107.99C114.972 107.913 114.895 107.836 114.817 107.758C114.662 107.526 114.43 107.216 114.043 106.984C113.734 106.675 113.579 106.288 113.347 105.591C113.27 105.204 113.192 104.895 113.115 104.585C113.037 104.121 112.883 103.579 112.728 103.115C112.496 102.186 111.644 101.567 110.484 101.567C110.406 101.567 110.406 101.567 110.329 101.567C110.097 101.567 109.864 101.567 109.555 101.567C109.4 101.567 109.245 101.567 109.091 101.567C108.936 101.567 108.781 101.567 108.704 101.567C108.549 101.567 108.394 101.567 108.317 101.567C107.775 101.567 107.388 101.567 106.924 101.567C106.382 101.567 105.84 101.49 105.376 101.49C104.757 101.412 104.138 101.412 103.519 101.335C103.286 101.335 102.977 101.335 102.667 101.335C102.435 101.335 102.203 101.335 101.971 101.335C101.816 101.335 101.661 101.335 101.429 101.335C101.352 101.335 101.197 101.335 101.12 101.412C100.655 101.258 100.268 101.258 99.804 101.258C99.4171 101.258 99.0301 101.258 98.6432 101.335C98.0241 101.49 97.4824 101.644 97.0954 101.954C97.0954 102.496 97.018 103.037 97.018 103.579C96.9406 105.436 96.9406 107.371 97.3276 109.229C97.405 109.848 97.5597 110.467 97.7145 111.008C97.7145 111.086 97.7145 111.086 97.7919 111.163C97.8693 111.318 97.9467 111.395 98.0241 111.55C98.1015 111.628 98.1788 111.705 98.1788 111.782C98.2562 111.86 98.2562 111.86 98.2562 111.937C98.4884 112.866 98.8753 113.562 99.4944 114.181C99.5718 114.336 99.6492 114.491 99.804 114.646C99.8814 114.723 99.9588 114.878 100.036 114.955C100.114 115.11 100.191 115.187 100.268 115.265V115.342C100.578 115.652 100.81 116.039 101.12 116.348C101.429 116.658 101.661 116.89 101.971 117.122C102.048 117.199 102.203 117.354 102.28 117.432C102.358 117.432 102.435 117.509 102.513 117.586C102.822 117.896 103.209 118.283 103.906 118.592C103.983 118.67 104.06 118.747 104.138 118.825C104.602 119.212 105.144 119.753 105.918 120.063C106.072 120.14 106.305 120.218 106.382 120.295C107.156 120.991 108.007 121.378 108.781 121.688C108.936 121.843 109.168 121.92 109.323 121.998C110.019 122.307 110.716 122.539 111.335 122.771C111.644 122.849 111.877 122.926 112.109 123.004C113.115 123.313 114.121 123.391 115.049 123.391C115.282 123.468 115.591 123.468 115.901 123.468C116.21 123.468 116.675 123.545 117.062 123.623C117.526 123.777 117.835 123.777 118.222 123.777C118.532 123.777 118.841 123.777 119.151 123.7H119.228C119.306 123.7 119.306 123.7 119.383 123.7C119.538 123.7 119.693 123.7 119.847 123.7C120.234 123.7 120.621 123.7 121.008 123.623C121.395 123.623 122.014 123.545 122.556 123.236C122.788 123.158 123.098 123.081 123.485 123.004C123.485 123.004 123.562 123.004 123.64 123.004C124.104 122.926 124.646 122.849 125.187 122.694C125.729 122.462 126.116 122.307 126.58 122.075C126.735 121.998 126.89 121.92 127.045 121.843C127.277 121.765 127.432 121.688 127.664 121.611C128.128 121.456 128.67 121.224 129.211 120.914C129.289 120.837 129.444 120.759 129.598 120.682C130.217 120.372 130.991 119.985 131.688 119.366C131.843 119.212 132.152 118.979 132.384 118.825C132.771 118.592 133.158 118.283 133.468 117.973C134.319 117.122 135.016 116.348 135.635 115.652C136.099 115.033 136.409 114.336 136.641 113.717C136.641 113.64 136.718 113.562 136.718 113.485C136.795 113.253 136.873 113.098 136.95 112.943C137.105 112.556 137.26 112.247 137.415 112.014C137.956 111.241 138.266 110.389 138.421 109.538C138.421 109.306 138.421 109.074 138.498 108.764C138.575 108.145 138.653 107.526 138.653 106.752ZM185.843 80.5176C185.843 80.208 185.843 79.8985 185.843 79.5889C185.843 79.1246 185.843 78.7376 185.843 78.2733C185.843 77.8864 185.843 77.4994 185.843 77.1125C185.843 76.9577 185.843 76.8029 185.843 76.6482C185.766 76.3386 185.688 76.1064 185.766 75.8743C185.766 75.2552 185.843 74.6361 185.843 74.017C185.843 73.4753 185.843 72.9335 185.843 72.3918C185.843 71.8501 185.921 71.3084 185.921 70.7667C185.921 70.6893 185.843 70.5345 185.766 70.4571C185.301 70.225 184.914 69.9154 184.295 70.0702C183.908 70.1476 183.444 70.1476 182.98 70.1476C182.593 70.0702 182.129 70.0702 181.742 70.0702C181.045 69.9928 180.426 70.0702 179.729 69.9928C179.497 69.9928 179.188 69.9928 178.956 69.9928C178.491 69.9928 178.027 69.9928 177.485 69.9928C177.33 69.9928 177.098 69.9928 176.866 69.9928C176.324 70.0702 175.783 70.1476 175.241 70.1476C174.158 70.0702 173.074 69.9154 171.913 70.1476C171.681 70.1476 171.449 70.1476 171.217 70.225C170.985 70.225 170.83 70.225 170.598 70.225C170.52 70.225 170.443 70.3023 170.288 70.3023C169.824 70.3023 169.282 70.225 168.818 70.225C168.199 70.225 167.58 70.3023 166.96 70.3023C166.109 70.3023 165.258 70.225 164.407 70.225C164.097 70.225 163.71 70.1476 163.401 70.1476C162.627 70.1476 161.853 70.225 161.079 69.9928C160.769 69.9154 160.382 69.9928 159.996 69.9928C158.989 70.0702 157.906 69.9928 156.9 69.9154C156.513 69.838 156.049 69.7606 155.662 69.7606C154.965 69.7606 154.269 69.838 153.572 69.838C153.263 69.9154 152.953 69.9154 152.566 69.9154C152.102 69.838 151.638 69.7606 151.096 69.7606C150.864 69.7606 150.554 69.7606 150.245 69.7606C149.935 69.7606 149.626 69.6832 149.316 69.7606C148.852 69.7606 148.387 69.9154 148 69.838C147.613 69.7606 147.149 69.7606 146.762 69.7606C146.066 69.838 145.369 69.9928 144.673 69.838C144.518 69.838 144.286 69.838 144.131 69.7606C143.589 69.6832 143.28 70.0702 142.893 70.3023C142.815 70.3797 142.815 70.4571 142.815 70.5345C142.815 70.9988 142.815 71.3858 142.815 71.8501C142.815 72.3144 142.815 72.7788 142.815 73.2431C142.815 73.7074 142.893 74.2491 142.893 74.7135C142.893 75.1778 142.97 75.5647 142.893 76.0291C142.893 76.416 142.738 76.8029 142.893 77.1899C142.97 77.2673 142.893 77.3447 142.893 77.422C142.738 78.1185 142.815 78.7376 142.893 79.4341C142.893 79.6663 142.815 79.9758 142.815 80.208C142.815 80.5949 142.893 80.9819 142.815 81.3688C142.815 81.8332 142.661 82.2975 143.048 82.6844V82.7618C143.202 83.1488 143.202 83.4583 143.512 83.7679C143.667 83.8452 143.667 84 143.667 84.1548C143.667 84.4643 143.899 84.4643 144.131 84.4643C144.595 84.387 145.137 84.387 145.601 84.387C146.375 84.387 147.072 84.4643 147.768 84.4643C148.697 84.4643 149.626 84.4643 150.554 84.4643C150.786 84.4643 151.019 84.4643 151.251 84.4643C151.638 84.4643 151.947 84.387 152.334 84.387C153.031 84.4643 153.65 84.4643 154.346 84.4643C154.888 84.5417 155.43 84.5417 156.049 84.4643C156.126 84.4643 156.281 84.5417 156.281 84.6965C156.204 85.1608 156.204 85.7026 156.204 86.1669C156.281 86.8634 156.281 87.4825 156.358 88.179C156.358 88.7207 156.281 89.2624 156.281 89.8041C156.281 89.9589 156.281 90.1911 156.281 90.4232C156.281 90.8102 156.281 91.2745 156.358 91.6614C156.358 92.2032 156.358 92.7449 156.358 93.2866C156.358 93.4414 156.358 93.5961 156.358 93.7509C156.358 94.1379 156.358 94.5248 156.358 94.8343C156.358 95.0665 156.436 95.2987 156.436 95.5308C156.358 96.3047 156.358 97.0786 156.281 97.7751C156.281 98.0846 156.436 98.3168 156.436 98.549C156.436 99.0907 156.358 99.6324 156.281 100.174C156.281 100.871 156.358 101.49 156.358 102.186C156.281 103.037 156.204 103.811 156.436 104.585C156.436 104.663 156.436 104.74 156.436 104.817C156.436 105.204 156.358 105.669 156.358 106.133C156.358 106.21 156.358 106.288 156.358 106.443C156.358 106.907 156.436 107.449 156.436 107.99C156.436 108.377 156.358 108.842 156.358 109.306C156.358 109.693 156.513 110.157 156.436 110.544C156.436 110.931 156.358 111.318 156.436 111.705C156.436 112.247 156.281 112.788 156.513 113.33C156.513 113.407 156.513 113.485 156.513 113.562C156.204 114.336 156.436 115.11 156.358 115.806C156.358 116.348 156.436 116.813 156.436 117.354C156.436 117.586 156.358 117.741 156.436 117.973C156.513 118.515 156.513 119.057 156.436 119.599C156.358 120.063 156.513 120.45 156.668 120.914C156.977 121.378 157.287 121.688 157.829 121.688C158.912 121.688 159.996 121.765 161.079 121.765C162.317 121.765 163.555 121.765 164.794 121.765C165.49 121.765 166.187 121.688 166.883 121.688C167.502 121.688 168.044 121.688 168.586 121.688C168.663 121.765 168.663 121.765 168.663 121.765C169.514 121.765 170.443 121.688 171.372 121.688C171.759 121.611 172.145 121.378 172.145 120.991C172.223 120.218 172.378 119.444 172.378 118.67C172.378 117.819 172.3 116.967 172.3 116.116C172.223 114.568 172.223 113.021 172.223 111.473C172.145 110.776 172.068 110.08 172.068 109.383C172.068 108.687 172.068 107.99 172.068 107.216C172.068 105.978 172.068 104.74 171.913 103.424C171.836 102.341 171.991 101.335 171.913 100.252C171.836 99.3228 171.836 98.3942 171.836 97.4655C171.836 96.6917 171.759 95.8404 171.759 95.0665C171.759 94.2926 171.759 93.5187 171.759 92.7449C171.759 91.8162 171.681 90.9649 171.604 90.1137C171.604 89.1076 171.604 88.0242 171.604 87.0182C171.526 86.3217 171.526 85.7026 171.449 85.0061C171.449 84.7739 171.526 84.6965 171.759 84.6965C172.068 84.6965 172.378 84.7739 172.687 84.7739C174.158 84.6965 175.628 84.6965 177.021 84.6965C177.253 84.6965 177.485 84.7739 177.717 84.7739C178.569 84.6965 179.343 84.6965 180.116 84.6965C180.968 84.6965 181.742 84.6965 182.593 84.6965C183.212 84.6965 183.831 84.6191 184.45 84.6191C184.76 84.6191 184.992 84.7739 184.992 84.3096L185.069 84.2322C185.224 83.8452 185.379 83.5357 185.611 83.1488C185.688 82.994 185.766 82.8392 185.843 82.6844C185.843 82.607 185.921 82.5297 185.921 82.4523C185.921 81.8332 185.921 81.2141 185.843 80.5176ZM229.129 72.0049C228.897 71.6179 228.742 71.231 228.278 71.0762C227.659 70.7667 227.117 70.5345 226.42 70.7667C226.343 70.7667 226.343 70.7667 226.266 70.7667C225.724 70.7667 225.26 70.7667 224.718 70.7667C224.331 70.7667 223.944 70.6893 223.557 70.6893C223.015 70.6893 222.474 70.6893 221.932 70.6893C221.235 70.7667 220.462 70.6893 219.765 70.6893C219.533 70.6893 219.378 70.6893 219.146 70.6893C218.914 70.6893 218.759 70.6893 218.527 70.6893C217.598 70.6893 216.67 70.6119 215.741 70.6119C215.277 70.6119 214.812 70.5345 214.348 70.5345C213.419 70.5345 212.568 70.6119 211.717 70.6119C210.943 70.6119 210.169 70.6119 209.472 70.5345C208.776 70.4571 208.157 70.5345 207.46 70.5345C207.383 70.5345 207.306 70.5345 207.228 70.5345C206.764 70.4571 206.3 70.4571 205.835 70.4571C205.294 70.4571 204.674 70.4571 204.133 70.4571C203.668 70.4571 203.127 70.4571 202.662 70.3797C202.043 70.3797 201.424 70.4571 200.882 70.3797C200.65 70.3797 200.495 70.3023 200.341 70.3023C199.489 70.3023 198.638 70.3797 197.787 70.3797C197.787 70.3797 197.709 70.3797 197.709 70.3023C197.555 70.3023 197.477 70.225 197.323 70.225C196.936 70.225 196.471 70.3023 196.084 70.3023C195.62 70.3797 195.078 70.4571 194.537 70.3797C194.072 70.225 193.608 70.3023 193.144 70.3797C193.066 70.3797 192.911 70.4571 192.757 70.4571C192.447 70.4571 192.138 70.3797 191.828 70.3023C190.59 70.225 189.971 71.1536 190.048 72.3144C190.125 72.7014 190.048 73.0109 190.048 73.3979C190.048 73.63 189.971 73.7848 189.971 73.9396C189.971 74.7908 190.048 75.5647 190.048 76.3386C190.048 76.416 190.048 76.4934 190.048 76.5708C190.048 76.8803 190.125 77.1125 190.125 77.3447C190.048 77.8864 190.048 78.4281 189.971 78.9698C189.971 79.2794 189.971 79.5115 190.048 79.8211C190.125 80.208 190.203 80.5949 190.048 80.9819C189.971 81.0593 189.971 81.2141 189.971 81.3688C190.048 81.601 190.048 81.8332 190.048 81.9879C190.048 82.6844 190.048 83.3035 190.048 84C190.048 84.0774 190.048 84.0774 190.048 84.1548C189.971 84.6965 189.971 85.3156 189.971 85.8573C190.048 86.399 190.048 86.9408 190.048 87.4825C190.048 88.179 189.971 88.8755 189.971 89.572C189.971 90.1137 190.048 90.6554 190.048 91.2745C190.048 91.7388 189.893 92.2805 189.893 92.7449C189.971 93.2092 190.048 93.5961 189.971 94.0605C189.893 94.4474 189.893 94.8343 189.893 95.2213C189.893 95.9952 189.893 96.769 189.893 97.5429C189.971 98.0072 190.048 98.4716 190.048 99.0133C190.048 99.4002 189.971 99.8646 189.971 100.252C189.971 101.103 189.893 101.954 189.893 102.805C189.893 103.27 189.971 103.734 189.971 104.198C189.971 104.43 189.893 104.663 189.893 104.895C189.893 105.282 189.971 105.669 189.893 105.978C189.893 106.984 189.893 107.913 189.893 108.919C189.893 108.996 189.971 109.151 189.971 109.306C189.971 109.383 189.971 109.461 189.971 109.538C189.971 109.77 189.893 110.08 189.893 110.312C189.893 110.776 189.893 111.163 189.893 111.628C189.893 111.937 189.893 112.324 189.893 112.711C189.893 113.407 189.971 114.104 189.971 114.8C189.971 115.342 189.816 115.884 189.893 116.426C189.971 116.89 189.971 117.277 189.816 117.741C189.816 117.819 189.816 117.896 189.816 118.051C189.893 118.592 189.816 119.134 189.971 119.676C190.125 120.527 190.358 121.146 191.286 121.224C191.441 121.224 191.518 121.224 191.673 121.224C192.989 121.224 194.304 121.224 195.697 121.224C196.549 121.224 197.4 121.224 198.251 121.146C199.567 121.146 200.805 121.146 202.043 121.146C203.049 121.146 204.055 121.301 204.984 120.914C205.061 120.914 205.139 120.914 205.139 120.914C205.758 120.991 206.454 120.837 207.073 120.914C207.693 121.069 208.312 120.991 209.008 120.991C209.55 120.991 210.169 121.069 210.711 121.069C211.639 121.069 212.568 121.069 213.497 121.069C213.961 121.069 214.348 121.069 214.812 121.069C215.973 121.146 217.211 121.146 218.449 121.146C219.533 121.146 220.694 121.146 221.855 121.146C221.932 121.146 222.087 121.146 222.241 121.146C222.706 121.224 223.093 121.224 223.48 121.224C224.254 121.301 224.95 121.301 225.724 121.301C225.956 121.224 226.188 121.224 226.42 121.224C227.194 121.069 227.504 120.605 227.504 119.831C227.504 118.902 227.504 118.051 227.504 117.199C227.504 116.89 227.581 116.658 227.581 116.426C227.581 115.884 227.504 115.342 227.504 114.8C227.504 114.414 227.581 114.027 227.581 113.562C227.581 113.407 227.581 113.175 227.581 113.021C227.581 112.788 227.581 112.634 227.581 112.479C227.581 111.782 227.581 111.163 227.581 110.544C227.659 109.848 227.659 109.229 227.504 108.609C227.659 108.222 227.426 107.913 227.349 107.603C227.349 107.526 227.272 107.449 227.194 107.371C226.807 107.294 226.42 107.062 226.034 106.984C225.492 106.907 224.873 106.907 224.331 106.907C223.557 106.907 222.861 106.907 222.087 106.907C221.855 106.907 221.7 106.829 221.468 106.829C221.081 106.829 220.771 106.829 220.384 106.829C220.307 106.829 220.152 106.829 220.075 106.829C219.61 106.829 219.069 106.907 218.604 106.752C218.449 106.752 218.217 106.752 218.063 106.752C217.83 106.752 217.598 106.829 217.366 106.829C216.747 106.829 216.205 106.752 215.586 106.675C215.199 106.675 214.735 106.675 214.271 106.675C213.884 106.752 213.419 106.752 212.955 106.752C212.336 106.675 211.717 106.675 211.098 106.597C210.324 106.597 209.55 106.597 208.776 106.675C208.466 106.675 206.222 106.675 205.913 106.675C205.448 106.675 204.984 106.675 204.52 106.675C204.365 106.675 204.21 106.675 203.978 106.597C203.978 106.597 203.901 106.52 203.901 106.443C203.823 105.978 203.901 104.508 203.901 103.966C203.901 103.811 203.901 102.573 203.901 102.341C203.901 102.186 203.901 102.109 204.133 102.109C204.674 102.186 205.216 102.186 205.68 102.109C205.913 102.031 208.079 102.031 208.234 102.109C208.621 102.264 209.008 102.186 209.395 102.109C210.014 102.031 210.633 101.722 211.252 102.186C211.33 102.186 211.33 102.186 211.407 102.186C211.871 102.109 212.336 102.031 212.8 102.186C212.8 102.264 212.8 102.186 212.878 102.186C213.264 102.186 213.574 102.186 213.961 102.186C214.657 102.186 215.354 102.186 216.05 102.264C216.36 102.264 216.67 102.186 216.902 102.264C217.83 102.418 218.836 101.567 218.914 100.948C218.991 100.406 219.146 100.871 218.991 100.252C218.991 100.252 218.991 100.174 218.991 100.097C218.991 99.8646 218.991 99.555 218.991 99.3228C218.991 99.2455 218.991 99.1681 218.991 99.0907C219.223 98.7811 219.223 98.3942 219.223 98.0072C219.301 97.0012 219.146 95.9952 219.069 94.9891C219.069 94.8343 219.069 94.6796 219.069 94.6022C219.146 94.0605 219.223 93.5187 219.301 92.977C219.378 92.2032 219.378 92.3579 219.456 91.5067C219.533 91.1197 219.456 90.7328 219.223 90.4232C218.991 90.0363 218.449 89.572 217.908 89.7267C217.753 89.7267 217.521 89.7267 217.366 89.7267C216.824 89.6493 216.283 89.6493 215.741 89.6493C214.967 89.572 214.193 89.7267 213.419 89.6493C212.723 89.572 212.104 89.6493 211.407 89.6493C211.33 89.6493 211.175 89.6493 211.098 89.6493C210.633 89.6493 210.169 89.572 209.782 89.572C209.55 89.572 209.395 89.6493 209.24 89.572C208.621 89.572 205.99 89.572 205.371 89.4946C205.216 89.4946 205.061 89.4946 204.984 89.4946C204.752 89.572 204.597 89.4946 204.365 89.4946C204.287 89.0302 204.287 87.6373 204.287 87.1729C204.21 86.6312 204.52 84.9287 204.907 84.6191C205.139 84.4643 205.448 84.3096 205.758 84.387C206.145 84.5417 208.544 84.5417 209.008 84.6191C209.163 84.6191 209.318 84.6191 209.472 84.6965C209.782 84.8513 210.092 84.9287 210.401 84.7739C210.479 84.6965 210.633 84.6965 210.711 84.6965C211.098 84.6965 211.407 84.6965 211.794 84.6965C212.336 84.6965 212.955 84.6965 213.574 84.7739C214.038 84.7739 214.58 84.8513 215.122 84.7739C215.664 84.6191 216.205 84.6191 216.824 84.6191C217.134 84.6965 217.366 84.6191 217.676 84.6191C218.295 84.7739 218.836 84.387 219.378 84.5417C219.456 84.5417 219.61 84.4643 219.688 84.4643C220.075 84.4643 220.462 84.387 220.771 84.3096C221.39 84.3096 221.932 84.387 222.551 84.387C222.706 84.387 222.783 84.387 222.938 84.387C223.325 84.387 223.712 84.5417 224.099 84.3096C224.176 84.3096 224.254 84.387 224.331 84.387C224.486 84.387 224.641 84.4643 224.795 84.387C225.182 84.1548 225.569 84.3096 225.956 84.3096C226.42 84.3096 226.807 84.387 227.272 84.387C227.349 84.387 227.349 84.3096 227.426 84.3096C227.659 84.0774 227.891 83.8452 228.2 83.6905C228.433 83.5357 228.51 83.3035 228.587 83.0714C228.587 83.0714 228.587 82.994 228.665 82.9166C228.665 82.607 228.742 82.2201 228.819 81.9105C228.819 81.2914 228.819 82.0653 228.819 81.4462L228.897 81.3688C228.897 81.2141 228.897 81.0593 228.897 80.9045C228.897 80.5949 228.897 80.2854 228.897 79.9758C228.897 79.6663 229.052 79.3567 229.129 79.0472C229.129 78.6602 229.052 78.2733 229.052 77.8864C229.052 77.6542 229.129 77.3447 229.129 77.1125C229.206 76.2612 229.206 75.41 229.206 74.6361C229.206 74.4813 229.206 74.4039 229.206 74.2491C229.206 73.5526 229.206 72.8562 229.206 72.1597C229.206 72.0823 229.206 72.0049 229.129 72.0049ZM274.339 88.179C274.339 87.9468 274.261 87.7146 274.184 87.4825C274.107 87.0182 274.107 86.5538 273.952 86.0895C273.72 85.3156 273.487 84.5417 273.178 83.6905C273.101 83.4583 273.023 83.2261 272.868 82.994C272.636 82.4523 272.327 81.9879 272.017 81.4462C271.785 80.9819 271.553 80.5176 271.166 80.0532C270.856 79.5889 270.469 79.1246 270.082 78.6602C269.695 78.1959 269.386 77.7316 268.999 77.2673C268.999 77.1899 268.844 77.1125 268.767 77.1125C268.689 76.9577 268.457 76.8803 268.38 76.8029C268.07 76.4934 267.838 76.1838 267.529 75.9517C266.987 75.5647 266.29 75.1778 265.671 74.8682C265.13 74.4813 264.588 74.1717 263.969 73.8622C263.504 73.63 263.195 73.3205 262.731 73.1657C261.415 72.624 260.022 72.1597 258.706 71.6953C257.391 71.231 256.075 70.9214 254.76 70.6893C253.986 70.5345 253.212 70.225 252.361 70.225C251.896 70.225 251.354 70.0702 250.813 70.0702C249.807 70.1476 248.878 69.838 247.872 70.0702C247.795 70.0702 247.717 70.0702 247.64 70.0702C247.253 70.0702 246.866 69.9928 246.479 69.9928C246.015 69.9928 245.473 69.9928 245.009 69.9928C244.622 69.9928 244.157 69.9928 243.77 69.9928C242.919 69.9928 242.068 69.9928 241.217 69.9154C240.443 69.9154 239.669 69.9154 238.895 69.9154C238.585 69.9154 238.276 69.9154 237.889 69.9154C237.425 69.9154 236.883 69.9154 236.419 69.838C235.877 69.838 235.49 69.9154 235.026 70.1476C234.948 70.225 234.871 70.3023 234.871 70.3797C234.484 70.9214 234.329 71.5406 234.329 72.1597C234.329 73.0109 234.329 73.8622 234.329 74.6361C234.329 75.023 234.329 75.41 234.329 75.7969C234.329 76.1838 234.407 76.6482 234.407 77.0351C234.407 77.3447 234.484 77.5768 234.484 77.809C234.484 78.6602 234.252 79.5115 234.561 80.3628C234.561 80.4402 234.561 80.5176 234.561 80.6723C234.484 80.9819 234.407 81.3688 234.407 81.7558C234.484 82.3749 234.484 82.994 234.484 83.5357C234.484 84.3096 234.484 85.0835 234.484 85.7799C234.484 86.1669 234.484 86.5538 234.561 86.8634C234.561 87.1729 234.561 87.4825 234.561 87.792C234.561 88.2564 234.561 88.6433 234.561 89.0302C234.561 89.4946 234.484 89.9589 234.484 90.3458C234.484 90.8876 234.484 91.3519 234.484 91.8936C234.484 92.3579 234.484 92.8223 234.484 93.2866C234.484 94.0605 234.561 94.8343 234.561 95.5308C234.561 96.0725 234.484 96.6143 234.484 97.0786C234.484 98.0846 234.561 99.0907 234.561 100.097C234.561 100.871 234.561 101.644 234.561 102.341C234.561 102.96 234.561 103.502 234.639 104.121C234.639 104.585 234.639 105.127 234.639 105.591C234.561 106.056 234.484 106.52 234.561 106.984C234.639 107.603 234.716 108.145 234.716 108.687C234.639 109.538 234.639 110.312 234.639 111.086C234.639 111.782 234.639 112.401 234.639 113.098C234.639 114.027 234.639 114.955 234.639 115.884C234.639 116.658 234.561 117.432 234.716 118.206C234.793 118.747 234.716 119.366 234.716 119.985C234.716 120.218 234.639 120.45 234.639 120.682C234.716 120.914 234.793 121.146 234.948 121.224C235.18 121.456 235.567 121.611 235.954 121.533C236.419 121.533 236.96 121.533 237.425 121.533C237.966 121.533 238.585 121.456 239.127 121.456C239.514 121.456 239.901 121.533 240.365 121.533C240.598 121.533 240.83 121.611 241.062 121.611C241.526 121.611 241.913 121.533 242.377 121.611C242.842 121.688 243.384 121.611 243.848 121.611C244.312 121.611 244.777 121.688 245.241 121.688C245.55 121.688 245.86 121.611 246.247 121.611C246.711 121.611 247.253 121.688 247.795 121.688C248.259 121.611 248.878 121.611 249.11 121.069C249.265 120.682 249.42 120.295 249.42 119.831C249.497 118.283 249.42 116.735 249.42 115.11C249.42 114.414 249.42 113.717 249.42 113.098C249.42 112.169 249.652 111.318 249.497 110.467C249.42 110.08 249.575 110.002 249.962 110.002C250.194 110.002 250.348 110.002 250.581 110.002C250.89 109.925 251.277 109.925 251.587 109.848C251.819 109.848 251.974 109.848 252.128 109.848C252.747 109.77 253.289 109.615 253.908 109.538C254.218 109.461 254.527 109.383 254.837 109.229C255.147 109.229 255.379 109.151 255.611 109.074C255.766 109.074 255.998 109.074 256.153 108.996C256.385 108.764 256.694 108.764 257.004 108.687C257.546 108.532 258.087 108.377 258.629 108.145C258.939 108.068 259.171 107.913 259.403 107.758C259.712 107.681 260.022 107.526 260.331 107.449C260.486 107.371 260.718 107.294 260.873 107.294C261.415 107.216 261.802 106.907 262.266 106.675C262.421 106.597 262.498 106.365 262.808 106.365C263.272 106.288 263.582 105.978 263.969 105.591C264.278 105.282 264.743 105.05 265.207 104.817C265.362 104.74 265.594 104.585 265.749 104.508C265.903 104.43 266.058 104.353 266.213 104.198C266.445 104.044 266.677 103.811 266.909 103.657C267.064 103.502 267.296 103.424 267.529 103.27C267.838 102.96 268.225 102.651 268.535 102.264C268.535 102.264 268.535 102.264 268.612 102.264C268.767 102.109 268.999 101.954 269.154 101.722C269.309 101.412 269.541 101.18 269.85 101.025C270.005 101.025 270.082 100.793 270.16 100.716C270.237 100.561 270.392 100.406 270.469 100.252C270.547 100.097 270.701 100.019 270.779 99.8646C270.934 99.6324 270.934 99.2455 271.321 99.2455C271.398 99.1681 271.398 99.1681 271.398 99.0907C271.553 98.8585 271.785 98.6264 271.862 98.3942C272.017 98.0072 272.327 97.6203 272.481 97.156C272.791 96.3047 273.255 95.5308 273.642 94.6796C273.72 94.5248 273.72 94.2926 273.797 94.1379C273.874 93.8283 273.952 93.5961 274.029 93.2866C274.029 93.2092 274.107 93.0544 274.107 92.977C274.184 92.7449 274.184 92.5127 274.261 92.2805C274.261 92.0484 274.339 91.8936 274.339 91.6614C274.339 91.2745 274.339 90.8102 274.339 90.4232C274.416 90.0363 274.416 89.6493 274.416 89.2624C274.416 88.9529 274.339 88.5659 274.339 88.179ZM258.939 92.6675C258.629 93.1318 258.242 93.5187 257.855 93.9057C257.855 93.9831 257.7 94.0605 257.623 94.1379C257.236 94.37 256.849 94.6022 256.385 94.9117C256.307 94.9891 256.23 95.0665 256.153 95.0665C255.301 95.3761 254.45 95.763 253.599 95.9952C252.98 96.1499 252.283 96.2273 251.587 96.3047C251.2 96.3821 250.735 96.4595 250.271 96.5369C250.116 96.5369 249.884 96.4595 249.652 96.4595C249.652 96.1499 249.652 95.9178 249.652 95.6856C249.652 95.5308 249.729 95.3761 249.652 95.2213C249.42 94.37 249.729 93.5187 249.652 92.6675C249.652 91.8936 249.652 91.1971 249.652 90.4232C249.729 89.8041 249.729 89.1076 249.729 88.4885C249.729 88.1016 249.729 87.792 249.652 87.4051C249.652 86.9408 249.652 86.399 249.652 85.9347C249.652 85.393 249.729 84.8513 249.729 84.2322C249.729 84.0774 249.729 83.9226 249.729 83.6905C250.194 83.7679 250.581 83.7679 250.968 83.8452C251.432 83.8452 251.974 83.9226 252.438 84.0774C252.902 84.1548 253.289 84.3096 253.754 84.4643C254.14 84.6191 254.527 84.7739 254.914 84.9287C255.224 85.0835 255.456 85.2382 255.766 85.393C255.92 85.4704 255.998 85.6252 256.153 85.7026C256.926 85.8573 257.391 86.4764 257.932 87.0182C258.242 87.3277 258.552 87.5599 258.784 87.9468C259.248 88.6433 259.558 89.4946 259.635 90.3458C259.635 90.5006 259.635 90.6554 259.712 90.8876C259.712 91.584 259.403 92.1258 258.939 92.6675ZM345.172 107.371C345.095 106.52 345.018 105.591 344.94 104.663C344.863 103.657 344.94 102.651 344.476 101.644C344.244 101.103 344.012 100.638 343.315 100.716C342.851 100.716 342.386 100.561 341.922 100.484C341.535 100.406 341.148 100.406 340.761 100.406C340.452 100.406 340.065 100.252 339.755 100.561C339.446 100.716 339.059 100.716 338.749 100.561C338.517 100.406 338.207 100.329 337.975 100.097C337.743 99.7872 337.434 99.4776 337.588 99.0133C337.588 98.9359 337.588 98.7037 337.588 98.549C337.588 97.8525 337.511 97.156 337.511 96.4595C337.511 95.9178 337.666 95.3761 337.588 94.8343C337.511 94.37 337.588 93.9057 337.588 93.364C337.588 93.1318 337.588 92.8996 337.511 92.6675C337.511 92.2032 337.511 91.7388 337.434 91.2745C337.434 91.1971 337.434 91.0423 337.434 90.9649C337.434 90.7328 337.511 90.5006 337.511 90.2684C337.511 90.1137 337.434 89.8815 337.434 89.7267C337.588 89.185 337.666 88.7207 337.434 88.179C337.434 88.1016 337.434 87.9468 337.434 87.8694C337.434 87.4051 337.511 86.8634 337.511 86.3217C337.511 86.0895 337.511 85.8573 337.511 85.6252C337.434 85.2382 337.356 84.8513 337.356 84.4643C337.434 83.8452 337.434 83.3035 337.434 82.6844C337.434 82.3749 337.434 82.1427 337.434 81.8332C337.434 81.3688 337.434 80.9045 337.434 80.3628C337.434 79.8985 337.356 79.3567 337.356 78.8924C337.356 78.815 337.356 78.7376 337.356 78.6602C337.434 78.4281 337.434 78.1185 337.434 77.809C337.356 77.1899 337.356 76.5708 337.279 75.8743C337.279 75.2552 337.201 74.5587 337.124 73.8622C337.124 73.1657 337.124 72.3918 336.892 71.6953C336.814 71.0762 337.124 70.4571 336.814 69.838V69.7606C337.047 68.9867 336.427 68.2903 335.731 68.3676C335.112 68.445 334.57 68.445 334.028 68.5224C333.642 68.5224 333.332 68.5998 332.945 68.5998C332.326 68.5998 331.707 68.6772 331.165 68.6772C331.01 68.6772 330.856 68.6772 330.778 68.6772C330.236 68.7546 329.695 68.9094 329.153 68.9094C328.379 68.9867 327.605 69.0641 326.831 69.1415C326.522 69.1415 326.135 69.1415 325.748 69.1415C324.974 69.2189 324.278 69.2189 323.504 69.2963C323.349 69.2963 323.194 69.3737 323.039 69.3737C322.575 69.3737 322.111 69.2963 321.956 69.9154C321.879 70.1476 321.646 70.3797 321.492 70.6119C321.105 71.1536 320.795 71.6179 320.486 72.1597C320.176 72.624 319.866 73.1657 319.557 73.63C319.402 73.8622 319.17 74.017 319.015 74.1717C318.783 74.5587 318.473 75.023 318.241 75.41C318.087 75.6421 317.932 75.8743 317.777 76.1064C317.467 76.6482 317.08 77.1125 316.848 77.5768C316.616 77.8864 316.539 78.1185 316.307 78.4281C316.074 78.6602 315.92 78.9698 315.688 79.202C315.378 79.5889 315.068 79.8985 314.991 80.3628C314.914 80.4402 314.836 80.5176 314.759 80.5949C314.681 80.6723 314.527 80.8271 314.449 80.9045C314.217 81.2914 313.908 81.6784 313.675 82.1427C313.598 82.2201 313.521 82.3749 313.443 82.5297C313.134 82.994 312.902 83.6131 312.36 83.9226C312.282 84 312.282 84 312.205 84.0774C312.05 84.5417 311.818 85.0061 311.431 85.3156C311.276 85.393 311.199 85.6252 311.122 85.7799C311.044 85.8573 311.044 85.9347 310.967 86.0121C310.58 86.6312 310.116 87.1729 309.729 87.792C309.496 88.1016 309.264 88.3337 309.11 88.6433C308.8 89.1076 308.49 89.572 308.181 90.0363C307.949 90.3458 307.717 90.6554 307.484 91.0423C307.252 91.5067 306.943 92.0484 306.633 92.4353C306.401 92.6675 306.246 92.8996 306.091 93.2092C306.091 93.364 306.014 93.4414 305.859 93.5187C305.627 93.8283 305.395 94.1379 305.163 94.5248C304.776 95.0665 304.466 95.6856 304.079 96.2273C303.847 96.6917 303.615 97.156 303.228 97.6203C302.764 98.2394 302.299 98.9359 302.067 99.7098C302.067 99.7872 301.912 99.8646 301.835 99.9419C301.603 100.097 301.448 100.329 301.371 100.638V103.579C301.371 103.657 301.371 103.734 301.371 103.811C301.371 104.198 301.448 104.585 301.448 105.05C301.448 105.436 301.448 105.823 301.448 106.21C301.371 106.597 301.371 107.062 301.371 107.449C301.371 107.758 301.371 108.145 301.448 108.455C301.448 108.996 301.371 109.615 301.371 110.157C301.371 110.621 301.371 111.086 301.68 111.473C301.835 111.473 302.067 111.473 302.222 111.473C302.686 111.473 303.073 111.473 303.538 111.473C303.615 111.473 303.692 111.473 303.77 111.473C304.234 111.473 304.776 111.395 305.24 111.395C305.782 111.395 306.246 111.55 306.788 111.473C307.33 111.395 307.871 111.473 308.49 111.473C308.877 111.473 309.264 111.55 309.651 111.55C310.116 111.55 310.58 111.782 311.044 111.55C311.044 111.55 311.122 111.628 311.199 111.628C311.431 111.628 311.663 111.782 311.818 111.628C312.36 111.395 312.824 111.473 313.366 111.55C313.753 111.55 314.14 111.55 314.449 111.473C314.681 111.473 314.914 111.473 315.146 111.473C315.301 111.473 315.455 111.473 315.533 111.473C315.997 111.473 316.461 111.55 316.926 111.473C317.313 111.473 317.622 111.55 318.009 111.628C318.164 111.705 318.396 111.705 318.473 111.628C318.938 111.395 319.325 111.473 319.789 111.473C320.099 111.473 320.408 111.473 320.718 111.395C321.027 111.318 321.182 111.241 321.492 111.395C321.879 111.628 322.343 111.782 322.498 112.401C322.73 113.253 322.73 114.181 322.73 115.11C322.73 115.806 322.73 116.58 322.652 117.354C322.652 118.206 322.652 118.979 322.575 119.831C322.575 120.295 322.575 120.682 322.575 121.146C322.807 121.069 322.962 120.991 323.039 120.991C323.272 120.837 323.504 120.605 323.658 120.605C324.045 120.682 324.355 120.605 324.742 120.682C325.516 120.682 326.367 120.759 327.141 120.837C327.915 120.914 328.689 120.991 329.54 121.069C329.772 121.069 330.082 120.914 330.314 120.991C330.933 121.069 331.552 120.991 332.171 120.914C332.481 120.914 332.868 120.837 333.177 120.837C334.028 120.759 334.88 120.759 335.731 120.759C336.273 120.682 336.814 120.759 337.356 120.759C337.666 120.759 337.975 120.527 338.207 120.914C338.207 120.527 338.207 120.218 338.207 119.908C338.13 119.289 338.053 118.67 337.975 118.051C337.975 117.973 337.975 117.896 337.975 117.819C337.975 117.509 338.053 117.199 337.975 116.89C337.975 116.503 337.82 116.039 337.82 115.574C337.82 114.8 337.82 114.104 337.82 113.33C337.82 113.253 337.82 113.253 337.898 113.175C338.285 112.247 338.981 111.782 340.065 111.782C340.374 111.782 340.684 111.86 340.993 111.86C341.38 111.782 341.767 111.628 342.232 111.782C342.232 111.782 342.309 111.782 342.386 111.782C343.005 111.705 343.547 111.705 344.089 111.628C344.398 111.628 344.708 111.628 345.018 111.55C345.018 111.318 345.018 111.008 345.018 110.699C345.018 110.467 345.018 110.312 345.095 110.157C345.327 109.229 345.327 108.3 345.172 107.371ZM322.962 95.9952C322.962 97.0786 322.807 98.162 322.73 99.2455C322.73 99.4002 322.652 99.4776 322.652 99.6324C322.575 100.019 322.343 100.097 321.956 100.019C320.95 99.7098 319.866 99.7098 318.783 99.7872C318.473 99.7872 318.164 99.7872 317.777 99.7872C317.854 99.1681 318.087 98.7811 318.473 98.4716C318.783 98.162 319.015 97.7751 319.247 97.3881C319.634 96.8464 320.021 96.2273 320.331 95.6856C320.64 95.2213 320.95 94.757 321.337 94.2926C321.569 93.9831 321.956 93.5961 322.265 93.2866C322.343 93.2092 322.498 93.2092 322.498 93.2092C322.652 93.2866 322.73 93.4414 322.807 93.5187C323.117 94.2926 323.039 95.1439 322.962 95.9952Z" fill="#FCFCFC"/>
</svg>
